<svg xmlns="http://www.w3.org/2000/svg" xmlns:xlink="http://www.w3.org/1999/xlink" viewBox="0 0 1280 720"><title>Gnuplot</title><desc>Produced by GNUPLOT 5.2 patchlevel 2</desc><g id="gnuplot_canvas"><rect width="1280" height="720" x="0" y="0" fill="none"/><defs><circle id="gpDot" r=".5" stroke-width=".5"/><path id="gpPt0" stroke="currentColor" stroke-width=".222" d="M-1,0 h2 M0,-1 v2"/><path id="gpPt1" stroke="currentColor" stroke-width=".222" d="M-1,-1 L1,1 M1,-1 L-1,1"/><path id="gpPt2" stroke="currentColor" stroke-width=".222" d="M-1,0 L1,0 M0,-1 L0,1 M-1,-1 L1,1 M-1,1 L1,-1"/><rect id="gpPt3" width="2" height="2" x="-1" y="-1" stroke="currentColor" stroke-width=".222"/><rect id="gpPt4" width="2" height="2" x="-1" y="-1" fill="currentColor" stroke="currentColor" stroke-width=".222"/><circle id="gpPt5" cx="0" cy="0" r="1" stroke="currentColor" stroke-width=".222"/><use id="gpPt6" fill="currentColor" stroke="none" xlink:href="#gpPt5"/><path id="gpPt7" stroke="currentColor" stroke-width=".222" d="M0,-1.33 L-1.33,0.67 L1.33,0.67 z"/><use id="gpPt8" fill="currentColor" stroke="none" xlink:href="#gpPt7"/><use id="gpPt9" stroke="currentColor" transform="rotate(180)" xlink:href="#gpPt7"/><use id="gpPt10" fill="currentColor" stroke="none" xlink:href="#gpPt9"/><use id="gpPt11" stroke="currentColor" transform="rotate(45)" xlink:href="#gpPt3"/><use id="gpPt12" fill="currentColor" stroke="none" xlink:href="#gpPt11"/><path id="gpPt13" stroke="currentColor" stroke-width=".222" d="M0,1.330 L1.265,0.411 L0.782,-1.067 L-0.782,-1.076 L-1.265,0.411 z"/><use id="gpPt14" fill="currentColor" stroke="none" xlink:href="#gpPt13"/><filter id="textbox" width="1" height="1" x="0" y="0" filterUnits="objectBoundingBox"><feFlood flood-color="#fff" flood-opacity="1" result="bgnd"/><feComposite in="SourceGraphic" in2="bgnd" operator="atop"/></filter><filter id="greybox" width="1" height="1" x="0" y="0" filterUnits="objectBoundingBox"><feFlood flood-color="#d3d3d3" flood-opacity="1" result="grey"/><feComposite in="SourceGraphic" in2="grey" operator="atop"/></filter></defs><g fill="none" stroke="currentColor" stroke-linecap="butt" stroke-linejoin="miter" stroke-width=".5" color="gray"><path stroke="gray" stroke-dasharray="2 4" d="M71.9,644.4 L1255.0,644.4" class="gridline"/></g><g fill="none" stroke="currentColor" stroke-linecap="butt" stroke-linejoin="miter" stroke-width="1" color="#000"><path stroke="#000" d="M71.9,644.4 L80.9,644.4"/><g fill="#000" stroke="none" font-family="Helvetica" font-size="12" text-anchor="end"><text transform="translate(63.6,648.3)"><tspan font-family="Helvetica">0</tspan></text></g></g><g fill="none" stroke="currentColor" stroke-linecap="butt" stroke-linejoin="miter" stroke-width=".5" color="gray"><path stroke="gray" stroke-dasharray="2 4" d="M71.9,546.0 L1255.0,546.0" class="gridline"/></g><g fill="none" stroke="currentColor" stroke-linecap="butt" stroke-linejoin="miter" stroke-width="1" color="#000"><path stroke="#000" d="M71.9,546.0 L80.9,546.0"/><g fill="#000" stroke="none" font-family="Helvetica" font-size="12" text-anchor="end"><text transform="translate(63.6,549.9)"><tspan font-family="Helvetica">20</tspan></text></g></g><g fill="none" stroke="currentColor" stroke-linecap="butt" stroke-linejoin="miter" stroke-width=".5" color="gray"><path stroke="gray" stroke-dasharray="2 4" d="M71.9,447.6 L1255.0,447.6" class="gridline"/></g><g fill="none" stroke="currentColor" stroke-linecap="butt" stroke-linejoin="miter" stroke-width="1" color="#000"><path stroke="#000" d="M71.9,447.6 L80.9,447.6"/><g fill="#000" stroke="none" font-family="Helvetica" font-size="12" text-anchor="end"><text transform="translate(63.6,451.5)"><tspan font-family="Helvetica">40</tspan></text></g></g><g fill="none" stroke="currentColor" stroke-linecap="butt" stroke-linejoin="miter" stroke-width=".5" color="gray"><path stroke="gray" stroke-dasharray="2 4" d="M71.9,349.2 L1255.0,349.2" class="gridline"/></g><g fill="none" stroke="currentColor" stroke-linecap="butt" stroke-linejoin="miter" stroke-width="1" color="#000"><path stroke="#000" d="M71.9,349.2 L80.9,349.2"/><g fill="#000" stroke="none" font-family="Helvetica" font-size="12" text-anchor="end"><text transform="translate(63.6,353.1)"><tspan font-family="Helvetica">60</tspan></text></g></g><g fill="none" stroke="currentColor" stroke-linecap="butt" stroke-linejoin="miter" stroke-width=".5" color="gray"><path stroke="gray" stroke-dasharray="2 4" d="M71.9,250.9 L1255.0,250.9" class="gridline"/></g><g fill="none" stroke="currentColor" stroke-linecap="butt" stroke-linejoin="miter" stroke-width="1" color="#000"><path stroke="#000" d="M71.9,250.9 L80.9,250.9"/><g fill="#000" stroke="none" font-family="Helvetica" font-size="12" text-anchor="end"><text transform="translate(63.6,254.8)"><tspan font-family="Helvetica">80</tspan></text></g></g><g fill="none" stroke="currentColor" stroke-linecap="butt" stroke-linejoin="miter" stroke-width=".5" color="gray"><path stroke="gray" stroke-dasharray="2 4" d="M71.9,152.5 L1255.0,152.5" class="gridline"/></g><g fill="none" stroke="currentColor" stroke-linecap="butt" stroke-linejoin="miter" stroke-width="1" color="#000"><path stroke="#000" d="M71.9,152.5 L80.9,152.5"/><g fill="#000" stroke="none" font-family="Helvetica" font-size="12" text-anchor="end"><text transform="translate(63.6,156.4)"><tspan font-family="Helvetica">100</tspan></text></g></g><g fill="none" stroke="currentColor" stroke-linecap="butt" stroke-linejoin="miter" stroke-width=".5" color="gray"><path stroke="gray" stroke-dasharray="2 4" d="M71.9,54.1 L1255.0,54.1" class="gridline"/></g><g fill="none" stroke="currentColor" stroke-linecap="butt" stroke-linejoin="miter" stroke-width="1" color="#000"><path stroke="#000" d="M71.9,54.1 L80.9,54.1"/><g fill="#000" stroke="none" font-family="Helvetica" font-size="12" text-anchor="end"><text transform="translate(63.6,58.0)"><tspan font-family="Helvetica">120</tspan></text></g></g><g fill="none" stroke="currentColor" stroke-linecap="butt" stroke-linejoin="miter" stroke-width=".5" color="gray"><path stroke="gray" stroke-dasharray="2 4" d="M71.9,644.4 L71.9,54.1" class="gridline"/></g><g fill="none" stroke="currentColor" stroke-linecap="butt" stroke-linejoin="miter" stroke-width="1" color="#000"><path stroke="#000" d="M71.9,644.4 L71.9,635.4"/><g fill="#000" stroke="none" font-family="Helvetica" font-size="12" text-anchor="middle"><text transform="translate(71.9,666.3)"><tspan font-family="Helvetica">0</tspan></text></g></g><g fill="none" stroke="currentColor" stroke-linecap="butt" stroke-linejoin="miter" stroke-width=".5" color="gray"><path stroke="gray" stroke-dasharray="2 4" d="M190.2,644.4 L190.2,117.1 M190.2,63.1 L190.2,54.1" class="gridline"/></g><g fill="none" stroke="currentColor" stroke-linecap="butt" stroke-linejoin="miter" stroke-width="1" color="#000"><path stroke="#000" d="M190.2,644.4 L190.2,635.4"/><g fill="#000" stroke="none" font-family="Helvetica" font-size="12" text-anchor="middle"><text transform="translate(190.2,666.3)"><tspan font-family="Helvetica">2</tspan></text></g></g><g fill="none" stroke="currentColor" stroke-linecap="butt" stroke-linejoin="miter" stroke-width=".5" color="gray"><path stroke="gray" stroke-dasharray="2 4" d="M308.5,644.4 L308.5,54.1" class="gridline"/></g><g fill="none" stroke="currentColor" stroke-linecap="butt" stroke-linejoin="miter" stroke-width="1" color="#000"><path stroke="#000" d="M308.5,644.4 L308.5,635.4"/><g fill="#000" stroke="none" font-family="Helvetica" font-size="12" text-anchor="middle"><text transform="translate(308.5,666.3)"><tspan font-family="Helvetica">4</tspan></text></g></g><g fill="none" stroke="currentColor" stroke-linecap="butt" stroke-linejoin="miter" stroke-width=".5" color="gray"><path stroke="gray" stroke-dasharray="2 4" d="M426.8,644.4 L426.8,54.1" class="gridline"/></g><g fill="none" stroke="currentColor" stroke-linecap="butt" stroke-linejoin="miter" stroke-width="1" color="#000"><path stroke="#000" d="M426.8,644.4 L426.8,635.4"/><g fill="#000" stroke="none" font-family="Helvetica" font-size="12" text-anchor="middle"><text transform="translate(426.8,666.3)"><tspan font-family="Helvetica">6</tspan></text></g></g><g fill="none" stroke="currentColor" stroke-linecap="butt" stroke-linejoin="miter" stroke-width=".5" color="gray"><path stroke="gray" stroke-dasharray="2 4" d="M545.1,644.4 L545.1,54.1" class="gridline"/></g><g fill="none" stroke="currentColor" stroke-linecap="butt" stroke-linejoin="miter" stroke-width="1" color="#000"><path stroke="#000" d="M545.1,644.4 L545.1,635.4"/><g fill="#000" stroke="none" font-family="Helvetica" font-size="12" text-anchor="middle"><text transform="translate(545.1,666.3)"><tspan font-family="Helvetica">8</tspan></text></g></g><g fill="none" stroke="currentColor" stroke-linecap="butt" stroke-linejoin="miter" stroke-width=".5" color="gray"><path stroke="gray" stroke-dasharray="2 4" d="M663.5,644.4 L663.5,54.1" class="gridline"/></g><g fill="none" stroke="currentColor" stroke-linecap="butt" stroke-linejoin="miter" stroke-width="1" color="#000"><path stroke="#000" d="M663.5,644.4 L663.5,635.4"/><g fill="#000" stroke="none" font-family="Helvetica" font-size="12" text-anchor="middle"><text transform="translate(663.5,666.3)"><tspan font-family="Helvetica">10</tspan></text></g></g><g fill="none" stroke="currentColor" stroke-linecap="butt" stroke-linejoin="miter" stroke-width=".5" color="gray"><path stroke="gray" stroke-dasharray="2 4" d="M781.8,644.4 L781.8,54.1" class="gridline"/></g><g fill="none" stroke="currentColor" stroke-linecap="butt" stroke-linejoin="miter" stroke-width="1" color="#000"><path stroke="#000" d="M781.8,644.4 L781.8,635.4"/><g fill="#000" stroke="none" font-family="Helvetica" font-size="12" text-anchor="middle"><text transform="translate(781.8,666.3)"><tspan font-family="Helvetica">12</tspan></text></g></g><g fill="none" stroke="currentColor" stroke-linecap="butt" stroke-linejoin="miter" stroke-width=".5" color="gray"><path stroke="gray" stroke-dasharray="2 4" d="M900.1,644.4 L900.1,54.1" class="gridline"/></g><g fill="none" stroke="currentColor" stroke-linecap="butt" stroke-linejoin="miter" stroke-width="1" color="#000"><path stroke="#000" d="M900.1,644.4 L900.1,635.4"/><g fill="#000" stroke="none" font-family="Helvetica" font-size="12" text-anchor="middle"><text transform="translate(900.1,666.3)"><tspan font-family="Helvetica">14</tspan></text></g></g><g fill="none" stroke="currentColor" stroke-linecap="butt" stroke-linejoin="miter" stroke-width=".5" color="gray"><path stroke="gray" stroke-dasharray="2 4" d="M1018.4,644.4 L1018.4,54.1" class="gridline"/></g><g fill="none" stroke="currentColor" stroke-linecap="butt" stroke-linejoin="miter" stroke-width="1" color="#000"><path stroke="#000" d="M1018.4,644.4 L1018.4,635.4"/><g fill="#000" stroke="none" font-family="Helvetica" font-size="12" text-anchor="middle"><text transform="translate(1018.4,666.3)"><tspan font-family="Helvetica">16</tspan></text></g></g><g fill="none" stroke="currentColor" stroke-linecap="butt" stroke-linejoin="miter" stroke-width=".5" color="gray"><path stroke="gray" stroke-dasharray="2 4" d="M1136.7,644.4 L1136.7,54.1" class="gridline"/></g><g fill="none" stroke="currentColor" stroke-linecap="butt" stroke-linejoin="miter" stroke-width="1" color="#000"><path stroke="#000" d="M1136.7,644.4 L1136.7,635.4"/><g fill="#000" stroke="none" font-family="Helvetica" font-size="12" text-anchor="middle"><text transform="translate(1136.7,666.3)"><tspan font-family="Helvetica">18</tspan></text></g></g><g fill="none" stroke="currentColor" stroke-linecap="butt" stroke-linejoin="miter" stroke-width=".5" color="gray"><path stroke="gray" stroke-dasharray="2 4" d="M1255.0,644.4 L1255.0,54.1" class="gridline"/></g><g fill="none" stroke="currentColor" stroke-linecap="butt" stroke-linejoin="miter" stroke-width="1" color="#000"><path stroke="#000" d="M1255.0,644.4 L1255.0,635.4"/><g fill="#000" stroke="none" font-family="Helvetica" font-size="12" text-anchor="middle"><text transform="translate(1255.0,666.3)"><tspan font-family="Helvetica">20</tspan></text></g></g><g fill="none" stroke="currentColor" stroke-linecap="butt" stroke-linejoin="miter" stroke-width="1" color="#000"><path stroke="#000" d="M71.9,54.1 L71.9,644.4 L1255.0,644.4 L1255.0,54.1 L71.9,54.1 Z"/></g><g fill="none" stroke="currentColor" stroke-linecap="butt" stroke-linejoin="miter" stroke-width="1" color="#000"><g fill="#000" stroke="none" font-family="Helvetica" font-size="12" text-anchor="middle"><text transform="translate(16.3,349.3) rotate(270)"><tspan font-family="Helvetica">Total sample time (ms)</tspan></text></g></g><g fill="none" stroke="currentColor" stroke-linecap="butt" stroke-linejoin="miter" stroke-width="1" color="#000"><g fill="#000" stroke="none" font-family="Helvetica" font-size="12" text-anchor="middle"><text transform="translate(663.4,693.3)"><tspan font-family="Helvetica">Iterations (x 10</tspan><tspan dy="-6" font-family="Helvetica" font-size="9.6">6</tspan><tspan dy="6" font-family="Helvetica" font-size="12">)</tspan></text></g></g><g fill="none" stroke="currentColor" stroke-linecap="butt" stroke-linejoin="miter" stroke-width="1" color="#000"><g fill="#000" stroke="none" font-family="Helvetica" font-size="12" text-anchor="middle"><text transform="translate(663.4,31.0)"><tspan font-family="Helvetica">Fibonacci2/Iterative/21</tspan></text></g></g><g id="gnuplot_plot_1"><title>Sample</title><g fill="none" stroke="currentColor" stroke-linecap="butt" stroke-linejoin="miter" stroke-width="1" color="#000"><g fill="#000" stroke="none" font-family="Helvetica" font-size="12" text-anchor="start"><text transform="translate(139.0,76.0)"><tspan font-family="Helvetica">Sample</tspan></text></g></g><g fill="none" stroke="currentColor" stroke-linecap="butt" stroke-linejoin="miter" stroke-width="1" color="#000"><use color="#1F78B4" transform="translate(83.2,638.9) scale(2.25)" xlink:href="#gpPt6"/><use color="#1F78B4" transform="translate(94.5,635.2) scale(2.25)" xlink:href="#gpPt6"/><use color="#1F78B4" transform="translate(105.7,630.0) scale(2.25)" xlink:href="#gpPt6"/><use color="#1F78B4" transform="translate(117.0,623.9) scale(2.25)" xlink:href="#gpPt6"/><use color="#1F78B4" transform="translate(128.3,620.8) scale(2.25)" xlink:href="#gpPt6"/><use color="#1F78B4" transform="translate(139.6,615.4) scale(2.25)" xlink:href="#gpPt6"/><use color="#1F78B4" transform="translate(150.9,610.2) scale(2.25)" xlink:href="#gpPt6"/><use color="#1F78B4" transform="translate(162.1,605.8) scale(2.25)" xlink:href="#gpPt6"/><use color="#1F78B4" transform="translate(173.4,602.5) scale(2.25)" xlink:href="#gpPt6"/><use color="#1F78B4" transform="translate(184.7,597.1) scale(2.25)" xlink:href="#gpPt6"/><use color="#1F78B4" transform="translate(196.0,591.1) scale(2.25)" xlink:href="#gpPt6"/><use color="#1F78B4" transform="translate(207.3,588.7) scale(2.25)" xlink:href="#gpPt6"/><use color="#1F78B4" transform="translate(218.5,580.8) scale(2.25)" xlink:href="#gpPt6"/><use color="#1F78B4" transform="translate(229.8,577.8) scale(2.25)" xlink:href="#gpPt6"/><use color="#1F78B4" transform="translate(241.1,573.6) scale(2.25)" xlink:href="#gpPt6"/><use color="#1F78B4" transform="translate(252.4,569.0) scale(2.25)" xlink:href="#gpPt6"/><use color="#1F78B4" transform="translate(263.7,565.4) scale(2.25)" xlink:href="#gpPt6"/><use color="#1F78B4" transform="translate(275.0,560.7) scale(2.25)" xlink:href="#gpPt6"/><use color="#1F78B4" transform="translate(286.2,554.1) scale(2.25)" xlink:href="#gpPt6"/><use color="#1F78B4" transform="translate(297.5,549.5) scale(2.25)" xlink:href="#gpPt6"/><use color="#1F78B4" transform="translate(308.8,545.4) scale(2.25)" xlink:href="#gpPt6"/><use color="#1F78B4" transform="translate(320.1,540.9) scale(2.25)" xlink:href="#gpPt6"/><use color="#1F78B4" transform="translate(331.4,535.6) scale(2.25)" xlink:href="#gpPt6"/><use color="#1F78B4" transform="translate(342.6,529.7) scale(2.25)" xlink:href="#gpPt6"/><use color="#1F78B4" transform="translate(353.9,528.9) scale(2.25)" xlink:href="#gpPt6"/><use color="#1F78B4" transform="translate(365.2,513.0) scale(2.25)" xlink:href="#gpPt6"/><use color="#1F78B4" transform="translate(376.5,513.8) scale(2.25)" xlink:href="#gpPt6"/><use color="#1F78B4" transform="translate(387.8,507.9) scale(2.25)" xlink:href="#gpPt6"/><use color="#1F78B4" transform="translate(399.0,496.9) scale(2.25)" xlink:href="#gpPt6"/><use color="#1F78B4" transform="translate(410.3,499.4) scale(2.25)" xlink:href="#gpPt6"/><use color="#1F78B4" transform="translate(421.6,495.6) scale(2.25)" xlink:href="#gpPt6"/><use color="#1F78B4" transform="translate(432.9,496.1) scale(2.25)" xlink:href="#gpPt6"/><use color="#1F78B4" transform="translate(444.2,488.2) scale(2.25)" xlink:href="#gpPt6"/><use color="#1F78B4" transform="translate(455.4,480.8) scale(2.25)" xlink:href="#gpPt6"/><use color="#1F78B4" transform="translate(466.7,446.4) scale(2.25)" xlink:href="#gpPt6"/><use color="#1F78B4" transform="translate(478.0,469.1) scale(2.25)" xlink:href="#gpPt6"/><use color="#1F78B4" transform="translate(489.3,469.8) scale(2.25)" xlink:href="#gpPt6"/><use color="#1F78B4" transform="translate(500.6,458.0) scale(2.25)" xlink:href="#gpPt6"/><use color="#1F78B4" transform="translate(511.8,459.5) scale(2.25)" xlink:href="#gpPt6"/><use color="#1F78B4" transform="translate(523.1,450.1) scale(2.25)" xlink:href="#gpPt6"/><use color="#1F78B4" transform="translate(534.4,448.8) scale(2.25)" xlink:href="#gpPt6"/><use color="#1F78B4" transform="translate(545.7,449.0) scale(2.25)" xlink:href="#gpPt6"/><use color="#1F78B4" transform="translate(557.0,433.6) scale(2.25)" xlink:href="#gpPt6"/><use color="#1F78B4" transform="translate(568.2,429.9) scale(2.25)" xlink:href="#gpPt6"/><use color="#1F78B4" transform="translate(579.5,427.4) scale(2.25)" xlink:href="#gpPt6"/><use color="#1F78B4" transform="translate(590.8,424.7) scale(2.25)" xlink:href="#gpPt6"/><use color="#1F78B4" transform="translate(602.1,417.1) scale(2.25)" xlink:href="#gpPt6"/><use color="#1F78B4" transform="translate(613.4,414.5) scale(2.25)" xlink:href="#gpPt6"/><use color="#1F78B4" transform="translate(624.6,407.0) scale(2.25)" xlink:href="#gpPt6"/><use color="#1F78B4" transform="translate(635.9,367.6) scale(2.25)" xlink:href="#gpPt6"/><use color="#1F78B4" transform="translate(647.2,395.7) scale(2.25)" xlink:href="#gpPt6"/><use color="#1F78B4" transform="translate(658.5,384.3) scale(2.25)" xlink:href="#gpPt6"/><use color="#1F78B4" transform="translate(669.8,348.9) scale(2.25)" xlink:href="#gpPt6"/><use color="#1F78B4" transform="translate(681.1,384.0) scale(2.25)" xlink:href="#gpPt6"/><use color="#1F78B4" transform="translate(692.3,383.2) scale(2.25)" xlink:href="#gpPt6"/><use color="#1F78B4" transform="translate(703.6,370.7) scale(2.25)" xlink:href="#gpPt6"/><use color="#1F78B4" transform="translate(714.9,352.3) scale(2.25)" xlink:href="#gpPt6"/><use color="#1F78B4" transform="translate(726.2,372.3) scale(2.25)" xlink:href="#gpPt6"/><use color="#1F78B4" transform="translate(737.5,354.5) scale(2.25)" xlink:href="#gpPt6"/><use color="#1F78B4" transform="translate(748.7,350.4) scale(2.25)" xlink:href="#gpPt6"/><use color="#1F78B4" transform="translate(760.0,357.1) scale(2.25)" xlink:href="#gpPt6"/><use color="#1F78B4" transform="translate(771.3,343.8) scale(2.25)" xlink:href="#gpPt6"/><use color="#1F78B4" transform="translate(782.6,321.2) scale(2.25)" xlink:href="#gpPt6"/><use color="#1F78B4" transform="translate(793.9,339.5) scale(2.25)" xlink:href="#gpPt6"/><use color="#1F78B4" transform="translate(805.1,335.1) scale(2.25)" xlink:href="#gpPt6"/><use color="#1F78B4" transform="translate(816.4,335.0) scale(2.25)" xlink:href="#gpPt6"/><use color="#1F78B4" transform="translate(827.7,328.9) scale(2.25)" xlink:href="#gpPt6"/><use color="#1F78B4" transform="translate(839.0,321.8) scale(2.25)" xlink:href="#gpPt6"/><use color="#1F78B4" transform="translate(850.3,308.5) scale(2.25)" xlink:href="#gpPt6"/><use color="#1F78B4" transform="translate(861.5,312.1) scale(2.25)" xlink:href="#gpPt6"/><use color="#1F78B4" transform="translate(872.8,183.0) scale(2.25)" xlink:href="#gpPt6"/><use color="#1F78B4" transform="translate(884.1,272.7) scale(2.25)" xlink:href="#gpPt6"/><use color="#1F78B4" transform="translate(895.4,302.0) scale(2.25)" xlink:href="#gpPt6"/><use color="#1F78B4" transform="translate(906.7,293.3) scale(2.25)" xlink:href="#gpPt6"/><use color="#1F78B4" transform="translate(917.9,277.4) scale(2.25)" xlink:href="#gpPt6"/><use color="#1F78B4" transform="translate(929.2,286.1) scale(2.25)" xlink:href="#gpPt6"/><use color="#1F78B4" transform="translate(940.5,275.2) scale(2.25)" xlink:href="#gpPt6"/><use color="#1F78B4" transform="translate(951.8,270.7) scale(2.25)" xlink:href="#gpPt6"/><use color="#1F78B4" transform="translate(963.1,266.4) scale(2.25)" xlink:href="#gpPt6"/><use color="#1F78B4" transform="translate(974.3,261.7) scale(2.25)" xlink:href="#gpPt6"/><use color="#1F78B4" transform="translate(985.6,261.1) scale(2.25)" xlink:href="#gpPt6"/><use color="#1F78B4" transform="translate(996.9,249.5) scale(2.25)" xlink:href="#gpPt6"/><use color="#1F78B4" transform="translate(1008.2,233.1) scale(2.25)" xlink:href="#gpPt6"/><use color="#1F78B4" transform="translate(1019.5,247.7) scale(2.25)" xlink:href="#gpPt6"/><use color="#1F78B4" transform="translate(1030.7,211.7) scale(2.25)" xlink:href="#gpPt6"/><use color="#1F78B4" transform="translate(1042.0,234.3) scale(2.25)" xlink:href="#gpPt6"/><use color="#1F78B4" transform="translate(1053.3,226.0) scale(2.25)" xlink:href="#gpPt6"/><use color="#1F78B4" transform="translate(1064.6,223.4) scale(2.25)" xlink:href="#gpPt6"/><use color="#1F78B4" transform="translate(1075.9,214.7) scale(2.25)" xlink:href="#gpPt6"/><use color="#1F78B4" transform="translate(1087.2,215.4) scale(2.25)" xlink:href="#gpPt6"/><use color="#1F78B4" transform="translate(1098.4,214.5) scale(2.25)" xlink:href="#gpPt6"/><use color="#1F78B4" transform="translate(1109.7,205.1) scale(2.25)" xlink:href="#gpPt6"/><use color="#1F78B4" transform="translate(1121.0,201.8) scale(2.25)" xlink:href="#gpPt6"/><use color="#1F78B4" transform="translate(1132.3,189.0) scale(2.25)" xlink:href="#gpPt6"/><use color="#1F78B4" transform="translate(1143.6,191.6) scale(2.25)" xlink:href="#gpPt6"/><use color="#1F78B4" transform="translate(1154.8,173.5) scale(2.25)" xlink:href="#gpPt6"/><use color="#1F78B4" transform="translate(1166.1,181.9) scale(2.25)" xlink:href="#gpPt6"/><use color="#1F78B4" transform="translate(1177.4,176.2) scale(2.25)" xlink:href="#gpPt6"/><use color="#1F78B4" transform="translate(1188.7,168.7) scale(2.25)" xlink:href="#gpPt6"/><use color="#1F78B4" transform="translate(1200.0,165.4) scale(2.25)" xlink:href="#gpPt6"/><use color="#1F78B4" transform="translate(109.6,72.1) scale(2.25)" xlink:href="#gpPt6"/></g></g><g id="gnuplot_plot_2"><title>Linear regression</title><g fill="none" stroke="currentColor" stroke-linecap="butt" stroke-linejoin="miter" stroke-width="2" color="#000"><g fill="#000" stroke="none" font-family="Helvetica" font-size="12" text-anchor="start"><text transform="translate(139.0,94.0)"><tspan font-family="Helvetica">Linear regression</tspan></text></g></g><g fill="none" stroke="currentColor" stroke-linecap="butt" stroke-linejoin="miter" stroke-width="2" color="#000"><path stroke="#1F78B4" d="M88.5,90.1 L130.7,90.1 M71.9,644.4 L1200.0,159.1"/></g></g><g id="gnuplot_plot_3"><title>Confidence interval</title><g fill="none" stroke="currentColor" stroke-linecap="butt" stroke-linejoin="miter" stroke-width="1" color="#000"><g fill="#000" stroke="none" font-family="Helvetica" font-size="12" text-anchor="start"><text transform="translate(139.0,112.0)"><tspan font-family="Helvetica">Confidence interval</tspan></text></g></g><g fill="none" stroke="currentColor" stroke-linecap="butt" stroke-linejoin="miter" stroke-width="1" color="#000"><g stroke="none" shape-rendering="crispEdges"><polygon fill="#1F78B4" fill-opacity=".25" points="88.5 112.6 130.7 112.6 130.7 103.6 88.5 103.6"/><polygon fill="#1F78B4" fill-opacity=".25" points="71.9 644.4 71.9 644.4 71.9 644.4"/><polygon fill="#1F78B4" fill-opacity=".25" points="71.9 644.4 1200 163.8 1200 152.4"/></g></g></g><g fill="none" stroke="currentColor" stroke-linecap="butt" stroke-linejoin="miter" stroke-width="1" color="#000"><path stroke="#000" d="M71.9,54.1 L71.9,644.4 L1255.0,644.4 L1255.0,54.1 L71.9,54.1 Z"/></g></g></svg>