<svg xmlns="http://www.w3.org/2000/svg" xmlns:xlink="http://www.w3.org/1999/xlink" viewBox="0 0 1280 250"><title>Gnuplot</title><desc>Produced by GNUPLOT 5.2 patchlevel 2</desc><g id="gnuplot_canvas"><rect width="1280" height="250" x="0" y="0" fill="none"/><defs><circle id="gpDot" r=".5" stroke-width=".5"/><path id="gpPt0" stroke="currentColor" stroke-width=".222" d="M-1,0 h2 M0,-1 v2"/><path id="gpPt1" stroke="currentColor" stroke-width=".222" d="M-1,-1 L1,1 M1,-1 L-1,1"/><path id="gpPt2" stroke="currentColor" stroke-width=".222" d="M-1,0 L1,0 M0,-1 L0,1 M-1,-1 L1,1 M-1,1 L1,-1"/><rect id="gpPt3" width="2" height="2" x="-1" y="-1" stroke="currentColor" stroke-width=".222"/><rect id="gpPt4" width="2" height="2" x="-1" y="-1" fill="currentColor" stroke="currentColor" stroke-width=".222"/><circle id="gpPt5" cx="0" cy="0" r="1" stroke="currentColor" stroke-width=".222"/><use id="gpPt6" fill="currentColor" stroke="none" xlink:href="#gpPt5"/><path id="gpPt7" stroke="currentColor" stroke-width=".222" d="M0,-1.33 L-1.33,0.67 L1.33,0.67 z"/><use id="gpPt8" fill="currentColor" stroke="none" xlink:href="#gpPt7"/><use id="gpPt9" stroke="currentColor" transform="rotate(180)" xlink:href="#gpPt7"/><use id="gpPt10" fill="currentColor" stroke="none" xlink:href="#gpPt9"/><use id="gpPt11" stroke="currentColor" transform="rotate(45)" xlink:href="#gpPt3"/><use id="gpPt12" fill="currentColor" stroke="none" xlink:href="#gpPt11"/><path id="gpPt13" stroke="currentColor" stroke-width=".222" d="M0,1.330 L1.265,0.411 L0.782,-1.067 L-0.782,-1.076 L-1.265,0.411 z"/><use id="gpPt14" fill="currentColor" stroke="none" xlink:href="#gpPt13"/><filter id="textbox" width="1" height="1" x="0" y="0" filterUnits="objectBoundingBox"><feFlood flood-color="#fff" flood-opacity="1" result="bgnd"/><feComposite in="SourceGraphic" in2="bgnd" operator="atop"/></filter><filter id="greybox" width="1" height="1" x="0" y="0" filterUnits="objectBoundingBox"><feFlood flood-color="#d3d3d3" flood-opacity="1" result="grey"/><feComposite in="SourceGraphic" in2="grey" operator="atop"/></filter></defs><g fill="none" stroke="currentColor" stroke-linecap="butt" stroke-linejoin="miter" stroke-width="1" color="#000"><path stroke="#000" d="M229.6,157.8 L238.6,157.8"/><g fill="#000" stroke="none" font-family="Helvetica" font-size="12" text-anchor="end"><text transform="translate(221.3,161.7)"><tspan font-family="Helvetica">Fibonacci2/Iterative/20</tspan></text></g></g><g fill="none" stroke="currentColor" stroke-linecap="butt" stroke-linejoin="miter" stroke-width="1" color="#000"><path stroke="#000" d="M229.6,88.7 L238.6,88.7"/><g fill="#000" stroke="none" font-family="Helvetica" font-size="12" text-anchor="end"><text transform="translate(221.3,92.6)"><tspan font-family="Helvetica">Fibonacci2/Recursive/20</tspan></text></g></g><g fill="none" stroke="currentColor" stroke-linecap="butt" stroke-linejoin="miter" stroke-width=".5" color="gray"><path stroke="gray" stroke-dasharray="2 4" d="M229.6,192.4 L229.6,54.1" class="gridline"/></g><g fill="none" stroke="currentColor" stroke-linecap="butt" stroke-linejoin="miter" stroke-width="1" color="#000"><path stroke="#000" d="M229.6,192.4 L229.6,183.4"/><g fill="#000" stroke="none" font-family="Helvetica" font-size="12" text-anchor="middle"><text transform="translate(229.6,214.3)"><tspan font-family="Helvetica">0</tspan></text></g></g><g fill="none" stroke="currentColor" stroke-linecap="butt" stroke-linejoin="miter" stroke-width=".5" color="gray"><path stroke="gray" stroke-dasharray="2 4" d="M434.7,192.4 L434.7,54.1" class="gridline"/></g><g fill="none" stroke="currentColor" stroke-linecap="butt" stroke-linejoin="miter" stroke-width="1" color="#000"><path stroke="#000" d="M434.7,192.4 L434.7,183.4"/><g fill="#000" stroke="none" font-family="Helvetica" font-size="12" text-anchor="middle"><text transform="translate(434.7,214.3)"><tspan font-family="Helvetica">5</tspan></text></g></g><g fill="none" stroke="currentColor" stroke-linecap="butt" stroke-linejoin="miter" stroke-width=".5" color="gray"><path stroke="gray" stroke-dasharray="2 4" d="M639.8,192.4 L639.8,54.1" class="gridline"/></g><g fill="none" stroke="currentColor" stroke-linecap="butt" stroke-linejoin="miter" stroke-width="1" color="#000"><path stroke="#000" d="M639.8,192.4 L639.8,183.4"/><g fill="#000" stroke="none" font-family="Helvetica" font-size="12" text-anchor="middle"><text transform="translate(639.8,214.3)"><tspan font-family="Helvetica">10</tspan></text></g></g><g fill="none" stroke="currentColor" stroke-linecap="butt" stroke-linejoin="miter" stroke-width=".5" color="gray"><path stroke="gray" stroke-dasharray="2 4" d="M844.8,192.4 L844.8,54.1" class="gridline"/></g><g fill="none" stroke="currentColor" stroke-linecap="butt" stroke-linejoin="miter" stroke-width="1" color="#000"><path stroke="#000" d="M844.8,192.4 L844.8,183.4"/><g fill="#000" stroke="none" font-family="Helvetica" font-size="12" text-anchor="middle"><text transform="translate(844.8,214.3)"><tspan font-family="Helvetica">15</tspan></text></g></g><g fill="none" stroke="currentColor" stroke-linecap="butt" stroke-linejoin="miter" stroke-width=".5" color="gray"><path stroke="gray" stroke-dasharray="2 4" d="M1049.9,192.4 L1049.9,54.1" class="gridline"/></g><g fill="none" stroke="currentColor" stroke-linecap="butt" stroke-linejoin="miter" stroke-width="1" color="#000"><path stroke="#000" d="M1049.9,192.4 L1049.9,183.4"/><g fill="#000" stroke="none" font-family="Helvetica" font-size="12" text-anchor="middle"><text transform="translate(1049.9,214.3)"><tspan font-family="Helvetica">20</tspan></text></g></g><g fill="none" stroke="currentColor" stroke-linecap="butt" stroke-linejoin="miter" stroke-width=".5" color="gray"><path stroke="gray" stroke-dasharray="2 4" d="M1255.0,192.4 L1255.0,54.1" class="gridline"/></g><g fill="none" stroke="currentColor" stroke-linecap="butt" stroke-linejoin="miter" stroke-width="1" color="#000"><path stroke="#000" d="M1255.0,192.4 L1255.0,183.4"/><g fill="#000" stroke="none" font-family="Helvetica" font-size="12" text-anchor="middle"><text transform="translate(1255.0,214.3)"><tspan font-family="Helvetica">25</tspan></text></g></g><g fill="none" stroke="currentColor" stroke-linecap="butt" stroke-linejoin="miter" stroke-width="1" color="#000"><path stroke="#000" d="M229.6,54.1 L229.6,192.4 L1255.0,192.4 L1255.0,54.1 L229.6,54.1 Z"/></g><g fill="none" stroke="currentColor" stroke-linecap="butt" stroke-linejoin="miter" stroke-width="1" color="#000"><g fill="#000" stroke="none" font-family="Helvetica" font-size="12" text-anchor="middle"><text transform="translate(16.3,123.3) rotate(270)"><tspan font-family="Helvetica">Input</tspan></text></g></g><g fill="none" stroke="currentColor" stroke-linecap="butt" stroke-linejoin="miter" stroke-width="1" color="#000"><g fill="#000" stroke="none" font-family="Helvetica" font-size="12" text-anchor="middle"><text transform="translate(742.3,241.3)"><tspan font-family="Helvetica">Average time (us)</tspan></text></g></g><g fill="none" stroke="currentColor" stroke-linecap="butt" stroke-linejoin="miter" stroke-width="1" color="#000"><g fill="#000" stroke="none" font-family="Helvetica" font-size="12" text-anchor="middle"><text transform="translate(742.3,31.0)"><tspan font-family="Helvetica">Fibonacci2/20: Violin plot</tspan></text></g></g><g id="gnuplot_plot_1"><title>PDF</title><g fill="none" stroke="currentColor" stroke-linecap="butt" stroke-linejoin="miter" stroke-width="1" color="#000"><g fill="#000" stroke="none" font-family="Helvetica" font-size="12" text-anchor="end"><text transform="translate(1187.9,76.0)"><tspan font-family="Helvetica">PDF</tspan></text></g></g><g fill="none" stroke="currentColor" stroke-linecap="butt" stroke-linejoin="miter" stroke-width="1" color="#000"><g stroke="none" shape-rendering="crispEdges"><polygon fill="#1F78B4" fill-opacity=".25" points="1196.2 76.6 1238.4 76.6 1238.4 67.6 1196.2 67.6"/><polygon fill="#1F78B4" fill-opacity=".25" points="229.8 157.8 229.8 157.8 229.8 157.8 229.8 157.7 229.8 157.7 229.8 157.7 229.8 157.7 229.8 157.7 229.8 157.7 229.8 157.6 229.8 157.6 229.8 157.6 229.8 157.6 229.8 157.5 229.8 157.5 229.8 157.4 229.8 157.4 229.8 157.3 229.8 157.3 229.8 157.2 229.8 157.1 229.8 157.1 229.8 157 229.8 156.9 229.8 156.8 229.8 156.7 229.8 156.5 229.8 156.4 229.8 156.3 229.8 156.1 229.8 155.9 229.8 155.7 229.8 155.5 229.8 155.3 229.8 155.1 229.8 154.9 229.8 154.6 229.8 154.3 229.8 154 229.8 153.7 229.8 153.4 229.8 153 229.8 152.6 229.8 152.2 229.8 151.8 229.8 151.4 229.8 150.9 229.8 150.4 229.8 149.9 229.8 149.4 229.8 148.9 229.8 148.3 229.8 147.7 229.8 147.1 229.8 146.4 229.8 145.8 229.8 145.1 229.8 144.4 229.8 143.7 229.8 143 229.8 142.3 229.8 141.5 229.8 140.8 229.8 140 229.8 139.2 229.8 138.5 229.8 137.7 229.8 136.9 229.8 136.1 229.8 135.3 229.8 134.6 229.8 133.8 229.8 133.1 229.8 132.3 229.8 131.6 229.8 130.9 229.8 130.2 229.8 129.5 229.8 128.9 229.8 128.2 229.8 127.7 229.8 127.1 229.8 126.6 229.8 126.1 229.8 125.6 229.8 125.2 229.8 124.8 229.8 124.5 229.8 124.2 229.8 123.9 229.8 123.7 229.8 123.5 229.8 123.4 229.8 123.3 229.8 123.2 229.8 123.3 229.8 123.3 229.8 123.4 229.8 123.5 229.8 123.7 229.8 123.9 229.8 124.2 229.8 124.5 229.8 124.8 229.8 125.2 229.8 125.6 229.8 126 229.8 126.5 229.8 127 229.8 127.5 229.8 128.1 229.8 128.7 229.8 129.3 229.8 129.9 229.8 130.5 229.8 131.2 229.8 131.8 229.8 132.5 229.8 133.2 229.8 133.8 229.8 134.5 229.8 135.2 229.8 135.9 229.8 136.6 229.8 137.3 229.8 138 229.8 138.7 229.8 139.3 229.8 140 229.8 140.6 229.8 141.3 229.8 141.9 229.8 142.5 229.8 143.1 229.8 143.7 229.8 144.3 229.8 144.8 229.8 145.4 229.8 145.9 229.8 146.4 229.8 146.9 229.8 147.3 229.8 147.8 229.8 148.2 229.8 148.6 229.8 149 229.8 149.4 229.8 149.8 229.8 150.1 229.8 150.5 229.8 150.8 229.8 151.1 229.8 151.4 229.8 151.7 229.8 152 229.8 152.2 229.8 152.5 229.8 152.7 229.8 152.9 229.8 153.1 229.8 153.3 229.8 153.5 229.8 153.7 229.8 153.9 229.8 154 229.8 154.2 229.8 154.3 229.8 154.5 229.8 154.6 229.8 154.7 229.8 154.8 229.8 155 229.8 155.1 229.8 155.2 229.8 155.3 229.8 155.4 229.8 155.5 229.8 155.6 229.8 155.7 229.8 155.7 229.8 155.8 229.8 155.9 229.8 156 229.8 156 229.8 156.1 229.8 156.2 229.8 156.2 229.8 156.3 229.8 156.3 229.8 156.4 229.8 156.4 229.8 156.5 229.8 156.5 229.8 156.6 229.8 156.6 229.8 156.7 229.8 156.7 229.8 156.8 229.8 156.8 229.8 156.8 229.8 156.9 229.8 156.9 229.8 156.9 229.8 156.9 229.8 157 229.8 157 229.8 157 229.8 157 229.8 157.1 229.8 157.1 229.8 157.1 229.8 157.1 229.8 157.1 229.8 157.1 229.8 157.1 229.8 157.2 229.8 157.2 229.8 157.2 229.8 157.2 229.8 157.2 229.8 157.2 229.8 157.2 229.8 157.2 229.8 157.2 229.8 157.2 229.8 157.2 229.8 157.2 229.8 157.2 229.8 157.3 229.8 157.3 229.8 157.3 229.8 157.3 229.8 157.3 229.8 157.3 229.8 157.3 229.8 157.3 229.8 157.3 229.8 157.3 229.8 157.3 229.8 157.3 229.8 157.3 229.8 157.3 229.8 157.3 229.8 157.3 229.8 157.3 229.8 157.4 229.8 157.4 229.8 157.4 229.8 157.4 229.8 157.4 229.8 157.4 229.8 157.4 229.8 157.4 229.8 157.4 229.8 157.4 229.8 157.4 229.8 157.5 229.8 157.5 229.8 157.5 229.8 157.5 229.8 157.5 229.8 157.5 229.8 157.5 229.8 157.5 229.8 157.5 229.8 157.5 229.8 157.5 229.8 157.5 229.8 157.5 229.8 157.5 229.8 157.5 229.8 157.6 229.8 157.6 229.8 157.6 229.8 157.6 229.8 157.6 229.8 157.6 229.8 157.6 229.8 157.6 229.8 157.6 229.8 157.5 229.8 157.5 229.8 157.5 229.8 157.5 229.8 157.5 229.8 157.5 229.8 157.5 229.8 157.5 229.8 157.5 229.8 157.5 229.8 157.5 229.8 157.5 229.8 157.5 229.8 157.5 229.8 157.5 229.8 157.5 229.8 157.4 229.8 157.4 229.8 157.4 229.8 157.4 229.8 157.4 229.8 157.4 229.8 157.4 229.8 157.4 229.8 157.4 229.8 157.4 229.8 157.4 229.8 157.4 229.8 157.4 229.8 157.4 229.8 157.4 229.8 157.4 229.8 157.4 229.8 157.4 229.8 157.4 229.8 157.4 229.8 157.4 229.8 157.4 229.9 157.4 229.9 157.4 229.9 157.4 229.9 157.4 229.9 157.4 229.9 157.4 229.9 157.4 229.9 157.4 229.9 157.5 229.9 157.5 229.9 157.5 229.9 157.5 229.9 157.5 229.9 157.5 229.9 157.5 229.9 157.5 229.9 157.5 229.9 157.6 229.9 157.6 229.9 157.6 229.9 157.6 229.9 157.6 229.9 157.6 229.9 157.6 229.9 157.6 229.9 157.6 229.9 157.6 229.9 157.7 229.9 157.7 229.9 157.7 229.9 157.7 229.9 157.7 229.9 157.7 229.9 157.7 229.9 157.7 229.9 157.7 229.9 157.7 229.9 157.7 229.9 157.7 229.9 157.7 229.9 157.7 229.9 157.8 229.9 157.8 229.9 157.8 229.9 157.8 229.9 157.8 229.9 157.8 229.9 157.8 229.9 157.8 229.9 157.8 229.9 157.8 229.9 157.8 229.9 157.8 229.9 157.8 229.9 157.7 229.9 157.7 229.9 157.7 229.9 157.7 229.9 157.7 229.9 157.7 229.9 157.7 229.9 157.7 229.9 157.7 229.9 157.7 229.9 157.7 229.9 157.7 229.9 157.7 229.9 157.6 229.9 157.6 229.9 157.6 229.9 157.6 229.9 157.6 229.9 157.6 229.9 157.5 229.9 157.5 229.9 157.5 229.9 157.5 229.9 157.5 229.9 157.5 229.9 157.4 229.9 157.4 229.9 157.4 229.9 157.4 229.9 157.3 229.9 157.3 229.9 157.3 229.9 157.3 229.9 157.3 229.9 157.2 229.9 157.2 229.9 157.2 229.9 157.2 229.9 157.1 229.9 157.1 229.9 157.1 229.9 157.1 229.9 157.1 229.9 157 229.9 157 229.9 157 229.9 157 229.9 157 229.9 157 229.9 157 229.9 157 229.9 157 229.9 156.9 229.9 156.9 229.9 156.9 229.9 156.9 229.9 156.9 229.9 156.9 229.9 156.9 229.9 156.9 229.9 157 229.9 157 229.9 157 229.9 157 229.9 157 229.9 157 229.9 157 229.9 157 229.9 157.1 229.9 157.1 229.9 157.1 229.9 157.1 229.9 157.1 229.9 157.2 229.9 157.2 229.9 157.2 229.9 157.2 229.9 157.2 229.9 157.3 229.9 157.3 229.9 157.3 229.9 157.3 229.9 157.4 229.9 157.4 229.9 157.4 229.9 157.4 229.9 157.4 229.9 157.5 229.9 157.5 229.9 157.5 229.9 157.5 229.9 157.5 229.9 157.6 229.9 157.6 229.9 157.6 229.9 157.6 229.9 157.6 229.9 157.6 229.9 157.6 229.9 157.7 229.9 157.7 229.9 157.7 229.9 157.7 229.9 157.7 229.9 157.7 229.9 157.7 229.9 157.7 229.9 157.7 229.9 157.8 229.9 157.8 229.9 157.8 229.9 157.8 229.9 157.8 229.9 157.8 229.9 157.8 229.9 157.8 229.9 157.8 229.9 157.8 229.9 157.8 229.9 157.8 229.9 157.8 229.9 157.8 229.9 157.8 229.9 157.8 229.9 157.8 229.9 157.8 229.9 157.8 229.9 157.8 229.9 157.8 229.9 157.8 229.9 157.8 229.9 157.8 229.9 157.8 229.9 157.8 229.9 157.8 229.9 157.8 229.9 157.8 229.9 157.9 229.9 157.9 229.9 157.9 229.9 157.9 229.9 157.9 229.9 157.9 229.9 157.9 229.9 157.9 229.9 157.9 229.9 157.9 229.9 157.9 229.9 157.9 229.9 157.9 229.9 157.9 229.9 157.9 229.9 157.9 229.9 158 229.9 158 229.9 158 229.9 158 229.9 158 229.9 158 229.9 158 229.9 158 229.9 158.1 229.9 158.1 229.9 158.1 229.9 158.1 229.9 158.1 229.9 158.1 229.9 158.2 229.9 158.2 229.9 158.2 229.9 158.2 229.9 158.3 229.9 158.3 229.9 158.3 229.9 158.3 229.9 158.3 229.9 158.4 229.9 158.4 229.9 158.4 229.9 158.4 229.9 158.5 229.9 158.5 229.9 158.5 229.9 158.5 229.9 158.5 229.9 158.6 229.9 158.6 229.9 158.6 229.9 158.6 229.9 158.6 229.9 158.6 229.9 158.7 229.9 158.7 229.9 158.7 229.9 158.7 229.9 158.7 229.9 158.7 229.9 158.7 229.9 158.7 229.9 158.7 229.9 158.7 229.9 158.7 229.9 158.7 229.9 158.7 229.9 158.7 229.9 158.7 229.9 158.7 229.9 158.7 229.9 158.7 229.9 158.6 229.9 158.6 229.9 158.6 229.9 158.6 229.9 158.6 229.9 158.6 229.9 158.5 229.9 158.5 229.9 158.5 229.9 158.5 229.9 158.5 229.9 158.4 229.9 158.4 229.9 158.4 229.9 158.4 229.9 158.4 229.9 158.3 229.9 158.3 229.9 158.3 229.9 158.3 229.9 158.2 229.9 158.2 229.9 158.2 229.9 158.2 229.9 158.2 229.9 158.1 229.9 158.1 229.9 158.1 229.9 158.1 229.9 158.1 229.9 158.1 229.9 158 229.9 158 229.9 158 229.9 158 229.9 158 229.9 158 229.9 158 229.9 158 229.9 157.9 229.9 157.9 229.9 157.9 229.9 157.9 229.9 157.9 229.9 157.9 229.9 157.9 229.9 157.9 229.9 157.9 229.9 157.9 229.9 157.9 229.9 157.9 229.9 157.9 229.9 157.9 229.9 157.9 229.9 157.9 229.9 157.9 229.9 157.9 229.9 157.9 229.9 157.9 229.9 157.9 229.9 157.9 229.9 157.9 229.9 157.9 229.9 157.9 229.9 157.9 229.9 157.9 229.9 157.9 229.9 157.9 229.9 157.9 229.9 158 229.9 158 229.9 158 229.9 158 229.9 158 229.9 158 229.9 158 229.9 158 229.9 158 229.9 158 229.9 158.1 229.9 158.1 229.9 158.1 229.9 158.1 229.9 158.1 229.9 158.1 229.9 158.1 229.9 158.1 229.9 158.1 229.9 158.2 229.9 158.2 229.9 158.2 229.9 158.2 229.9 158.2 229.9 158.2 229.9 158.2 229.9 158.2 229.9 158.2 229.9 158.2 229.9 158.2 229.9 158.2 229.9 158.3 229.8 158.3 229.8 158.3 229.8 158.3 229.8 158.3 229.8 158.3 229.8 158.3 229.8 158.3 229.8 158.3 229.8 158.3 229.8 158.3 229.8 158.3 229.8 158.3 229.8 158.3 229.8 158.3 229.8 158.3 229.8 158.2 229.8 158.2 229.8 158.2 229.8 158.2 229.8 158.2 229.8 158.2 229.8 158.2 229.8 158.2 229.8 158.2 229.8 158.2 229.8 158.2 229.8 158.2 229.8 158.2 229.8 158.2 229.8 158.1 229.8 158.1 229.8 158.1 229.8 158.1 229.8 158.1 229.8 158.1 229.8 158.1 229.8 158.1 229.8 158.1 229.8 158.1 229.8 158.1 229.8 158.1 229.8 158.1 229.8 158.1 229.8 158.1 229.8 158.1 229.8 158.1 229.8 158.1 229.8 158.1 229.8 158.1 229.8 158.1 229.8 158.1 229.8 158.1 229.8 158.1 229.8 158.1 229.8 158.1 229.8 158.1 229.8 158.2 229.8 158.2 229.8 158.2 229.8 158.2 229.8 158.2 229.8 158.2 229.8 158.2 229.8 158.2 229.8 158.2 229.8 158.2 229.8 158.2 229.8 158.3 229.8 158.3 229.8 158.3 229.8 158.3 229.8 158.3 229.8 158.3 229.8 158.3 229.8 158.3 229.8 158.3 229.8 158.3 229.8 158.3 229.8 158.3 229.8 158.3 229.8 158.4 229.8 158.4 229.8 158.4 229.8 158.4 229.8 158.4 229.8 158.4 229.8 158.4 229.8 158.4 229.8 158.4 229.8 158.4 229.8 158.4 229.8 158.4 229.8 158.4 229.8 158.4 229.8 158.4 229.8 158.4 229.8 158.4 229.8 158.4 229.8 158.4 229.8 158.5 229.8 158.5 229.8 158.5 229.8 158.5 229.8 158.5 229.8 158.5 229.8 158.5 229.8 158.5 229.8 158.6 229.8 158.6 229.8 158.6 229.8 158.6 229.8 158.6 229.8 158.7 229.8 158.7 229.8 158.7 229.8 158.7 229.8 158.8 229.8 158.8 229.8 158.8 229.8 158.9 229.8 158.9 229.8 158.9 229.8 159 229.8 159 229.8 159.1 229.8 159.1 229.8 159.2 229.8 159.2 229.8 159.3 229.8 159.3 229.8 159.4 229.8 159.4 229.8 159.5 229.8 159.6 229.8 159.6 229.8 159.7 229.8 159.8 229.8 159.8 229.8 159.9 229.8 160 229.8 160.1 229.8 160.2 229.8 160.3 229.8 160.4 229.8 160.5 229.8 160.6 229.8 160.7 229.8 160.8 229.8 160.9 229.8 161.1 229.8 161.2 229.8 161.3 229.8 161.5 229.8 161.6 229.8 161.8 229.8 162 229.8 162.1 229.8 162.3 229.8 162.5 229.8 162.7 229.8 163 229.8 163.2 229.8 163.4 229.8 163.7 229.8 164 229.8 164.2 229.8 164.5 229.8 164.8 229.8 165.2 229.8 165.5 229.8 165.9 229.8 166.2 229.8 166.6 229.8 167 229.8 167.4 229.8 167.9 229.8 168.3 229.8 168.8 229.8 169.3 229.8 169.8 229.8 170.3 229.8 170.8 229.8 171.4 229.8 172 229.8 172.5 229.8 173.1 229.8 173.8 229.8 174.4 229.8 175 229.8 175.7 229.8 176.3 229.8 177 229.8 177.7 229.8 178.4 229.8 179 229.8 179.7 229.8 180.4 229.8 181.1 229.8 181.8 229.8 182.5 229.8 183.2 229.8 183.8 229.8 184.5 229.8 185.1 229.8 185.8 229.8 186.4 229.8 187 229.8 187.6 229.8 188.1 229.8 188.6 229.8 189.1 229.8 189.6 229.8 190.1 229.8 190.5 229.8 190.8 229.8 191.2 229.8 191.5 229.8 191.7 229.8 191.9 229.8 192.1 229.8 192.3 229.8 192.3 229.8 192.4 229.8 192.4 229.8 192.4 229.8 192.3 229.8 192.1 229.8 192 229.8 191.8 229.8 191.5 229.8 191.2 229.8 190.9 229.8 190.5 229.8 190 229.8 189.6 229.8 189.1 229.8 188.6 229.8 188 229.8 187.4 229.8 186.8 229.8 186.1 229.8 185.5 229.8 184.8 229.8 184.1 229.8 183.3 229.8 182.6 229.8 181.8 229.8 181.1 229.8 180.3 229.8 179.5 229.8 178.7 229.8 178 229.8 177.2 229.8 176.4 229.8 175.6 229.8 174.9 229.8 174.1 229.8 173.4 229.8 172.6 229.8 171.9 229.8 171.2 229.8 170.5 229.8 169.9 229.8 169.2 229.8 168.6 229.8 168 229.8 167.4 229.8 166.8 229.8 166.2 229.8 165.7 229.8 165.2 229.8 164.7 229.8 164.3 229.8 163.8 229.8 163.4 229.8 163 229.8 162.6 229.8 162.3 229.8 161.9 229.8 161.6 229.8 161.3 229.8 161 229.8 160.8 229.8 160.5 229.8 160.3 229.8 160.1 229.8 159.9 229.8 159.7 229.8 159.5 229.8 159.4 229.8 159.2 229.8 159.1 229.8 159 229.8 158.9 229.8 158.8 229.8 158.7 229.8 158.6 229.8 158.5 229.8 158.4 229.8 158.4 229.8 158.3 229.8 158.3 229.8 158.2 229.8 158.2 229.8 158.1 229.8 158.1 229.8 158.1 229.8 158 229.8 158 229.8 158 229.8 158 229.8 158 229.8 157.9 229.8 157.9 229.8 157.9 229.8 157.9 229.8 157.9 229.8 157.9"/></g></g></g><g id="gnuplot_plot_2"><title>gnuplot_plot_2</title><g fill="none" stroke="currentColor" stroke-linecap="butt" stroke-linejoin="miter" stroke-width="1" color="#000"><g stroke="none" shape-rendering="crispEdges"><polygon fill="#1F78B4" fill-opacity=".25" points="961.4 88.7 961.8 88.7 962.2 88.7 962.7 88.7 963.1 88.6 963.5 88.6 964 88.6 964.4 88.6 964.8 88.6 965.3 88.6 965.7 88.6 966.1 88.6 966.5 88.6 967 88.6 967.4 88.6 967.8 88.6 968.3 88.5 968.7 88.5 969.1 88.5 969.6 88.5 970 88.5 970.4 88.4 970.9 88.4 971.3 88.4 971.7 88.3 972.2 88.3 972.6 88.3 973 88.2 973.5 88.2 973.9 88.1 974.3 88.1 974.7 88 975.2 87.9 975.6 87.8 976 87.8 976.5 87.7 976.9 87.6 977.3 87.5 977.8 87.3 978.2 87.2 978.6 87.1 979.1 86.9 979.5 86.8 979.9 86.6 980.4 86.5 980.8 86.3 981.2 86.1 981.7 85.9 982.1 85.6 982.5 85.4 982.9 85.2 983.4 84.9 983.8 84.6 984.2 84.3 984.7 84 985.1 83.7 985.5 83.3 986 83 986.4 82.6 986.8 82.2 987.3 81.8 987.7 81.4 988.1 81 988.6 80.5 989 80 989.4 79.5 989.8 79 990.3 78.5 990.7 78 991.1 77.5 991.6 76.9 992 76.3 992.4 75.7 992.9 75.1 993.3 74.5 993.7 73.9 994.2 73.3 994.6 72.6 995 72 995.5 71.4 995.9 70.7 996.3 70 996.8 69.4 997.2 68.7 997.6 68.1 998 67.4 998.5 66.7 998.9 66.1 999.3 65.4 999.8 64.8 1000.2 64.2 1000.6 63.5 1001.1 62.9 1001.5 62.3 1001.9 61.7 1002.4 61.2 1002.8 60.6 1003.2 60.1 1003.7 59.5 1004.1 59 1004.5 58.5 1004.9 58.1 1005.4 57.6 1005.8 57.2 1006.2 56.8 1006.7 56.5 1007.1 56.1 1007.5 55.8 1008 55.5 1008.4 55.2 1008.8 55 1009.3 54.8 1009.7 54.6 1010.1 54.5 1010.6 54.3 1011 54.2 1011.4 54.2 1011.9 54.1 1012.3 54.1 1012.7 54.1 1013.1 54.2 1013.6 54.2 1014 54.3 1014.4 54.4 1014.9 54.6 1015.3 54.7 1015.7 54.9 1016.2 55.1 1016.6 55.4 1017 55.6 1017.5 55.9 1017.9 56.2 1018.3 56.5 1018.8 56.9 1019.2 57.2 1019.6 57.6 1020 58 1020.5 58.4 1020.9 58.8 1021.3 59.3 1021.8 59.7 1022.2 60.2 1022.6 60.6 1023.1 61.1 1023.5 61.6 1023.9 62.1 1024.4 62.5 1024.8 63 1025.2 63.5 1025.7 64 1026.1 64.5 1026.5 65.1 1027 65.6 1027.4 66.1 1027.8 66.6 1028.2 67.1 1028.7 67.6 1029.1 68.1 1029.5 68.5 1030 69 1030.4 69.5 1030.8 70 1031.3 70.4 1031.7 70.9 1032.1 71.3 1032.6 71.8 1033 72.2 1033.4 72.6 1033.9 73.1 1034.3 73.5 1034.7 73.9 1035.2 74.2 1035.6 74.6 1036 75 1036.4 75.3 1036.9 75.7 1037.3 76 1037.7 76.4 1038.2 76.7 1038.6 77 1039 77.3 1039.5 77.6 1039.9 77.9 1040.3 78.1 1040.8 78.4 1041.2 78.7 1041.6 78.9 1042.1 79.1 1042.5 79.4 1042.9 79.6 1043.3 79.8 1043.8 80 1044.2 80.3 1044.6 80.5 1045.1 80.7 1045.5 80.9 1045.9 81 1046.4 81.2 1046.8 81.4 1047.2 81.6 1047.7 81.7 1048.1 81.9 1048.5 82.1 1049 82.2 1049.4 82.4 1049.8 82.5 1050.3 82.7 1050.7 82.8 1051.1 83 1051.5 83.1 1052 83.3 1052.4 83.4 1052.8 83.5 1053.3 83.7 1053.7 83.8 1054.1 83.9 1054.6 84 1055 84.1 1055.4 84.3 1055.9 84.4 1056.3 84.5 1056.7 84.6 1057.2 84.7 1057.6 84.8 1058 84.9 1058.4 85 1058.9 85.1 1059.3 85.2 1059.7 85.3 1060.2 85.4 1060.6 85.4 1061 85.5 1061.5 85.6 1061.9 85.7 1062.3 85.7 1062.8 85.8 1063.2 85.9 1063.6 85.9 1064.1 86 1064.5 86.1 1064.9 86.1 1065.4 86.2 1065.8 86.2 1066.2 86.3 1066.6 86.3 1067.1 86.4 1067.5 86.4 1067.9 86.5 1068.4 86.5 1068.8 86.5 1069.2 86.6 1069.7 86.6 1070.1 86.6 1070.5 86.7 1071 86.7 1071.4 86.7 1071.8 86.8 1072.3 86.8 1072.7 86.8 1073.1 86.9 1073.5 86.9 1074 86.9 1074.4 86.9 1074.8 87 1075.3 87 1075.7 87 1076.1 87 1076.6 87 1077 87.1 1077.4 87.1 1077.9 87.1 1078.3 87.1 1078.7 87.2 1079.2 87.2 1079.6 87.2 1080 87.2 1080.5 87.2 1080.9 87.3 1081.3 87.3 1081.7 87.3 1082.2 87.3 1082.6 87.3 1083 87.4 1083.5 87.4 1083.9 87.4 1084.3 87.4 1084.8 87.4 1085.2 87.4 1085.6 87.5 1086.1 87.5 1086.5 87.5 1086.9 87.5 1087.4 87.5 1087.8 87.6 1088.2 87.6 1088.7 87.6 1089.1 87.6 1089.5 87.6 1089.9 87.7 1090.4 87.7 1090.8 87.7 1091.2 87.7 1091.7 87.7 1092.1 87.7 1092.5 87.8 1093 87.8 1093.4 87.8 1093.8 87.8 1094.3 87.8 1094.7 87.9 1095.1 87.9 1095.6 87.9 1096 87.9 1096.4 87.9 1096.8 87.9 1097.3 88 1097.7 88 1098.1 88 1098.6 88 1099 88 1099.4 88 1099.9 88.1 1100.3 88.1 1100.7 88.1 1101.2 88.1 1101.6 88.1 1102 88.1 1102.5 88.1 1102.9 88.1 1103.3 88.1 1103.8 88.1 1104.2 88.2 1104.6 88.2 1105 88.2 1105.5 88.2 1105.9 88.2 1106.3 88.2 1106.8 88.2 1107.2 88.2 1107.6 88.2 1108.1 88.2 1108.5 88.2 1108.9 88.2 1109.4 88.2 1109.8 88.2 1110.2 88.2 1110.7 88.1 1111.1 88.1 1111.5 88.1 1111.9 88.1 1112.4 88.1 1112.8 88.1 1113.2 88.1 1113.7 88.1 1114.1 88.1 1114.5 88.1 1115 88.1 1115.4 88.1 1115.8 88.1 1116.3 88.1 1116.7 88.1 1117.1 88.1 1117.6 88.1 1118 88.1 1118.4 88.1 1118.9 88.1 1119.3 88.1 1119.7 88.1 1120.1 88.1 1120.6 88.1 1121 88.1 1121.4 88.1 1121.9 88.1 1122.3 88.1 1122.7 88.1 1123.2 88.1 1123.6 88.1 1124 88.1 1124.5 88.1 1124.9 88.1 1125.3 88.1 1125.8 88.1 1126.2 88.1 1126.6 88.1 1127 88.1 1127.5 88.1 1127.9 88.1 1128.3 88.2 1128.8 88.2 1129.2 88.2 1129.6 88.2 1130.1 88.2 1130.5 88.2 1130.9 88.2 1131.4 88.2 1131.8 88.2 1132.2 88.2 1132.7 88.2 1133.1 88.2 1133.5 88.2 1134 88.2 1134.4 88.2 1134.8 88.2 1135.2 88.2 1135.7 88.2 1136.1 88.2 1136.5 88.2 1137 88.2 1137.4 88.1 1137.8 88.1 1138.3 88.1 1138.7 88.1 1139.1 88.1 1139.6 88.1 1140 88.1 1140.4 88.1 1140.9 88.1 1141.3 88.1 1141.7 88.1 1142.2 88.1 1142.6 88.1 1143 88.1 1143.4 88.1 1143.9 88.1 1144.3 88.1 1144.7 88.1 1145.2 88.1 1145.6 88.1 1146 88.1 1146.5 88.1 1146.9 88.1 1147.3 88.1 1147.8 88.1 1148.2 88.1 1148.6 88.1 1149.1 88.1 1149.5 88.1 1149.9 88.1 1150.3 88.1 1150.8 88.1 1151.2 88.2 1151.6 88.2 1152.1 88.2 1152.5 88.2 1152.9 88.2 1153.4 88.2 1153.8 88.2 1154.2 88.2 1154.7 88.3 1155.1 88.3 1155.5 88.3 1156 88.3 1156.4 88.3 1156.8 88.3 1157.3 88.4 1157.7 88.4 1158.1 88.4 1158.5 88.4 1159 88.4 1159.4 88.4 1159.8 88.4 1160.3 88.5 1160.7 88.5 1161.1 88.5 1161.6 88.5 1162 88.5 1162.4 88.5 1162.9 88.5 1163.3 88.5 1163.7 88.5 1164.2 88.6 1164.6 88.6 1165 88.6 1165.4 88.6 1165.9 88.6 1166.3 88.6 1166.7 88.6 1167.2 88.6 1167.6 88.6 1168 88.6 1168.5 88.6 1168.9 88.6 1169.3 88.6 1169.8 88.6 1170.2 88.6 1170.6 88.6 1171.1 88.6 1171.5 88.6 1171.9 88.7 1172.4 88.7 1172.8 88.7 1173.2 88.7 1173.6 88.7 1174.1 88.7 1174.5 88.7 1174.9 88.7 1175.4 88.7 1175.8 88.7 1176.2 88.7 1176.7 88.7 1176.7 88.7 1176.2 88.7 1175.8 88.7 1175.4 88.7 1174.9 88.7 1174.5 88.7 1174.1 88.7 1173.6 88.7 1173.2 88.7 1172.8 88.7 1172.4 88.7 1171.9 88.7 1171.5 88.7 1171.1 88.7 1170.6 88.7 1170.2 88.7 1169.8 88.7 1169.3 88.7 1168.9 88.7 1168.5 88.7 1168 88.7 1167.6 88.7 1167.2 88.7 1166.7 88.8 1166.3 88.8 1165.9 88.8 1165.4 88.8 1165 88.8 1164.6 88.8 1164.2 88.8 1163.7 88.8 1163.3 88.8 1162.9 88.8 1162.4 88.8 1162 88.8 1161.6 88.9 1161.1 88.9 1160.7 88.9 1160.3 88.9 1159.8 88.9 1159.4 88.9 1159 88.9 1158.5 89 1158.1 89 1157.7 89 1157.3 89 1156.8 89 1156.4 89 1156 89 1155.5 89.1 1155.1 89.1 1154.7 89.1 1154.2 89.1 1153.8 89.1 1153.4 89.1 1152.9 89.1 1152.5 89.2 1152.1 89.2 1151.6 89.2 1151.2 89.2 1150.8 89.2 1150.3 89.2 1149.9 89.2 1149.5 89.2 1149.1 89.2 1148.6 89.3 1148.2 89.3 1147.8 89.3 1147.3 89.3 1146.9 89.3 1146.5 89.3 1146 89.3 1145.6 89.3 1145.2 89.3 1144.7 89.3 1144.3 89.3 1143.9 89.3 1143.4 89.3 1143 89.3 1142.6 89.3 1142.2 89.3 1141.7 89.3 1141.3 89.3 1140.9 89.2 1140.4 89.2 1140 89.2 1139.6 89.2 1139.1 89.2 1138.7 89.2 1138.3 89.2 1137.8 89.2 1137.4 89.2 1137 89.2 1136.5 89.2 1136.1 89.2 1135.7 89.2 1135.2 89.2 1134.8 89.2 1134.4 89.2 1134 89.2 1133.5 89.2 1133.1 89.2 1132.7 89.2 1132.2 89.2 1131.8 89.2 1131.4 89.2 1130.9 89.2 1130.5 89.2 1130.1 89.2 1129.6 89.2 1129.2 89.2 1128.8 89.2 1128.3 89.2 1127.9 89.2 1127.5 89.2 1127 89.2 1126.6 89.2 1126.2 89.2 1125.8 89.2 1125.3 89.2 1124.9 89.2 1124.5 89.3 1124 89.3 1123.6 89.3 1123.2 89.3 1122.7 89.3 1122.3 89.3 1121.9 89.3 1121.4 89.3 1121 89.3 1120.6 89.3 1120.1 89.3 1119.7 89.3 1119.3 89.3 1118.9 89.3 1118.4 89.3 1118 89.3 1117.6 89.3 1117.1 89.3 1116.7 89.3 1116.3 89.3 1115.8 89.3 1115.4 89.3 1115 89.3 1114.5 89.3 1114.1 89.3 1113.7 89.2 1113.2 89.2 1112.8 89.2 1112.4 89.2 1111.9 89.2 1111.5 89.2 1111.1 89.2 1110.7 89.2 1110.2 89.2 1109.8 89.2 1109.4 89.2 1108.9 89.2 1108.5 89.2 1108.1 89.2 1107.6 89.2 1107.2 89.2 1106.8 89.2 1106.3 89.2 1105.9 89.2 1105.5 89.2 1105 89.2 1104.6 89.2 1104.2 89.2 1103.8 89.2 1103.3 89.2 1102.9 89.2 1102.5 89.2 1102 89.2 1101.6 89.2 1101.2 89.3 1100.7 89.3 1100.3 89.3 1099.9 89.3 1099.4 89.3 1099 89.3 1098.6 89.3 1098.1 89.4 1097.7 89.4 1097.3 89.4 1096.8 89.4 1096.4 89.4 1096 89.4 1095.6 89.5 1095.1 89.5 1094.7 89.5 1094.3 89.5 1093.8 89.5 1093.4 89.5 1093 89.6 1092.5 89.6 1092.1 89.6 1091.7 89.6 1091.2 89.6 1090.8 89.7 1090.4 89.7 1089.9 89.7 1089.5 89.7 1089.1 89.7 1088.7 89.8 1088.2 89.8 1087.8 89.8 1087.4 89.8 1086.9 89.8 1086.5 89.8 1086.1 89.9 1085.6 89.9 1085.2 89.9 1084.8 89.9 1084.3 89.9 1083.9 90 1083.5 90 1083 90 1082.6 90 1082.2 90 1081.7 90.1 1081.3 90.1 1080.9 90.1 1080.5 90.1 1080 90.1 1079.6 90.2 1079.2 90.2 1078.7 90.2 1078.3 90.2 1077.9 90.2 1077.4 90.3 1077 90.3 1076.6 90.3 1076.1 90.3 1075.7 90.3 1075.3 90.4 1074.8 90.4 1074.4 90.4 1074 90.4 1073.5 90.5 1073.1 90.5 1072.7 90.5 1072.3 90.6 1071.8 90.6 1071.4 90.6 1071 90.6 1070.5 90.7 1070.1 90.7 1069.7 90.7 1069.2 90.8 1068.8 90.8 1068.4 90.9 1067.9 90.9 1067.5 90.9 1067.1 91 1066.6 91 1066.2 91.1 1065.8 91.1 1065.4 91.2 1064.9 91.2 1064.5 91.3 1064.1 91.3 1063.6 91.4 1063.2 91.5 1062.8 91.5 1062.3 91.6 1061.9 91.7 1061.5 91.8 1061 91.8 1060.6 91.9 1060.2 92 1059.7 92.1 1059.3 92.2 1058.9 92.3 1058.4 92.4 1058 92.5 1057.6 92.6 1057.2 92.7 1056.7 92.8 1056.3 92.9 1055.9 93 1055.4 93.1 1055 93.2 1054.6 93.3 1054.1 93.4 1053.7 93.6 1053.3 93.7 1052.8 93.8 1052.4 94 1052 94.1 1051.5 94.2 1051.1 94.4 1050.7 94.5 1050.3 94.7 1049.8 94.8 1049.4 95 1049 95.1 1048.5 95.3 1048.1 95.4 1047.7 95.6 1047.2 95.8 1046.8 95.9 1046.4 96.1 1045.9 96.3 1045.5 96.5 1045.1 96.7 1044.6 96.9 1044.2 97.1 1043.8 97.3 1043.3 97.5 1042.9 97.7 1042.5 98 1042.1 98.2 1041.6 98.4 1041.2 98.7 1040.8 99 1040.3 99.2 1039.9 99.5 1039.5 99.8 1039 100.1 1038.6 100.4 1038.2 100.7 1037.7 101 1037.3 101.3 1036.9 101.7 1036.4 102 1036 102.4 1035.6 102.7 1035.2 103.1 1034.7 103.5 1034.3 103.9 1033.9 104.3 1033.4 104.7 1033 105.1 1032.6 105.6 1032.1 106 1031.7 106.5 1031.3 106.9 1030.8 107.4 1030.4 107.8 1030 108.3 1029.5 108.8 1029.1 109.3 1028.7 109.8 1028.2 110.3 1027.8 110.8 1027.4 111.3 1027 111.8 1026.5 112.3 1026.1 112.8 1025.7 113.3 1025.2 113.8 1024.8 114.3 1024.4 114.8 1023.9 115.3 1023.5 115.8 1023.1 116.3 1022.6 116.7 1022.2 117.2 1021.8 117.6 1021.3 118.1 1020.9 118.5 1020.5 118.9 1020 119.3 1019.6 119.7 1019.2 120.1 1018.8 120.5 1018.3 120.8 1017.9 121.1 1017.5 121.4 1017 121.7 1016.6 122 1016.2 122.2 1015.7 122.4 1015.3 122.6 1014.9 122.8 1014.4 122.9 1014 123 1013.6 123.1 1013.1 123.2 1012.7 123.2 1012.3 123.2 1011.9 123.2 1011.4 123.2 1011 123.1 1010.6 123 1010.1 122.9 1009.7 122.7 1009.3 122.6 1008.8 122.3 1008.4 122.1 1008 121.8 1007.5 121.5 1007.1 121.2 1006.7 120.9 1006.2 120.5 1005.8 120.1 1005.4 119.7 1004.9 119.3 1004.5 118.8 1004.1 118.3 1003.7 117.8 1003.2 117.3 1002.8 116.7 1002.4 116.2 1001.9 115.6 1001.5 115 1001.1 114.4 1000.6 113.8 1000.2 113.2 999.8 112.6 999.3 111.9 998.9 111.3 998.5 110.6 998 109.9 997.6 109.3 997.2 108.6 996.8 108 996.3 107.3 995.9 106.6 995.5 106 995 105.3 994.6 104.7 994.2 104.1 993.7 103.4 993.3 102.8 992.9 102.2 992.4 101.6 992 101 991.6 100.5 991.1 99.9 990.7 99.4 990.3 98.8 989.8 98.3 989.4 97.8 989 97.3 988.6 96.8 988.1 96.4 987.7 96 987.3 95.5 986.8 95.1 986.4 94.7 986 94.4 985.5 94 985.1 93.7 984.7 93.3 984.2 93 983.8 92.7 983.4 92.5 982.9 92.2 982.5 91.9 982.1 91.7 981.7 91.5 981.2 91.3 980.8 91.1 980.4 90.9 979.9 90.7 979.5 90.6 979.1 90.4 978.6 90.3 978.2 90.1 977.8 90 977.3 89.9 976.9 89.8 976.5 89.7 976 89.6 975.6 89.5 975.2 89.4 974.7 89.4 974.3 89.3 973.9 89.2 973.5 89.2 973 89.1 972.6 89.1 972.2 89 971.7 89 971.3 89 970.9 88.9 970.4 88.9 970 88.9 969.6 88.9 969.1 88.8 968.7 88.8 968.3 88.8 967.8 88.8 967.4 88.8 967 88.8 966.5 88.8 966.1 88.7 965.7 88.7 965.3 88.7 964.8 88.7 964.4 88.7 964 88.7 963.5 88.7 963.1 88.7 962.7 88.7 962.2 88.7 961.8 88.7 961.4 88.7"/></g></g></g><g fill="none" stroke="currentColor" stroke-linecap="butt" stroke-linejoin="miter" stroke-width="1" color="#000"><path stroke="#000" d="M229.6,54.1 L229.6,192.4 L1255.0,192.4 L1255.0,54.1 L229.6,54.1 Z"/></g></g></svg>