<svg xmlns="http://www.w3.org/2000/svg" xmlns:xlink="http://www.w3.org/1999/xlink" viewBox="0 0 450 300"><title>Gnuplot</title><desc>Produced by GNUPLOT 5.2 patchlevel 2</desc><g id="gnuplot_canvas"><rect width="450" height="300" x="0" y="0" fill="none"/><defs><circle id="gpDot" r=".5" stroke-width=".5"/><path id="gpPt0" stroke="currentColor" stroke-width=".222" d="M-1,0 h2 M0,-1 v2"/><path id="gpPt1" stroke="currentColor" stroke-width=".222" d="M-1,-1 L1,1 M1,-1 L-1,1"/><path id="gpPt2" stroke="currentColor" stroke-width=".222" d="M-1,0 L1,0 M0,-1 L0,1 M-1,-1 L1,1 M-1,1 L1,-1"/><rect id="gpPt3" width="2" height="2" x="-1" y="-1" stroke="currentColor" stroke-width=".222"/><rect id="gpPt4" width="2" height="2" x="-1" y="-1" fill="currentColor" stroke="currentColor" stroke-width=".222"/><circle id="gpPt5" cx="0" cy="0" r="1" stroke="currentColor" stroke-width=".222"/><use id="gpPt6" fill="currentColor" stroke="none" xlink:href="#gpPt5"/><path id="gpPt7" stroke="currentColor" stroke-width=".222" d="M0,-1.33 L-1.33,0.67 L1.33,0.67 z"/><use id="gpPt8" fill="currentColor" stroke="none" xlink:href="#gpPt7"/><use id="gpPt9" stroke="currentColor" transform="rotate(180)" xlink:href="#gpPt7"/><use id="gpPt10" fill="currentColor" stroke="none" xlink:href="#gpPt9"/><use id="gpPt11" stroke="currentColor" transform="rotate(45)" xlink:href="#gpPt3"/><use id="gpPt12" fill="currentColor" stroke="none" xlink:href="#gpPt11"/><path id="gpPt13" stroke="currentColor" stroke-width=".222" d="M0,1.330 L1.265,0.411 L0.782,-1.067 L-0.782,-1.076 L-1.265,0.411 z"/><use id="gpPt14" fill="currentColor" stroke="none" xlink:href="#gpPt13"/><filter id="textbox" width="1" height="1" x="0" y="0" filterUnits="objectBoundingBox"><feFlood flood-color="#fff" flood-opacity="1" result="bgnd"/><feComposite in="SourceGraphic" in2="bgnd" operator="atop"/></filter><filter id="greybox" width="1" height="1" x="0" y="0" filterUnits="objectBoundingBox"><feFlood flood-color="#d3d3d3" flood-opacity="1" result="grey"/><feComposite in="SourceGraphic" in2="grey" operator="atop"/></filter></defs><g fill="none" stroke="currentColor" stroke-linecap="butt" stroke-linejoin="miter" stroke-width="1" color="#000"><path stroke="#000" d="M71.9,242.4 L80.9,242.4"/><g fill="#000" stroke="none" font-family="Helvetica" font-size="12" text-anchor="end"><text transform="translate(63.6,246.3)"><tspan font-family="Helvetica">0</tspan></text></g></g><g fill="none" stroke="currentColor" stroke-linecap="butt" stroke-linejoin="miter" stroke-width="1" color="#000"><path stroke="#000" d="M71.9,192.0 L80.9,192.0"/><g fill="#000" stroke="none" font-family="Helvetica" font-size="12" text-anchor="end"><text transform="translate(63.6,195.9)"><tspan font-family="Helvetica">0.5</tspan></text></g></g><g fill="none" stroke="currentColor" stroke-linecap="butt" stroke-linejoin="miter" stroke-width="1" color="#000"><path stroke="#000" d="M71.9,141.5 L80.9,141.5"/><g fill="#000" stroke="none" font-family="Helvetica" font-size="12" text-anchor="end"><text transform="translate(63.6,145.4)"><tspan font-family="Helvetica">1</tspan></text></g></g><g fill="none" stroke="currentColor" stroke-linecap="butt" stroke-linejoin="miter" stroke-width="1" color="#000"><path stroke="#000" d="M71.9,91.1 L80.9,91.1"/><g fill="#000" stroke="none" font-family="Helvetica" font-size="12" text-anchor="end"><text transform="translate(63.6,95.0)"><tspan font-family="Helvetica">1.5</tspan></text></g></g><g fill="none" stroke="currentColor" stroke-linecap="butt" stroke-linejoin="miter" stroke-width="1" color="#000"><path stroke="#000" d="M71.9,40.7 L80.9,40.7"/><g fill="#000" stroke="none" font-family="Helvetica" font-size="12" text-anchor="end"><text transform="translate(63.6,44.6)"><tspan font-family="Helvetica">2</tspan></text></g></g><g fill="none" stroke="currentColor" stroke-linecap="butt" stroke-linejoin="miter" stroke-width="1" color="#000"><path stroke="#000" d="M122.0,242.4 L122.0,233.4"/><g fill="#000" stroke="none" font-family="Helvetica" font-size="12" text-anchor="middle"><text transform="translate(122.0,264.3)"><tspan font-family="Helvetica">4.5</tspan></text></g></g><g fill="none" stroke="currentColor" stroke-linecap="butt" stroke-linejoin="miter" stroke-width="1" color="#000"><path stroke="#000" d="M176.7,242.4 L176.7,233.4"/><g fill="#000" stroke="none" font-family="Helvetica" font-size="12" text-anchor="middle"><text transform="translate(176.7,264.3)"><tspan font-family="Helvetica">5</tspan></text></g></g><g fill="none" stroke="currentColor" stroke-linecap="butt" stroke-linejoin="miter" stroke-width="1" color="#000"><path stroke="#000" d="M231.3,242.4 L231.3,233.4"/><g fill="#000" stroke="none" font-family="Helvetica" font-size="12" text-anchor="middle"><text transform="translate(231.3,264.3)"><tspan font-family="Helvetica">5.5</tspan></text></g></g><g fill="none" stroke="currentColor" stroke-linecap="butt" stroke-linejoin="miter" stroke-width="1" color="#000"><path stroke="#000" d="M285.9,242.4 L285.9,233.4"/><g fill="#000" stroke="none" font-family="Helvetica" font-size="12" text-anchor="middle"><text transform="translate(285.9,264.3)"><tspan font-family="Helvetica">6</tspan></text></g></g><g fill="none" stroke="currentColor" stroke-linecap="butt" stroke-linejoin="miter" stroke-width="1" color="#000"><path stroke="#000" d="M340.6,242.4 L340.6,233.4"/><g fill="#000" stroke="none" font-family="Helvetica" font-size="12" text-anchor="middle"><text transform="translate(340.6,264.3)"><tspan font-family="Helvetica">6.5</tspan></text></g></g><g fill="none" stroke="currentColor" stroke-linecap="butt" stroke-linejoin="miter" stroke-width="1" color="#000"><path stroke="#000" d="M395.2,242.4 L395.2,233.4"/><g fill="#000" stroke="none" font-family="Helvetica" font-size="12" text-anchor="middle"><text transform="translate(395.2,264.3)"><tspan font-family="Helvetica">7</tspan></text></g></g><g fill="none" stroke="currentColor" stroke-linecap="butt" stroke-linejoin="miter" stroke-width="1" color="#000"><path stroke="#000" d="M71.9,18.1 L71.9,242.4 L425.0,242.4 L425.0,18.1 L71.9,18.1 Z"/></g><g fill="none" stroke="currentColor" stroke-linecap="butt" stroke-linejoin="miter" stroke-width="1" color="#000"><g fill="#000" stroke="none" font-family="Helvetica" font-size="12" text-anchor="middle"><text transform="translate(16.3,130.3) rotate(270)"><tspan font-family="Helvetica">Density (a.u.)</tspan></text></g></g><g fill="none" stroke="currentColor" stroke-linecap="butt" stroke-linejoin="miter" stroke-width="1" color="#000"><g fill="#000" stroke="none" font-family="Helvetica" font-size="12" text-anchor="middle"><text transform="translate(248.4,291.3)"><tspan font-family="Helvetica">Average time (ns)</tspan></text></g></g><g id="gnuplot_plot_1"><title>PDF</title><g fill="none" stroke="currentColor" stroke-linecap="butt" stroke-linejoin="miter" stroke-width="1" color="#000"><g stroke="none" shape-rendering="crispEdges"><polygon fill="#1F78B4" fill-opacity=".25" points="71.9 242 72.6 242 73.3 241.9 74 241.8 74.7 241.8 75.4 241.7 76.1 241.6 76.9 241.5 77.6 241.3 78.3 241.2 79 241 79.7 240.8 80.4 240.6 81.1 240.4 81.8 240.1 82.5 239.9 83.2 239.6 83.9 239.2 84.6 238.8 85.3 238.4 86.1 237.9 86.8 237.4 87.5 236.9 88.2 236.2 88.9 235.6 89.6 234.8 90.3 234 91 233.2 91.7 232.2 92.4 231.2 93.1 230.1 93.8 228.9 94.5 227.6 95.3 226.3 96 224.8 96.7 223.2 97.4 221.5 98.1 219.7 98.8 217.7 99.5 215.7 100.2 213.5 100.9 211.2 101.6 208.8 102.3 206.2 103 203.5 103.7 200.6 104.5 197.6 105.2 194.5 105.9 191.2 106.6 187.8 107.3 184.2 108 180.5 108.7 176.7 109.4 172.7 110.1 168.6 110.8 164.4 111.5 160 112.2 155.6 112.9 151 113.6 146.3 114.4 141.6 115.1 136.7 115.8 131.8 116.5 126.9 117.2 121.9 117.9 116.8 118.6 111.8 119.3 106.7 120 101.6 120.7 96.6 121.4 91.6 122.1 86.6 122.8 81.7 123.6 76.9 124.3 72.2 125 67.5 125.7 63.1 126.4 58.7 127.1 54.5 127.8 50.5 128.5 46.6 129.2 43 129.9 39.6 130.6 36.4 131.3 33.4 132 30.6 132.8 28.1 133.5 25.9 134.2 24 134.9 22.3 135.6 20.9 136.3 19.7 137 18.9 137.7 18.4 138.4 18.1 139.1 18.1 139.8 18.4 140.5 19 141.2 19.9 142 21.1 142.7 22.5 143.4 24.2 144.1 26.1 144.8 28.3 145.5 30.7 146.2 33.3 146.9 36.2 147.6 39.2 148.3 42.5 149 45.9 149.7 49.5 150.4 53.2 151.2 57.1 151.9 61.1 152.6 65.2 153.3 69.4 154 73.7 154.7 78 155.4 82.4 156.1 86.8 156.8 91.3 157.5 95.8 158.2 100.3 158.9 104.8 159.6 109.2 160.4 113.6 161.1 118 161.8 122.4 162.5 126.7 163.2 130.9 163.9 135 164.6 139.1 165.3 143.1 166 146.9 166.7 150.7 167.4 154.4 168.1 158 168.8 161.5 169.6 164.9 170.3 168.1 171 171.3 171.7 174.3 172.4 177.3 173.1 180.1 173.8 182.8 174.5 185.4 175.2 187.9 175.9 190.3 176.6 192.6 177.3 194.8 178 196.9 178.7 198.9 179.5 200.8 180.2 202.6 180.9 204.3 181.6 206 182.3 207.6 183 209.1 183.7 210.5 184.4 211.8 185.1 213.1 185.8 214.4 186.5 215.5 187.2 216.6 187.9 217.7 188.7 218.7 189.4 219.7 190.1 220.6 190.8 221.4 191.5 222.3 192.2 223.1 192.9 223.8 193.6 224.6 194.3 225.3 195 225.9 195.7 226.5 196.4 227.2 197.1 227.7 197.9 228.3 198.6 228.8 199.3 229.3 200 229.8 200.7 230.3 201.4 230.8 202.1 231.2 202.8 231.6 203.5 232 204.2 232.4 204.9 232.8 205.6 233.1 206.3 233.5 207.1 233.8 207.8 234.1 208.5 234.4 209.2 234.7 209.9 234.9 210.6 235.2 211.3 235.4 212 235.7 212.7 235.9 213.4 236.1 214.1 236.3 214.8 236.5 215.5 236.7 216.3 236.8 217 237 217.7 237.1 218.4 237.3 219.1 237.4 219.8 237.5 220.5 237.6 221.2 237.7 221.9 237.8 222.6 237.9 223.3 238 224 238.1 224.7 238.2 225.5 238.2 226.2 238.3 226.9 238.3 227.6 238.4 228.3 238.4 229 238.5 229.7 238.5 230.4 238.6 231.1 238.6 231.8 238.6 232.5 238.7 233.2 238.7 233.9 238.7 234.7 238.8 235.4 238.8 236.1 238.8 236.8 238.9 237.5 238.9 238.2 238.9 238.9 239 239.6 239 240.3 239 241 239.1 241.7 239.1 242.4 239.1 243.1 239.2 243.9 239.2 244.6 239.3 245.3 239.3 246 239.4 246.7 239.4 247.4 239.5 248.1 239.6 248.8 239.6 249.5 239.7 250.2 239.7 250.9 239.8 251.6 239.9 252.3 239.9 253 240 253.8 240 254.5 240.1 255.2 240.2 255.9 240.2 256.6 240.3 257.3 240.3 258 240.4 258.7 240.4 259.4 240.5 260.1 240.5 260.8 240.5 261.5 240.6 262.2 240.6 263 240.6 263.7 240.6 264.4 240.6 265.1 240.7 265.8 240.7 266.5 240.7 267.2 240.7 267.9 240.7 268.6 240.6 269.3 240.6 270 240.6 270.7 240.6 271.4 240.6 272.2 240.5 272.9 240.5 273.6 240.5 274.3 240.4 275 240.4 275.7 240.3 276.4 240.3 277.1 240.2 277.8 240.2 278.5 240.1 279.2 240.1 279.9 240 280.6 240 281.4 239.9 282.1 239.9 282.8 239.8 283.5 239.8 284.2 239.7 284.9 239.7 285.6 239.7 286.3 239.6 287 239.6 287.7 239.6 288.4 239.5 289.1 239.5 289.8 239.5 290.6 239.5 291.3 239.5 292 239.5 292.7 239.5 293.4 239.5 294.1 239.5 294.8 239.5 295.5 239.6 296.2 239.6 296.9 239.6 297.6 239.6 298.3 239.7 299 239.7 299.8 239.8 300.5 239.8 301.2 239.9 301.9 239.9 302.6 240 303.3 240.1 304 240.1 304.7 240.2 305.4 240.3 306.1 240.3 306.8 240.4 307.5 240.5 308.2 240.6 309 240.6 309.7 240.7 310.4 240.8 311.1 240.9 311.8 240.9 312.5 241 313.2 241.1 313.9 241.1 314.6 241.2 315.3 241.3 316 241.3 316.7 241.4 317.4 241.4 318.2 241.5 318.9 241.6 319.6 241.6 320.3 241.6 321 241.7 321.7 241.7 322.4 241.8 323.1 241.8 323.8 241.8 324.5 241.9 325.2 241.9 325.9 241.9 326.6 241.9 327.3 242 328.1 242 328.8 242 329.5 242 330.2 242 330.9 242 331.6 242 332.3 242 333 242 333.7 242 334.4 241.9 335.1 241.9 335.8 241.9 336.5 241.9 337.3 241.8 338 241.8 338.7 241.7 339.4 241.7 340.1 241.6 340.8 241.6 341.5 241.5 342.2 241.4 342.9 241.4 343.6 241.3 344.3 241.2 345 241.1 345.7 241 346.5 240.9 347.2 240.8 347.9 240.7 348.6 240.6 349.3 240.5 350 240.4 350.7 240.2 351.4 240.1 352.1 240 352.8 239.9 353.5 239.7 354.2 239.6 354.9 239.4 355.7 239.3 356.4 239.1 357.1 239 357.8 238.8 358.5 238.7 359.2 238.5 359.9 238.4 360.6 238.3 361.3 238.1 362 238 362.7 237.8 363.4 237.7 364.1 237.6 364.9 237.5 365.6 237.4 366.3 237.3 367 237.2 367.7 237.1 368.4 237 369.1 236.9 369.8 236.8 370.5 236.8 371.2 236.7 371.9 236.7 372.6 236.7 373.3 236.6 374.1 236.6 374.8 236.6 375.5 236.6 376.2 236.7 376.9 236.7 377.6 236.7 378.3 236.8 379 236.9 379.7 236.9 380.4 237 381.1 237.1 381.8 237.2 382.5 237.3 383.3 237.4 384 237.5 384.7 237.6 385.4 237.8 386.1 237.9 386.8 238 387.5 238.2 388.2 238.3 388.9 238.5 389.6 238.6 390.3 238.8 391 238.9 391.7 239 392.4 239.2 393.2 239.3 393.9 239.5 394.6 239.6 395.3 239.8 396 239.9 396.7 240 397.4 240.2 398.1 240.3 398.8 240.4 399.5 240.5 400.2 240.7 400.9 240.8 401.6 240.9 402.4 241 403.1 241.1 403.8 241.2 404.5 241.3 405.2 241.3 405.9 241.4 406.6 241.5 407.3 241.6 408 241.6 408.7 241.7 409.4 241.8 410.1 241.8 410.8 241.9 411.6 241.9 412.3 242 413 242 413.7 242 414.4 242.1 415.1 242.1 415.8 242.1 416.5 242.2 417.2 242.2 417.9 242.2 418.6 242.2 419.3 242.2 420 242.3 420.8 242.3 421.5 242.3 422.2 242.3 422.9 242.3 423.6 242.3 424.3 242.3 425 242.3 425 242.4 424.3 242.4 423.6 242.4 422.9 242.4 422.2 242.4 421.5 242.4 420.8 242.4 420 242.4 419.3 242.4 418.6 242.4 417.9 242.4 417.2 242.4 416.5 242.4 415.8 242.4 415.1 242.4 414.4 242.4 413.7 242.4 413 242.4 412.3 242.4 411.6 242.4 410.8 242.4 410.1 242.4 409.4 242.4 408.7 242.4 408 242.4 407.3 242.4 406.6 242.4 405.9 242.4 405.2 242.4 404.5 242.4 403.8 242.4 403.1 242.4 402.4 242.4 401.6 242.4 400.9 242.4 400.2 242.4 399.5 242.4 398.8 242.4 398.1 242.4 397.4 242.4 396.7 242.4 396 242.4 395.3 242.4 394.6 242.4 393.9 242.4 393.2 242.4 392.4 242.4 391.7 242.4 391 242.4 390.3 242.4 389.6 242.4 388.9 242.4 388.2 242.4 387.5 242.4 386.8 242.4 386.1 242.4 385.4 242.4 384.7 242.4 384 242.4 383.3 242.4 382.5 242.4 381.8 242.4 381.1 242.4 380.4 242.4 379.7 242.4 379 242.4 378.3 242.4 377.6 242.4 376.9 242.4 376.2 242.4 375.5 242.4 374.8 242.4 374.1 242.4 373.3 242.4 372.6 242.4 371.9 242.4 371.2 242.4 370.5 242.4 369.8 242.4 369.1 242.4 368.4 242.4 367.7 242.4 367 242.4 366.3 242.4 365.6 242.4 364.9 242.4 364.1 242.4 363.4 242.4 362.7 242.4 362 242.4 361.3 242.4 360.6 242.4 359.9 242.4 359.2 242.4 358.5 242.4 357.8 242.4 357.1 242.4 356.4 242.4 355.7 242.4 354.9 242.4 354.2 242.4 353.5 242.4 352.8 242.4 352.1 242.4 351.4 242.4 350.7 242.4 350 242.4 349.3 242.4 348.6 242.4 347.9 242.4 347.2 242.4 346.5 242.4 345.7 242.4 345 242.4 344.3 242.4 343.6 242.4 342.9 242.4 342.2 242.4 341.5 242.4 340.8 242.4 340.1 242.4 339.4 242.4 338.7 242.4 338 242.4 337.3 242.4 336.5 242.4 335.8 242.4 335.1 242.4 334.4 242.4 333.7 242.4 333 242.4 332.3 242.4 331.6 242.4 330.9 242.4 330.2 242.4 329.5 242.4 328.8 242.4 328.1 242.4 327.3 242.4 326.6 242.4 325.9 242.4 325.2 242.4 324.5 242.4 323.8 242.4 323.1 242.4 322.4 242.4 321.7 242.4 321 242.4 320.3 242.4 319.6 242.4 318.9 242.4 318.2 242.4 317.4 242.4 316.7 242.4 316 242.4 315.3 242.4 314.6 242.4 313.9 242.4 313.2 242.4 312.5 242.4 311.8 242.4 311.1 242.4 310.4 242.4 309.7 242.4 309 242.4 308.2 242.4 307.5 242.4 306.8 242.4 306.1 242.4 305.4 242.4 304.7 242.4 304 242.4 303.3 242.4 302.6 242.4 301.9 242.4 301.2 242.4 300.5 242.4 299.8 242.4 299 242.4 298.3 242.4 297.6 242.4 296.9 242.4 296.2 242.4 295.5 242.4 294.8 242.4 294.1 242.4 293.4 242.4 292.7 242.4 292 242.4 291.3 242.4 290.6 242.4 289.8 242.4 289.1 242.4 288.4 242.4 287.7 242.4 287 242.4 286.3 242.4 285.6 242.4 284.9 242.4 284.2 242.4 283.5 242.4 282.8 242.4 282.1 242.4 281.4 242.4 280.6 242.4 279.9 242.4 279.2 242.4 278.5 242.4 277.8 242.4 277.1 242.4 276.4 242.4 275.7 242.4 275 242.4 274.3 242.4 273.6 242.4 272.9 242.4 272.2 242.4 271.4 242.4 270.7 242.4 270 242.4 269.3 242.4 268.6 242.4 267.9 242.4 267.2 242.4 266.5 242.4 265.8 242.4 265.1 242.4 264.4 242.4 263.7 242.4 263 242.4 262.2 242.4 261.5 242.4 260.8 242.4 260.1 242.4 259.4 242.4 258.7 242.4 258 242.4 257.3 242.4 256.6 242.4 255.9 242.4 255.2 242.4 254.5 242.4 253.8 242.4 253 242.4 252.3 242.4 251.6 242.4 250.9 242.4 250.2 242.4 249.5 242.4 248.8 242.4 248.1 242.4 247.4 242.4 246.7 242.4 246 242.4 245.3 242.4 244.6 242.4 243.9 242.4 243.1 242.4 242.4 242.4 241.7 242.4 241 242.4 240.3 242.4 239.6 242.4 238.9 242.4 238.2 242.4 237.5 242.4 236.8 242.4 236.1 242.4 235.4 242.4 234.7 242.4 233.9 242.4 233.2 242.4 232.5 242.4 231.8 242.4 231.1 242.4 230.4 242.4 229.7 242.4 229 242.4 228.3 242.4 227.6 242.4 226.9 242.4 226.2 242.4 225.5 242.4 224.7 242.4 224 242.4 223.3 242.4 222.6 242.4 221.9 242.4 221.2 242.4 220.5 242.4 219.8 242.4 219.1 242.4 218.4 242.4 217.7 242.4 217 242.4 216.3 242.4 215.5 242.4 214.8 242.4 214.1 242.4 213.4 242.4 212.7 242.4 212 242.4 211.3 242.4 210.6 242.4 209.9 242.4 209.2 242.4 208.5 242.4 207.8 242.4 207.1 242.4 206.3 242.4 205.6 242.4 204.9 242.4 204.2 242.4 203.5 242.4 202.8 242.4 202.1 242.4 201.4 242.4 200.7 242.4 200 242.4 199.3 242.4 198.6 242.4 197.9 242.4 197.1 242.4 196.4 242.4 195.7 242.4 195 242.4 194.3 242.4 193.6 242.4 192.9 242.4 192.2 242.4 191.5 242.4 190.8 242.4 190.1 242.4 189.4 242.4 188.7 242.4 187.9 242.4 187.2 242.4 186.5 242.4 185.8 242.4 185.1 242.4 184.4 242.4 183.7 242.4 183 242.4 182.3 242.4 181.6 242.4 180.9 242.4 180.2 242.4 179.5 242.4 178.7 242.4 178 242.4 177.3 242.4 176.6 242.4 175.9 242.4 175.2 242.4 174.5 242.4 173.8 242.4 173.1 242.4 172.4 242.4 171.7 242.4 171 242.4 170.3 242.4 169.6 242.4 168.8 242.4 168.1 242.4 167.4 242.4 166.7 242.4 166 242.4 165.3 242.4 164.6 242.4 163.9 242.4 163.2 242.4 162.5 242.4 161.8 242.4 161.1 242.4 160.4 242.4 159.6 242.4 158.9 242.4 158.2 242.4 157.5 242.4 156.8 242.4 156.1 242.4 155.4 242.4 154.7 242.4 154 242.4 153.3 242.4 152.6 242.4 151.9 242.4 151.2 242.4 150.4 242.4 149.7 242.4 149 242.4 148.3 242.4 147.6 242.4 146.9 242.4 146.2 242.4 145.5 242.4 144.8 242.4 144.1 242.4 143.4 242.4 142.7 242.4 142 242.4 141.2 242.4 140.5 242.4 139.8 242.4 139.1 242.4 138.4 242.4 137.7 242.4 137 242.4 136.3 242.4 135.6 242.4 134.9 242.4 134.2 242.4 133.5 242.4 132.8 242.4 132 242.4 131.3 242.4 130.6 242.4 129.9 242.4 129.2 242.4 128.5 242.4 127.8 242.4 127.1 242.4 126.4 242.4 125.7 242.4 125 242.4 124.3 242.4 123.6 242.4 122.8 242.4 122.1 242.4 121.4 242.4 120.7 242.4 120 242.4 119.3 242.4 118.6 242.4 117.9 242.4 117.2 242.4 116.5 242.4 115.8 242.4 115.1 242.4 114.4 242.4 113.6 242.4 112.9 242.4 112.2 242.4 111.5 242.4 110.8 242.4 110.1 242.4 109.4 242.4 108.7 242.4 108 242.4 107.3 242.4 106.6 242.4 105.9 242.4 105.2 242.4 104.5 242.4 103.7 242.4 103 242.4 102.3 242.4 101.6 242.4 100.9 242.4 100.2 242.4 99.5 242.4 98.8 242.4 98.1 242.4 97.4 242.4 96.7 242.4 96 242.4 95.3 242.4 94.5 242.4 93.8 242.4 93.1 242.4 92.4 242.4 91.7 242.4 91 242.4 90.3 242.4 89.6 242.4 88.9 242.4 88.2 242.4 87.5 242.4 86.8 242.4 86.1 242.4 85.3 242.4 84.6 242.4 83.9 242.4 83.2 242.4 82.5 242.4 81.8 242.4 81.1 242.4 80.4 242.4 79.7 242.4 79 242.4 78.3 242.4 77.6 242.4 76.9 242.4 76.1 242.4 75.4 242.4 74.7 242.4 74 242.4 73.3 242.4 72.6 242.4 71.9 242.4"/></g></g></g><g id="gnuplot_plot_2"><title>Mean</title><g fill="none" stroke="currentColor" stroke-linecap="butt" stroke-linejoin="miter" stroke-width="2" color="#000"><path stroke="#1F78B4" d="M149.3,242.4 L149.3,64.9"/></g></g><g fill="none" stroke="currentColor" stroke-linecap="butt" stroke-linejoin="miter" stroke-width="1" color="#000"><path stroke="#000" d="M71.9,18.1 L71.9,242.4 L425.0,242.4 L425.0,18.1 L71.9,18.1 Z"/></g></g></svg>