<svg xmlns="http://www.w3.org/2000/svg" xmlns:xlink="http://www.w3.org/1999/xlink" viewBox="0 0 1280 720"><title>Gnuplot</title><desc>Produced by GNUPLOT 5.2 patchlevel 2</desc><g id="gnuplot_canvas"><rect width="1280" height="720" x="0" y="0" fill="none"/><defs><circle id="gpDot" r=".5" stroke-width=".5"/><path id="gpPt0" stroke="currentColor" stroke-width=".222" d="M-1,0 h2 M0,-1 v2"/><path id="gpPt1" stroke="currentColor" stroke-width=".222" d="M-1,-1 L1,1 M1,-1 L-1,1"/><path id="gpPt2" stroke="currentColor" stroke-width=".222" d="M-1,0 L1,0 M0,-1 L0,1 M-1,-1 L1,1 M-1,1 L1,-1"/><rect id="gpPt3" width="2" height="2" x="-1" y="-1" stroke="currentColor" stroke-width=".222"/><rect id="gpPt4" width="2" height="2" x="-1" y="-1" fill="currentColor" stroke="currentColor" stroke-width=".222"/><circle id="gpPt5" cx="0" cy="0" r="1" stroke="currentColor" stroke-width=".222"/><use id="gpPt6" fill="currentColor" stroke="none" xlink:href="#gpPt5"/><path id="gpPt7" stroke="currentColor" stroke-width=".222" d="M0,-1.33 L-1.33,0.67 L1.33,0.67 z"/><use id="gpPt8" fill="currentColor" stroke="none" xlink:href="#gpPt7"/><use id="gpPt9" stroke="currentColor" transform="rotate(180)" xlink:href="#gpPt7"/><use id="gpPt10" fill="currentColor" stroke="none" xlink:href="#gpPt9"/><use id="gpPt11" stroke="currentColor" transform="rotate(45)" xlink:href="#gpPt3"/><use id="gpPt12" fill="currentColor" stroke="none" xlink:href="#gpPt11"/><path id="gpPt13" stroke="currentColor" stroke-width=".222" d="M0,1.330 L1.265,0.411 L0.782,-1.067 L-0.782,-1.076 L-1.265,0.411 z"/><use id="gpPt14" fill="currentColor" stroke="none" xlink:href="#gpPt13"/><filter id="textbox" width="1" height="1" x="0" y="0" filterUnits="objectBoundingBox"><feFlood flood-color="#fff" flood-opacity="1" result="bgnd"/><feComposite in="SourceGraphic" in2="bgnd" operator="atop"/></filter><filter id="greybox" width="1" height="1" x="0" y="0" filterUnits="objectBoundingBox"><feFlood flood-color="#d3d3d3" flood-opacity="1" result="grey"/><feComposite in="SourceGraphic" in2="grey" operator="atop"/></filter></defs><g fill="none" stroke="currentColor" stroke-linecap="butt" stroke-linejoin="miter" stroke-width=".5" color="gray"><path stroke="gray" stroke-dasharray="2 4" d="M71.9,644.4 L1255.0,644.4" class="gridline"/></g><g fill="none" stroke="currentColor" stroke-linecap="butt" stroke-linejoin="miter" stroke-width="1" color="#000"><path stroke="#000" d="M71.9,644.4 L80.9,644.4"/><g fill="#000" stroke="none" font-family="Helvetica" font-size="12" text-anchor="end"><text transform="translate(63.6,648.3)"><tspan font-family="Helvetica">0</tspan></text></g></g><g fill="none" stroke="currentColor" stroke-linecap="butt" stroke-linejoin="miter" stroke-width=".5" color="gray"><path stroke="gray" stroke-dasharray="2 4" d="M71.9,585.4 L1255.0,585.4" class="gridline"/></g><g fill="none" stroke="currentColor" stroke-linecap="butt" stroke-linejoin="miter" stroke-width="1" color="#000"><path stroke="#000" d="M71.9,585.4 L80.9,585.4"/><g fill="#000" stroke="none" font-family="Helvetica" font-size="12" text-anchor="end"><text transform="translate(63.6,589.3)"><tspan font-family="Helvetica">10</tspan></text></g></g><g fill="none" stroke="currentColor" stroke-linecap="butt" stroke-linejoin="miter" stroke-width=".5" color="gray"><path stroke="gray" stroke-dasharray="2 4" d="M71.9,526.3 L1255.0,526.3" class="gridline"/></g><g fill="none" stroke="currentColor" stroke-linecap="butt" stroke-linejoin="miter" stroke-width="1" color="#000"><path stroke="#000" d="M71.9,526.3 L80.9,526.3"/><g fill="#000" stroke="none" font-family="Helvetica" font-size="12" text-anchor="end"><text transform="translate(63.6,530.2)"><tspan font-family="Helvetica">20</tspan></text></g></g><g fill="none" stroke="currentColor" stroke-linecap="butt" stroke-linejoin="miter" stroke-width=".5" color="gray"><path stroke="gray" stroke-dasharray="2 4" d="M71.9,467.3 L1255.0,467.3" class="gridline"/></g><g fill="none" stroke="currentColor" stroke-linecap="butt" stroke-linejoin="miter" stroke-width="1" color="#000"><path stroke="#000" d="M71.9,467.3 L80.9,467.3"/><g fill="#000" stroke="none" font-family="Helvetica" font-size="12" text-anchor="end"><text transform="translate(63.6,471.2)"><tspan font-family="Helvetica">30</tspan></text></g></g><g fill="none" stroke="currentColor" stroke-linecap="butt" stroke-linejoin="miter" stroke-width=".5" color="gray"><path stroke="gray" stroke-dasharray="2 4" d="M71.9,408.3 L1255.0,408.3" class="gridline"/></g><g fill="none" stroke="currentColor" stroke-linecap="butt" stroke-linejoin="miter" stroke-width="1" color="#000"><path stroke="#000" d="M71.9,408.3 L80.9,408.3"/><g fill="#000" stroke="none" font-family="Helvetica" font-size="12" text-anchor="end"><text transform="translate(63.6,412.2)"><tspan font-family="Helvetica">40</tspan></text></g></g><g fill="none" stroke="currentColor" stroke-linecap="butt" stroke-linejoin="miter" stroke-width=".5" color="gray"><path stroke="gray" stroke-dasharray="2 4" d="M71.9,349.2 L1255.0,349.2" class="gridline"/></g><g fill="none" stroke="currentColor" stroke-linecap="butt" stroke-linejoin="miter" stroke-width="1" color="#000"><path stroke="#000" d="M71.9,349.2 L80.9,349.2"/><g fill="#000" stroke="none" font-family="Helvetica" font-size="12" text-anchor="end"><text transform="translate(63.6,353.1)"><tspan font-family="Helvetica">50</tspan></text></g></g><g fill="none" stroke="currentColor" stroke-linecap="butt" stroke-linejoin="miter" stroke-width=".5" color="gray"><path stroke="gray" stroke-dasharray="2 4" d="M71.9,290.2 L1255.0,290.2" class="gridline"/></g><g fill="none" stroke="currentColor" stroke-linecap="butt" stroke-linejoin="miter" stroke-width="1" color="#000"><path stroke="#000" d="M71.9,290.2 L80.9,290.2"/><g fill="#000" stroke="none" font-family="Helvetica" font-size="12" text-anchor="end"><text transform="translate(63.6,294.1)"><tspan font-family="Helvetica">60</tspan></text></g></g><g fill="none" stroke="currentColor" stroke-linecap="butt" stroke-linejoin="miter" stroke-width=".5" color="gray"><path stroke="gray" stroke-dasharray="2 4" d="M71.9,231.2 L1255.0,231.2" class="gridline"/></g><g fill="none" stroke="currentColor" stroke-linecap="butt" stroke-linejoin="miter" stroke-width="1" color="#000"><path stroke="#000" d="M71.9,231.2 L80.9,231.2"/><g fill="#000" stroke="none" font-family="Helvetica" font-size="12" text-anchor="end"><text transform="translate(63.6,235.1)"><tspan font-family="Helvetica">70</tspan></text></g></g><g fill="none" stroke="currentColor" stroke-linecap="butt" stroke-linejoin="miter" stroke-width=".5" color="gray"><path stroke="gray" stroke-dasharray="2 4" d="M71.9,172.2 L1255.0,172.2" class="gridline"/></g><g fill="none" stroke="currentColor" stroke-linecap="butt" stroke-linejoin="miter" stroke-width="1" color="#000"><path stroke="#000" d="M71.9,172.2 L80.9,172.2"/><g fill="#000" stroke="none" font-family="Helvetica" font-size="12" text-anchor="end"><text transform="translate(63.6,176.1)"><tspan font-family="Helvetica">80</tspan></text></g></g><g fill="none" stroke="currentColor" stroke-linecap="butt" stroke-linejoin="miter" stroke-width=".5" color="gray"><path stroke="gray" stroke-dasharray="2 4" d="M71.9,113.1 L80.2,113.1 M296.7,113.1 L1255.0,113.1" class="gridline"/></g><g fill="none" stroke="currentColor" stroke-linecap="butt" stroke-linejoin="miter" stroke-width="1" color="#000"><path stroke="#000" d="M71.9,113.1 L80.9,113.1"/><g fill="#000" stroke="none" font-family="Helvetica" font-size="12" text-anchor="end"><text transform="translate(63.6,117.0)"><tspan font-family="Helvetica">90</tspan></text></g></g><g fill="none" stroke="currentColor" stroke-linecap="butt" stroke-linejoin="miter" stroke-width=".5" color="gray"><path stroke="gray" stroke-dasharray="2 4" d="M71.9,54.1 L1255.0,54.1" class="gridline"/></g><g fill="none" stroke="currentColor" stroke-linecap="butt" stroke-linejoin="miter" stroke-width="1" color="#000"><path stroke="#000" d="M71.9,54.1 L80.9,54.1"/><g fill="#000" stroke="none" font-family="Helvetica" font-size="12" text-anchor="end"><text transform="translate(63.6,58.0)"><tspan font-family="Helvetica">100</tspan></text></g></g><g fill="none" stroke="currentColor" stroke-linecap="butt" stroke-linejoin="miter" stroke-width=".5" color="gray"><path stroke="gray" stroke-dasharray="2 4" d="M71.9,644.4 L71.9,54.1" class="gridline"/></g><g fill="none" stroke="currentColor" stroke-linecap="butt" stroke-linejoin="miter" stroke-width="1" color="#000"><path stroke="#000" d="M71.9,644.4 L71.9,635.4"/><g fill="#000" stroke="none" font-family="Helvetica" font-size="12" text-anchor="middle"><text transform="translate(71.9,666.3)"><tspan font-family="Helvetica">0</tspan></text></g></g><g fill="none" stroke="currentColor" stroke-linecap="butt" stroke-linejoin="miter" stroke-width=".5" color="gray"><path stroke="gray" stroke-dasharray="2 4" d="M308.5,644.4 L308.5,54.1" class="gridline"/></g><g fill="none" stroke="currentColor" stroke-linecap="butt" stroke-linejoin="miter" stroke-width="1" color="#000"><path stroke="#000" d="M308.5,644.4 L308.5,635.4"/><g fill="#000" stroke="none" font-family="Helvetica" font-size="12" text-anchor="middle"><text transform="translate(308.5,666.3)"><tspan font-family="Helvetica">5</tspan></text></g></g><g fill="none" stroke="currentColor" stroke-linecap="butt" stroke-linejoin="miter" stroke-width=".5" color="gray"><path stroke="gray" stroke-dasharray="2 4" d="M545.1,644.4 L545.1,54.1" class="gridline"/></g><g fill="none" stroke="currentColor" stroke-linecap="butt" stroke-linejoin="miter" stroke-width="1" color="#000"><path stroke="#000" d="M545.1,644.4 L545.1,635.4"/><g fill="#000" stroke="none" font-family="Helvetica" font-size="12" text-anchor="middle"><text transform="translate(545.1,666.3)"><tspan font-family="Helvetica">10</tspan></text></g></g><g fill="none" stroke="currentColor" stroke-linecap="butt" stroke-linejoin="miter" stroke-width=".5" color="gray"><path stroke="gray" stroke-dasharray="2 4" d="M781.8,644.4 L781.8,54.1" class="gridline"/></g><g fill="none" stroke="currentColor" stroke-linecap="butt" stroke-linejoin="miter" stroke-width="1" color="#000"><path stroke="#000" d="M781.8,644.4 L781.8,635.4"/><g fill="#000" stroke="none" font-family="Helvetica" font-size="12" text-anchor="middle"><text transform="translate(781.8,666.3)"><tspan font-family="Helvetica">15</tspan></text></g></g><g fill="none" stroke="currentColor" stroke-linecap="butt" stroke-linejoin="miter" stroke-width=".5" color="gray"><path stroke="gray" stroke-dasharray="2 4" d="M1018.4,644.4 L1018.4,54.1" class="gridline"/></g><g fill="none" stroke="currentColor" stroke-linecap="butt" stroke-linejoin="miter" stroke-width="1" color="#000"><path stroke="#000" d="M1018.4,644.4 L1018.4,635.4"/><g fill="#000" stroke="none" font-family="Helvetica" font-size="12" text-anchor="middle"><text transform="translate(1018.4,666.3)"><tspan font-family="Helvetica">20</tspan></text></g></g><g fill="none" stroke="currentColor" stroke-linecap="butt" stroke-linejoin="miter" stroke-width=".5" color="gray"><path stroke="gray" stroke-dasharray="2 4" d="M1255.0,644.4 L1255.0,54.1" class="gridline"/></g><g fill="none" stroke="currentColor" stroke-linecap="butt" stroke-linejoin="miter" stroke-width="1" color="#000"><path stroke="#000" d="M1255.0,644.4 L1255.0,635.4"/><g fill="#000" stroke="none" font-family="Helvetica" font-size="12" text-anchor="middle"><text transform="translate(1255.0,666.3)"><tspan font-family="Helvetica">25</tspan></text></g></g><g fill="none" stroke="currentColor" stroke-linecap="butt" stroke-linejoin="miter" stroke-width="1" color="#000"><path stroke="#000" d="M71.9,54.1 L71.9,644.4 L1255.0,644.4 L1255.0,54.1 L71.9,54.1 Z"/></g><g fill="none" stroke="currentColor" stroke-linecap="butt" stroke-linejoin="miter" stroke-width="1" color="#000"><g fill="#000" stroke="none" font-family="Helvetica" font-size="12" text-anchor="middle"><text transform="translate(16.3,349.3) rotate(270)"><tspan font-family="Helvetica">Total sample time (ms)</tspan></text></g></g><g fill="none" stroke="currentColor" stroke-linecap="butt" stroke-linejoin="miter" stroke-width="1" color="#000"><g fill="#000" stroke="none" font-family="Helvetica" font-size="12" text-anchor="middle"><text transform="translate(663.4,693.3)"><tspan font-family="Helvetica">Iterations (x 10</tspan><tspan dy="-6" font-family="Helvetica" font-size="9.6">6</tspan><tspan dy="6" font-family="Helvetica" font-size="12">)</tspan></text></g></g><g fill="none" stroke="currentColor" stroke-linecap="butt" stroke-linejoin="miter" stroke-width="1" color="#000"><g fill="#000" stroke="none" font-family="Helvetica" font-size="12" text-anchor="middle"><text transform="translate(663.4,31.0)"><tspan font-family="Helvetica">Fibonacci2/Iterative/20</tspan></text></g></g><g id="gnuplot_plot_1"><title>Sample</title><g fill="none" stroke="currentColor" stroke-linecap="butt" stroke-linejoin="miter" stroke-width="1" color="#000"><g fill="#000" stroke="none" font-family="Helvetica" font-size="12" text-anchor="start"><text transform="translate(139.0,76.0)"><tspan font-family="Helvetica">Sample</tspan></text></g></g><g fill="none" stroke="currentColor" stroke-linecap="butt" stroke-linejoin="miter" stroke-width="1" color="#000"><use color="#1F78B4" transform="translate(81.8,637.5) scale(2.25)" xlink:href="#gpPt6"/><use color="#1F78B4" transform="translate(91.7,633.0) scale(2.25)" xlink:href="#gpPt6"/><use color="#1F78B4" transform="translate(101.6,626.7) scale(2.25)" xlink:href="#gpPt6"/><use color="#1F78B4" transform="translate(111.4,610.8) scale(2.25)" xlink:href="#gpPt6"/><use color="#1F78B4" transform="translate(121.3,602.4) scale(2.25)" xlink:href="#gpPt6"/><use color="#1F78B4" transform="translate(131.2,599.6) scale(2.25)" xlink:href="#gpPt6"/><use color="#1F78B4" transform="translate(141.1,601.0) scale(2.25)" xlink:href="#gpPt6"/><use color="#1F78B4" transform="translate(151.0,597.8) scale(2.25)" xlink:href="#gpPt6"/><use color="#1F78B4" transform="translate(160.9,591.3) scale(2.25)" xlink:href="#gpPt6"/><use color="#1F78B4" transform="translate(170.7,586.4) scale(2.25)" xlink:href="#gpPt6"/><use color="#1F78B4" transform="translate(180.6,581.9) scale(2.25)" xlink:href="#gpPt6"/><use color="#1F78B4" transform="translate(190.5,573.8) scale(2.25)" xlink:href="#gpPt6"/><use color="#1F78B4" transform="translate(200.4,571.1) scale(2.25)" xlink:href="#gpPt6"/><use color="#1F78B4" transform="translate(210.3,566.7) scale(2.25)" xlink:href="#gpPt6"/><use color="#1F78B4" transform="translate(220.2,560.2) scale(2.25)" xlink:href="#gpPt6"/><use color="#1F78B4" transform="translate(230.1,553.8) scale(2.25)" xlink:href="#gpPt6"/><use color="#1F78B4" transform="translate(239.9,545.8) scale(2.25)" xlink:href="#gpPt6"/><use color="#1F78B4" transform="translate(249.8,539.1) scale(2.25)" xlink:href="#gpPt6"/><use color="#1F78B4" transform="translate(259.7,532.9) scale(2.25)" xlink:href="#gpPt6"/><use color="#1F78B4" transform="translate(269.6,530.4) scale(2.25)" xlink:href="#gpPt6"/><use color="#1F78B4" transform="translate(279.5,525.7) scale(2.25)" xlink:href="#gpPt6"/><use color="#1F78B4" transform="translate(289.4,517.0) scale(2.25)" xlink:href="#gpPt6"/><use color="#1F78B4" transform="translate(299.2,506.3) scale(2.25)" xlink:href="#gpPt6"/><use color="#1F78B4" transform="translate(309.1,496.6) scale(2.25)" xlink:href="#gpPt6"/><use color="#1F78B4" transform="translate(319.0,495.8) scale(2.25)" xlink:href="#gpPt6"/><use color="#1F78B4" transform="translate(328.9,497.8) scale(2.25)" xlink:href="#gpPt6"/><use color="#1F78B4" transform="translate(338.8,493.6) scale(2.25)" xlink:href="#gpPt6"/><use color="#1F78B4" transform="translate(348.7,482.9) scale(2.25)" xlink:href="#gpPt6"/><use color="#1F78B4" transform="translate(358.6,483.3) scale(2.25)" xlink:href="#gpPt6"/><use color="#1F78B4" transform="translate(368.4,476.4) scale(2.25)" xlink:href="#gpPt6"/><use color="#1F78B4" transform="translate(378.3,470.0) scale(2.25)" xlink:href="#gpPt6"/><use color="#1F78B4" transform="translate(388.2,458.9) scale(2.25)" xlink:href="#gpPt6"/><use color="#1F78B4" transform="translate(398.1,454.6) scale(2.25)" xlink:href="#gpPt6"/><use color="#1F78B4" transform="translate(408.0,448.0) scale(2.25)" xlink:href="#gpPt6"/><use color="#1F78B4" transform="translate(417.9,441.4) scale(2.25)" xlink:href="#gpPt6"/><use color="#1F78B4" transform="translate(427.7,437.8) scale(2.25)" xlink:href="#gpPt6"/><use color="#1F78B4" transform="translate(437.6,438.3) scale(2.25)" xlink:href="#gpPt6"/><use color="#1F78B4" transform="translate(447.5,424.7) scale(2.25)" xlink:href="#gpPt6"/><use color="#1F78B4" transform="translate(457.4,418.4) scale(2.25)" xlink:href="#gpPt6"/><use color="#1F78B4" transform="translate(467.3,413.9) scale(2.25)" xlink:href="#gpPt6"/><use color="#1F78B4" transform="translate(477.2,411.8) scale(2.25)" xlink:href="#gpPt6"/><use color="#1F78B4" transform="translate(487.1,406.6) scale(2.25)" xlink:href="#gpPt6"/><use color="#1F78B4" transform="translate(496.9,391.5) scale(2.25)" xlink:href="#gpPt6"/><use color="#1F78B4" transform="translate(506.8,396.6) scale(2.25)" xlink:href="#gpPt6"/><use color="#1F78B4" transform="translate(516.7,385.6) scale(2.25)" xlink:href="#gpPt6"/><use color="#1F78B4" transform="translate(526.6,344.9) scale(2.25)" xlink:href="#gpPt6"/><use color="#1F78B4" transform="translate(536.5,373.9) scale(2.25)" xlink:href="#gpPt6"/><use color="#1F78B4" transform="translate(546.4,367.1) scale(2.25)" xlink:href="#gpPt6"/><use color="#1F78B4" transform="translate(556.3,362.5) scale(2.25)" xlink:href="#gpPt6"/><use color="#1F78B4" transform="translate(566.1,353.9) scale(2.25)" xlink:href="#gpPt6"/><use color="#1F78B4" transform="translate(576.0,339.9) scale(2.25)" xlink:href="#gpPt6"/><use color="#1F78B4" transform="translate(585.9,338.4) scale(2.25)" xlink:href="#gpPt6"/><use color="#1F78B4" transform="translate(595.8,343.4) scale(2.25)" xlink:href="#gpPt6"/><use color="#1F78B4" transform="translate(605.7,338.8) scale(2.25)" xlink:href="#gpPt6"/><use color="#1F78B4" transform="translate(615.6,336.3) scale(2.25)" xlink:href="#gpPt6"/><use color="#1F78B4" transform="translate(625.4,328.9) scale(2.25)" xlink:href="#gpPt6"/><use color="#1F78B4" transform="translate(635.3,305.6) scale(2.25)" xlink:href="#gpPt6"/><use color="#1F78B4" transform="translate(645.2,304.7) scale(2.25)" xlink:href="#gpPt6"/><use color="#1F78B4" transform="translate(655.1,301.9) scale(2.25)" xlink:href="#gpPt6"/><use color="#1F78B4" transform="translate(665.0,305.9) scale(2.25)" xlink:href="#gpPt6"/><use color="#1F78B4" transform="translate(674.9,301.8) scale(2.25)" xlink:href="#gpPt6"/><use color="#1F78B4" transform="translate(684.8,289.6) scale(2.25)" xlink:href="#gpPt6"/><use color="#1F78B4" transform="translate(694.6,278.7) scale(2.25)" xlink:href="#gpPt6"/><use color="#1F78B4" transform="translate(704.5,242.5) scale(2.25)" xlink:href="#gpPt6"/><use color="#1F78B4" transform="translate(714.4,275.3) scale(2.25)" xlink:href="#gpPt6"/><use color="#1F78B4" transform="translate(724.3,258.2) scale(2.25)" xlink:href="#gpPt6"/><use color="#1F78B4" transform="translate(734.2,260.0) scale(2.25)" xlink:href="#gpPt6"/><use color="#1F78B4" transform="translate(744.1,254.4) scale(2.25)" xlink:href="#gpPt6"/><use color="#1F78B4" transform="translate(753.9,256.5) scale(2.25)" xlink:href="#gpPt6"/><use color="#1F78B4" transform="translate(763.8,245.6) scale(2.25)" xlink:href="#gpPt6"/><use color="#1F78B4" transform="translate(773.7,232.2) scale(2.25)" xlink:href="#gpPt6"/><use color="#1F78B4" transform="translate(783.6,232.2) scale(2.25)" xlink:href="#gpPt6"/><use color="#1F78B4" transform="translate(793.5,223.4) scale(2.25)" xlink:href="#gpPt6"/><use color="#1F78B4" transform="translate(803.4,220.9) scale(2.25)" xlink:href="#gpPt6"/><use color="#1F78B4" transform="translate(813.3,215.8) scale(2.25)" xlink:href="#gpPt6"/><use color="#1F78B4" transform="translate(823.1,221.0) scale(2.25)" xlink:href="#gpPt6"/><use color="#1F78B4" transform="translate(833.0,213.6) scale(2.25)" xlink:href="#gpPt6"/><use color="#1F78B4" transform="translate(842.9,189.4) scale(2.25)" xlink:href="#gpPt6"/><use color="#1F78B4" transform="translate(852.8,175.1) scale(2.25)" xlink:href="#gpPt6"/><use color="#1F78B4" transform="translate(862.7,183.3) scale(2.25)" xlink:href="#gpPt6"/><use color="#1F78B4" transform="translate(872.6,185.6) scale(2.25)" xlink:href="#gpPt6"/><use color="#1F78B4" transform="translate(882.4,168.5) scale(2.25)" xlink:href="#gpPt6"/><use color="#1F78B4" transform="translate(892.3,147.1) scale(2.25)" xlink:href="#gpPt6"/><use color="#1F78B4" transform="translate(902.2,144.5) scale(2.25)" xlink:href="#gpPt6"/><use color="#1F78B4" transform="translate(912.1,161.5) scale(2.25)" xlink:href="#gpPt6"/><use color="#1F78B4" transform="translate(922.0,148.6) scale(2.25)" xlink:href="#gpPt6"/><use color="#1F78B4" transform="translate(931.9,149.3) scale(2.25)" xlink:href="#gpPt6"/><use color="#1F78B4" transform="translate(941.8,145.3) scale(2.25)" xlink:href="#gpPt6"/><use color="#1F78B4" transform="translate(951.6,138.5) scale(2.25)" xlink:href="#gpPt6"/><use color="#1F78B4" transform="translate(961.5,125.0) scale(2.25)" xlink:href="#gpPt6"/><use color="#1F78B4" transform="translate(971.4,82.3) scale(2.25)" xlink:href="#gpPt6"/><use color="#1F78B4" transform="translate(981.3,65.5) scale(2.25)" xlink:href="#gpPt6"/><use color="#1F78B4" transform="translate(991.2,115.3) scale(2.25)" xlink:href="#gpPt6"/><use color="#1F78B4" transform="translate(1001.1,83.5) scale(2.25)" xlink:href="#gpPt6"/><use color="#1F78B4" transform="translate(1010.9,108.0) scale(2.25)" xlink:href="#gpPt6"/><use color="#1F78B4" transform="translate(1020.8,106.2) scale(2.25)" xlink:href="#gpPt6"/><use color="#1F78B4" transform="translate(1030.7,85.9) scale(2.25)" xlink:href="#gpPt6"/><use color="#1F78B4" transform="translate(1040.6,93.3) scale(2.25)" xlink:href="#gpPt6"/><use color="#1F78B4" transform="translate(1050.5,86.5) scale(2.25)" xlink:href="#gpPt6"/><use color="#1F78B4" transform="translate(1060.4,79.1) scale(2.25)" xlink:href="#gpPt6"/><use color="#1F78B4" transform="translate(109.6,72.1) scale(2.25)" xlink:href="#gpPt6"/></g></g><g id="gnuplot_plot_2"><title>Linear regression</title><g fill="none" stroke="currentColor" stroke-linecap="butt" stroke-linejoin="miter" stroke-width="2" color="#000"><g fill="#000" stroke="none" font-family="Helvetica" font-size="12" text-anchor="start"><text transform="translate(139.0,94.0)"><tspan font-family="Helvetica">Linear regression</tspan></text></g></g><g fill="none" stroke="currentColor" stroke-linecap="butt" stroke-linejoin="miter" stroke-width="2" color="#000"><path stroke="#1F78B4" d="M88.5,90.1 L130.7,90.1 M71.9,644.4 L1060.4,67.1"/></g></g><g id="gnuplot_plot_3"><title>Confidence interval</title><g fill="none" stroke="currentColor" stroke-linecap="butt" stroke-linejoin="miter" stroke-width="1" color="#000"><g fill="#000" stroke="none" font-family="Helvetica" font-size="12" text-anchor="start"><text transform="translate(139.0,112.0)"><tspan font-family="Helvetica">Confidence interval</tspan></text></g></g><g fill="none" stroke="currentColor" stroke-linecap="butt" stroke-linejoin="miter" stroke-width="1" color="#000"><g stroke="none" shape-rendering="crispEdges"><polygon fill="#1F78B4" fill-opacity=".25" points="88.5 112.6 130.7 112.6 130.7 103.6 88.5 103.6"/><polygon fill="#1F78B4" fill-opacity=".25" points="71.9 644.4 71.9 644.4 71.9 644.4"/><polygon fill="#1F78B4" fill-opacity=".25" points="71.9 644.4 1060.4 71.3 1060.4 62.2"/></g></g></g><g fill="none" stroke="currentColor" stroke-linecap="butt" stroke-linejoin="miter" stroke-width="1" color="#000"><path stroke="#000" d="M71.9,54.1 L71.9,644.4 L1255.0,644.4 L1255.0,54.1 L71.9,54.1 Z"/></g></g></svg>