<svg xmlns="http://www.w3.org/2000/svg" xmlns:xlink="http://www.w3.org/1999/xlink" viewBox="0 0 450 300"><title>Gnuplot</title><desc>Produced by GNUPLOT 5.2 patchlevel 2</desc><g id="gnuplot_canvas"><rect width="450" height="300" x="0" y="0" fill="none"/><defs><circle id="gpDot" r=".5" stroke-width=".5"/><path id="gpPt0" stroke="currentColor" stroke-width=".222" d="M-1,0 h2 M0,-1 v2"/><path id="gpPt1" stroke="currentColor" stroke-width=".222" d="M-1,-1 L1,1 M1,-1 L-1,1"/><path id="gpPt2" stroke="currentColor" stroke-width=".222" d="M-1,0 L1,0 M0,-1 L0,1 M-1,-1 L1,1 M-1,1 L1,-1"/><rect id="gpPt3" width="2" height="2" x="-1" y="-1" stroke="currentColor" stroke-width=".222"/><rect id="gpPt4" width="2" height="2" x="-1" y="-1" fill="currentColor" stroke="currentColor" stroke-width=".222"/><circle id="gpPt5" cx="0" cy="0" r="1" stroke="currentColor" stroke-width=".222"/><use id="gpPt6" fill="currentColor" stroke="none" xlink:href="#gpPt5"/><path id="gpPt7" stroke="currentColor" stroke-width=".222" d="M0,-1.33 L-1.33,0.67 L1.33,0.67 z"/><use id="gpPt8" fill="currentColor" stroke="none" xlink:href="#gpPt7"/><use id="gpPt9" stroke="currentColor" transform="rotate(180)" xlink:href="#gpPt7"/><use id="gpPt10" fill="currentColor" stroke="none" xlink:href="#gpPt9"/><use id="gpPt11" stroke="currentColor" transform="rotate(45)" xlink:href="#gpPt3"/><use id="gpPt12" fill="currentColor" stroke="none" xlink:href="#gpPt11"/><path id="gpPt13" stroke="currentColor" stroke-width=".222" d="M0,1.330 L1.265,0.411 L0.782,-1.067 L-0.782,-1.076 L-1.265,0.411 z"/><use id="gpPt14" fill="currentColor" stroke="none" xlink:href="#gpPt13"/><filter id="textbox" width="1" height="1" x="0" y="0" filterUnits="objectBoundingBox"><feFlood flood-color="#fff" flood-opacity="1" result="bgnd"/><feComposite in="SourceGraphic" in2="bgnd" operator="atop"/></filter><filter id="greybox" width="1" height="1" x="0" y="0" filterUnits="objectBoundingBox"><feFlood flood-color="#d3d3d3" flood-opacity="1" result="grey"/><feComposite in="SourceGraphic" in2="grey" operator="atop"/></filter></defs><g fill="none" stroke="currentColor" stroke-linecap="butt" stroke-linejoin="miter" stroke-width=".5" color="gray"><path stroke="gray" stroke-dasharray="2 4" d="M71.9,224.4 L425.0,224.4" class="gridline"/></g><g fill="none" stroke="currentColor" stroke-linecap="butt" stroke-linejoin="miter" stroke-width="1" color="#000"><path stroke="#000" d="M71.9,224.4 L80.9,224.4"/><g fill="#000" stroke="none" font-family="Helvetica" font-size="12" text-anchor="end"><text transform="translate(63.6,228.3)"><tspan font-family="Helvetica">0</tspan></text></g></g><g fill="none" stroke="currentColor" stroke-linecap="butt" stroke-linejoin="miter" stroke-width=".5" color="gray"><path stroke="gray" stroke-dasharray="2 4" d="M71.9,203.8 L425.0,203.8" class="gridline"/></g><g fill="none" stroke="currentColor" stroke-linecap="butt" stroke-linejoin="miter" stroke-width="1" color="#000"><path stroke="#000" d="M71.9,203.8 L80.9,203.8"/><g fill="#000" stroke="none" font-family="Helvetica" font-size="12" text-anchor="end"><text transform="translate(63.6,207.7)"><tspan font-family="Helvetica">10</tspan></text></g></g><g fill="none" stroke="currentColor" stroke-linecap="butt" stroke-linejoin="miter" stroke-width=".5" color="gray"><path stroke="gray" stroke-dasharray="2 4" d="M71.9,183.1 L425.0,183.1" class="gridline"/></g><g fill="none" stroke="currentColor" stroke-linecap="butt" stroke-linejoin="miter" stroke-width="1" color="#000"><path stroke="#000" d="M71.9,183.1 L80.9,183.1"/><g fill="#000" stroke="none" font-family="Helvetica" font-size="12" text-anchor="end"><text transform="translate(63.6,187.0)"><tspan font-family="Helvetica">20</tspan></text></g></g><g fill="none" stroke="currentColor" stroke-linecap="butt" stroke-linejoin="miter" stroke-width=".5" color="gray"><path stroke="gray" stroke-dasharray="2 4" d="M71.9,162.5 L425.0,162.5" class="gridline"/></g><g fill="none" stroke="currentColor" stroke-linecap="butt" stroke-linejoin="miter" stroke-width="1" color="#000"><path stroke="#000" d="M71.9,162.5 L80.9,162.5"/><g fill="#000" stroke="none" font-family="Helvetica" font-size="12" text-anchor="end"><text transform="translate(63.6,166.4)"><tspan font-family="Helvetica">30</tspan></text></g></g><g fill="none" stroke="currentColor" stroke-linecap="butt" stroke-linejoin="miter" stroke-width=".5" color="gray"><path stroke="gray" stroke-dasharray="2 4" d="M71.9,141.9 L425.0,141.9" class="gridline"/></g><g fill="none" stroke="currentColor" stroke-linecap="butt" stroke-linejoin="miter" stroke-width="1" color="#000"><path stroke="#000" d="M71.9,141.9 L80.9,141.9"/><g fill="#000" stroke="none" font-family="Helvetica" font-size="12" text-anchor="end"><text transform="translate(63.6,145.8)"><tspan font-family="Helvetica">40</tspan></text></g></g><g fill="none" stroke="currentColor" stroke-linecap="butt" stroke-linejoin="miter" stroke-width=".5" color="gray"><path stroke="gray" stroke-dasharray="2 4" d="M71.9,121.2 L425.0,121.2" class="gridline"/></g><g fill="none" stroke="currentColor" stroke-linecap="butt" stroke-linejoin="miter" stroke-width="1" color="#000"><path stroke="#000" d="M71.9,121.2 L80.9,121.2"/><g fill="#000" stroke="none" font-family="Helvetica" font-size="12" text-anchor="end"><text transform="translate(63.6,125.1)"><tspan font-family="Helvetica">50</tspan></text></g></g><g fill="none" stroke="currentColor" stroke-linecap="butt" stroke-linejoin="miter" stroke-width=".5" color="gray"><path stroke="gray" stroke-dasharray="2 4" d="M71.9,100.6 L425.0,100.6" class="gridline"/></g><g fill="none" stroke="currentColor" stroke-linecap="butt" stroke-linejoin="miter" stroke-width="1" color="#000"><path stroke="#000" d="M71.9,100.6 L80.9,100.6"/><g fill="#000" stroke="none" font-family="Helvetica" font-size="12" text-anchor="end"><text transform="translate(63.6,104.5)"><tspan font-family="Helvetica">60</tspan></text></g></g><g fill="none" stroke="currentColor" stroke-linecap="butt" stroke-linejoin="miter" stroke-width=".5" color="gray"><path stroke="gray" stroke-dasharray="2 4" d="M71.9,80.0 L425.0,80.0" class="gridline"/></g><g fill="none" stroke="currentColor" stroke-linecap="butt" stroke-linejoin="miter" stroke-width="1" color="#000"><path stroke="#000" d="M71.9,80.0 L80.9,80.0"/><g fill="#000" stroke="none" font-family="Helvetica" font-size="12" text-anchor="end"><text transform="translate(63.6,83.9)"><tspan font-family="Helvetica">70</tspan></text></g></g><g fill="none" stroke="currentColor" stroke-linecap="butt" stroke-linejoin="miter" stroke-width=".5" color="gray"><path stroke="gray" stroke-dasharray="2 4" d="M71.9,59.4 L425.0,59.4" class="gridline"/></g><g fill="none" stroke="currentColor" stroke-linecap="butt" stroke-linejoin="miter" stroke-width="1" color="#000"><path stroke="#000" d="M71.9,59.4 L80.9,59.4"/><g fill="#000" stroke="none" font-family="Helvetica" font-size="12" text-anchor="end"><text transform="translate(63.6,63.3)"><tspan font-family="Helvetica">80</tspan></text></g></g><g fill="none" stroke="currentColor" stroke-linecap="butt" stroke-linejoin="miter" stroke-width=".5" color="gray"><path stroke="gray" stroke-dasharray="2 4" d="M71.9,38.7 L425.0,38.7" class="gridline"/></g><g fill="none" stroke="currentColor" stroke-linecap="butt" stroke-linejoin="miter" stroke-width="1" color="#000"><path stroke="#000" d="M71.9,38.7 L80.9,38.7"/><g fill="#000" stroke="none" font-family="Helvetica" font-size="12" text-anchor="end"><text transform="translate(63.6,42.6)"><tspan font-family="Helvetica">90</tspan></text></g></g><g fill="none" stroke="currentColor" stroke-linecap="butt" stroke-linejoin="miter" stroke-width=".5" color="gray"><path stroke="gray" stroke-dasharray="2 4" d="M71.9,18.1 L425.0,18.1" class="gridline"/></g><g fill="none" stroke="currentColor" stroke-linecap="butt" stroke-linejoin="miter" stroke-width="1" color="#000"><path stroke="#000" d="M71.9,18.1 L80.9,18.1"/><g fill="#000" stroke="none" font-family="Helvetica" font-size="12" text-anchor="end"><text transform="translate(63.6,22.0)"><tspan font-family="Helvetica">100</tspan></text></g></g><g fill="none" stroke="currentColor" stroke-linecap="butt" stroke-linejoin="miter" stroke-width=".5" color="gray"><path stroke="gray" stroke-dasharray="2 4" d="M71.9,224.4 L71.9,18.1" class="gridline"/></g><g fill="none" stroke="currentColor" stroke-linecap="butt" stroke-linejoin="miter" stroke-width="1" color="#000"><path stroke="#000" d="M71.9,224.4 L71.9,215.4"/><g fill="#000" stroke="none" font-family="Helvetica" font-size="12" text-anchor="middle"><text transform="translate(71.9,246.3)"><tspan font-family="Helvetica">0</tspan></text></g></g><g fill="none" stroke="currentColor" stroke-linecap="butt" stroke-linejoin="miter" stroke-width=".5" color="gray"><path stroke="gray" stroke-dasharray="2 4" d="M142.5,224.4 L142.5,18.1" class="gridline"/></g><g fill="none" stroke="currentColor" stroke-linecap="butt" stroke-linejoin="miter" stroke-width="1" color="#000"><path stroke="#000" d="M142.5,224.4 L142.5,215.4"/><g fill="#000" stroke="none" font-family="Helvetica" font-size="12" text-anchor="middle"><text transform="translate(142.5,246.3)"><tspan font-family="Helvetica">5</tspan></text></g></g><g fill="none" stroke="currentColor" stroke-linecap="butt" stroke-linejoin="miter" stroke-width=".5" color="gray"><path stroke="gray" stroke-dasharray="2 4" d="M213.1,224.4 L213.1,18.1" class="gridline"/></g><g fill="none" stroke="currentColor" stroke-linecap="butt" stroke-linejoin="miter" stroke-width="1" color="#000"><path stroke="#000" d="M213.1,224.4 L213.1,215.4"/><g fill="#000" stroke="none" font-family="Helvetica" font-size="12" text-anchor="middle"><text transform="translate(213.1,246.3)"><tspan font-family="Helvetica">10</tspan></text></g></g><g fill="none" stroke="currentColor" stroke-linecap="butt" stroke-linejoin="miter" stroke-width=".5" color="gray"><path stroke="gray" stroke-dasharray="2 4" d="M283.8,224.4 L283.8,18.1" class="gridline"/></g><g fill="none" stroke="currentColor" stroke-linecap="butt" stroke-linejoin="miter" stroke-width="1" color="#000"><path stroke="#000" d="M283.8,224.4 L283.8,215.4"/><g fill="#000" stroke="none" font-family="Helvetica" font-size="12" text-anchor="middle"><text transform="translate(283.8,246.3)"><tspan font-family="Helvetica">15</tspan></text></g></g><g fill="none" stroke="currentColor" stroke-linecap="butt" stroke-linejoin="miter" stroke-width=".5" color="gray"><path stroke="gray" stroke-dasharray="2 4" d="M354.4,224.4 L354.4,18.1" class="gridline"/></g><g fill="none" stroke="currentColor" stroke-linecap="butt" stroke-linejoin="miter" stroke-width="1" color="#000"><path stroke="#000" d="M354.4,224.4 L354.4,215.4"/><g fill="#000" stroke="none" font-family="Helvetica" font-size="12" text-anchor="middle"><text transform="translate(354.4,246.3)"><tspan font-family="Helvetica">20</tspan></text></g></g><g fill="none" stroke="currentColor" stroke-linecap="butt" stroke-linejoin="miter" stroke-width=".5" color="gray"><path stroke="gray" stroke-dasharray="2 4" d="M425.0,224.4 L425.0,18.1" class="gridline"/></g><g fill="none" stroke="currentColor" stroke-linecap="butt" stroke-linejoin="miter" stroke-width="1" color="#000"><path stroke="#000" d="M425.0,224.4 L425.0,215.4"/><g fill="#000" stroke="none" font-family="Helvetica" font-size="12" text-anchor="middle"><text transform="translate(425.0,246.3)"><tspan font-family="Helvetica">25</tspan></text></g></g><g fill="none" stroke="currentColor" stroke-linecap="butt" stroke-linejoin="miter" stroke-width="1" color="#000"><path stroke="#000" d="M71.9,18.1 L71.9,224.4 L425.0,224.4 L425.0,18.1 L71.9,18.1 Z"/></g><g fill="none" stroke="currentColor" stroke-linecap="butt" stroke-linejoin="miter" stroke-width="1" color="#000"><g fill="#000" stroke="none" font-family="Helvetica" font-size="12" text-anchor="middle"><text transform="translate(16.3,121.3) rotate(270)"><tspan font-family="Helvetica">Total sample time (ms)</tspan></text></g></g><g fill="none" stroke="currentColor" stroke-linecap="butt" stroke-linejoin="miter" stroke-width="1" color="#000"><g fill="#000" stroke="none" font-family="Helvetica" font-size="12" text-anchor="middle"><text transform="translate(248.4,273.3)"><tspan font-family="Helvetica">Iterations (x 10</tspan><tspan dy="-6" font-family="Helvetica" font-size="9.6">6</tspan><tspan dy="6" font-family="Helvetica" font-size="12">)</tspan></text></g></g><g id="gnuplot_plot_1"><title>Sample</title><g fill="none" stroke="currentColor" stroke-linecap="butt" stroke-linejoin="miter" stroke-width="1" color="#000"><use color="#1F78B4" transform="translate(74.9,222.0) scale(2.25)" xlink:href="#gpPt6"/><use color="#1F78B4" transform="translate(77.8,220.4) scale(2.25)" xlink:href="#gpPt6"/><use color="#1F78B4" transform="translate(80.8,218.2) scale(2.25)" xlink:href="#gpPt6"/><use color="#1F78B4" transform="translate(83.7,212.7) scale(2.25)" xlink:href="#gpPt6"/><use color="#1F78B4" transform="translate(86.7,209.7) scale(2.25)" xlink:href="#gpPt6"/><use color="#1F78B4" transform="translate(89.6,208.7) scale(2.25)" xlink:href="#gpPt6"/><use color="#1F78B4" transform="translate(92.6,209.2) scale(2.25)" xlink:href="#gpPt6"/><use color="#1F78B4" transform="translate(95.5,208.1) scale(2.25)" xlink:href="#gpPt6"/><use color="#1F78B4" transform="translate(98.5,205.9) scale(2.25)" xlink:href="#gpPt6"/><use color="#1F78B4" transform="translate(101.4,204.1) scale(2.25)" xlink:href="#gpPt6"/><use color="#1F78B4" transform="translate(104.4,202.6) scale(2.25)" xlink:href="#gpPt6"/><use color="#1F78B4" transform="translate(107.3,199.7) scale(2.25)" xlink:href="#gpPt6"/><use color="#1F78B4" transform="translate(110.3,198.8) scale(2.25)" xlink:href="#gpPt6"/><use color="#1F78B4" transform="translate(113.2,197.2) scale(2.25)" xlink:href="#gpPt6"/><use color="#1F78B4" transform="translate(116.2,195.0) scale(2.25)" xlink:href="#gpPt6"/><use color="#1F78B4" transform="translate(119.1,192.7) scale(2.25)" xlink:href="#gpPt6"/><use color="#1F78B4" transform="translate(122.1,189.9) scale(2.25)" xlink:href="#gpPt6"/><use color="#1F78B4" transform="translate(125.0,187.6) scale(2.25)" xlink:href="#gpPt6"/><use color="#1F78B4" transform="translate(128.0,185.4) scale(2.25)" xlink:href="#gpPt6"/><use color="#1F78B4" transform="translate(130.9,184.5) scale(2.25)" xlink:href="#gpPt6"/><use color="#1F78B4" transform="translate(133.9,182.9) scale(2.25)" xlink:href="#gpPt6"/><use color="#1F78B4" transform="translate(136.8,179.9) scale(2.25)" xlink:href="#gpPt6"/><use color="#1F78B4" transform="translate(139.8,176.1) scale(2.25)" xlink:href="#gpPt6"/><use color="#1F78B4" transform="translate(142.7,172.8) scale(2.25)" xlink:href="#gpPt6"/><use color="#1F78B4" transform="translate(145.7,172.5) scale(2.25)" xlink:href="#gpPt6"/><use color="#1F78B4" transform="translate(148.6,173.2) scale(2.25)" xlink:href="#gpPt6"/><use color="#1F78B4" transform="translate(151.6,171.7) scale(2.25)" xlink:href="#gpPt6"/><use color="#1F78B4" transform="translate(154.5,168.0) scale(2.25)" xlink:href="#gpPt6"/><use color="#1F78B4" transform="translate(157.5,168.1) scale(2.25)" xlink:href="#gpPt6"/><use color="#1F78B4" transform="translate(160.4,165.7) scale(2.25)" xlink:href="#gpPt6"/><use color="#1F78B4" transform="translate(163.4,163.4) scale(2.25)" xlink:href="#gpPt6"/><use color="#1F78B4" transform="translate(166.3,159.6) scale(2.25)" xlink:href="#gpPt6"/><use color="#1F78B4" transform="translate(169.3,158.1) scale(2.25)" xlink:href="#gpPt6"/><use color="#1F78B4" transform="translate(172.2,155.7) scale(2.25)" xlink:href="#gpPt6"/><use color="#1F78B4" transform="translate(175.2,153.5) scale(2.25)" xlink:href="#gpPt6"/><use color="#1F78B4" transform="translate(178.1,152.2) scale(2.25)" xlink:href="#gpPt6"/><use color="#1F78B4" transform="translate(181.1,152.4) scale(2.25)" xlink:href="#gpPt6"/><use color="#1F78B4" transform="translate(184.0,147.6) scale(2.25)" xlink:href="#gpPt6"/><use color="#1F78B4" transform="translate(187.0,145.4) scale(2.25)" xlink:href="#gpPt6"/><use color="#1F78B4" transform="translate(189.9,143.8) scale(2.25)" xlink:href="#gpPt6"/><use color="#1F78B4" transform="translate(192.9,143.1) scale(2.25)" xlink:href="#gpPt6"/><use color="#1F78B4" transform="translate(195.8,141.3) scale(2.25)" xlink:href="#gpPt6"/><use color="#1F78B4" transform="translate(198.8,136.0) scale(2.25)" xlink:href="#gpPt6"/><use color="#1F78B4" transform="translate(201.7,137.8) scale(2.25)" xlink:href="#gpPt6"/><use color="#1F78B4" transform="translate(204.7,133.9) scale(2.25)" xlink:href="#gpPt6"/><use color="#1F78B4" transform="translate(207.6,119.7) scale(2.25)" xlink:href="#gpPt6"/><use color="#1F78B4" transform="translate(210.6,129.9) scale(2.25)" xlink:href="#gpPt6"/><use color="#1F78B4" transform="translate(213.5,127.5) scale(2.25)" xlink:href="#gpPt6"/><use color="#1F78B4" transform="translate(216.5,125.9) scale(2.25)" xlink:href="#gpPt6"/><use color="#1F78B4" transform="translate(219.4,122.9) scale(2.25)" xlink:href="#gpPt6"/><use color="#1F78B4" transform="translate(222.4,118.0) scale(2.25)" xlink:href="#gpPt6"/><use color="#1F78B4" transform="translate(225.3,117.5) scale(2.25)" xlink:href="#gpPt6"/><use color="#1F78B4" transform="translate(228.3,119.2) scale(2.25)" xlink:href="#gpPt6"/><use color="#1F78B4" transform="translate(231.2,117.6) scale(2.25)" xlink:href="#gpPt6"/><use color="#1F78B4" transform="translate(234.2,116.7) scale(2.25)" xlink:href="#gpPt6"/><use color="#1F78B4" transform="translate(237.1,114.1) scale(2.25)" xlink:href="#gpPt6"/><use color="#1F78B4" transform="translate(240.1,106.0) scale(2.25)" xlink:href="#gpPt6"/><use color="#1F78B4" transform="translate(243.0,105.7) scale(2.25)" xlink:href="#gpPt6"/><use color="#1F78B4" transform="translate(246.0,104.7) scale(2.25)" xlink:href="#gpPt6"/><use color="#1F78B4" transform="translate(248.9,106.1) scale(2.25)" xlink:href="#gpPt6"/><use color="#1F78B4" transform="translate(251.9,104.7) scale(2.25)" xlink:href="#gpPt6"/><use color="#1F78B4" transform="translate(254.8,100.4) scale(2.25)" xlink:href="#gpPt6"/><use color="#1F78B4" transform="translate(257.8,96.6) scale(2.25)" xlink:href="#gpPt6"/><use color="#1F78B4" transform="translate(260.7,83.9) scale(2.25)" xlink:href="#gpPt6"/><use color="#1F78B4" transform="translate(263.7,95.4) scale(2.25)" xlink:href="#gpPt6"/><use color="#1F78B4" transform="translate(266.6,89.4) scale(2.25)" xlink:href="#gpPt6"/><use color="#1F78B4" transform="translate(269.6,90.1) scale(2.25)" xlink:href="#gpPt6"/><use color="#1F78B4" transform="translate(272.5,88.1) scale(2.25)" xlink:href="#gpPt6"/><use color="#1F78B4" transform="translate(275.5,88.8) scale(2.25)" xlink:href="#gpPt6"/><use color="#1F78B4" transform="translate(278.4,85.0) scale(2.25)" xlink:href="#gpPt6"/><use color="#1F78B4" transform="translate(281.4,80.3) scale(2.25)" xlink:href="#gpPt6"/><use color="#1F78B4" transform="translate(284.3,80.3) scale(2.25)" xlink:href="#gpPt6"/><use color="#1F78B4" transform="translate(287.3,77.3) scale(2.25)" xlink:href="#gpPt6"/><use color="#1F78B4" transform="translate(290.2,76.4) scale(2.25)" xlink:href="#gpPt6"/><use color="#1F78B4" transform="translate(293.2,74.6) scale(2.25)" xlink:href="#gpPt6"/><use color="#1F78B4" transform="translate(296.1,76.4) scale(2.25)" xlink:href="#gpPt6"/><use color="#1F78B4" transform="translate(299.1,73.9) scale(2.25)" xlink:href="#gpPt6"/><use color="#1F78B4" transform="translate(302.0,65.4) scale(2.25)" xlink:href="#gpPt6"/><use color="#1F78B4" transform="translate(305.0,60.4) scale(2.25)" xlink:href="#gpPt6"/><use color="#1F78B4" transform="translate(307.9,63.3) scale(2.25)" xlink:href="#gpPt6"/><use color="#1F78B4" transform="translate(310.9,64.1) scale(2.25)" xlink:href="#gpPt6"/><use color="#1F78B4" transform="translate(313.8,58.1) scale(2.25)" xlink:href="#gpPt6"/><use color="#1F78B4" transform="translate(316.8,50.6) scale(2.25)" xlink:href="#gpPt6"/><use color="#1F78B4" transform="translate(319.7,49.7) scale(2.25)" xlink:href="#gpPt6"/><use color="#1F78B4" transform="translate(322.7,55.6) scale(2.25)" xlink:href="#gpPt6"/><use color="#1F78B4" transform="translate(325.6,51.1) scale(2.25)" xlink:href="#gpPt6"/><use color="#1F78B4" transform="translate(328.6,51.4) scale(2.25)" xlink:href="#gpPt6"/><use color="#1F78B4" transform="translate(331.5,50.0) scale(2.25)" xlink:href="#gpPt6"/><use color="#1F78B4" transform="translate(334.5,47.6) scale(2.25)" xlink:href="#gpPt6"/><use color="#1F78B4" transform="translate(337.4,42.9) scale(2.25)" xlink:href="#gpPt6"/><use color="#1F78B4" transform="translate(340.4,28.0) scale(2.25)" xlink:href="#gpPt6"/><use color="#1F78B4" transform="translate(343.3,22.1) scale(2.25)" xlink:href="#gpPt6"/><use color="#1F78B4" transform="translate(346.3,39.5) scale(2.25)" xlink:href="#gpPt6"/><use color="#1F78B4" transform="translate(349.2,28.4) scale(2.25)" xlink:href="#gpPt6"/><use color="#1F78B4" transform="translate(352.2,36.9) scale(2.25)" xlink:href="#gpPt6"/><use color="#1F78B4" transform="translate(355.1,36.3) scale(2.25)" xlink:href="#gpPt6"/><use color="#1F78B4" transform="translate(358.1,29.2) scale(2.25)" xlink:href="#gpPt6"/><use color="#1F78B4" transform="translate(361.0,31.8) scale(2.25)" xlink:href="#gpPt6"/><use color="#1F78B4" transform="translate(364.0,29.4) scale(2.25)" xlink:href="#gpPt6"/><use color="#1F78B4" transform="translate(366.9,26.8) scale(2.25)" xlink:href="#gpPt6"/></g></g><g id="gnuplot_plot_2"><title>Linear regression</title><g fill="none" stroke="currentColor" stroke-linecap="butt" stroke-linejoin="miter" stroke-width="2" color="#000"><path stroke="#1F78B4" d="M71.9,224.4 L366.9,22.6"/></g></g><g id="gnuplot_plot_3"><title>Confidence interval</title><g fill="none" stroke="currentColor" stroke-linecap="butt" stroke-linejoin="miter" stroke-width="1" color="#000"><g stroke="none" shape-rendering="crispEdges"><polygon fill="#1F78B4" fill-opacity=".25" points="71.9 224.4 71.9 224.4 71.9 224.4"/><polygon fill="#1F78B4" fill-opacity=".25" points="71.9 224.4 366.9 24.1 366.9 20.9"/></g></g></g><g fill="none" stroke="currentColor" stroke-linecap="butt" stroke-linejoin="miter" stroke-width="1" color="#000"><path stroke="#000" d="M71.9,18.1 L71.9,224.4 L425.0,224.4 L425.0,18.1 L71.9,18.1 Z"/></g></g></svg>