<svg xmlns="http://www.w3.org/2000/svg" xmlns:xlink="http://www.w3.org/1999/xlink" viewBox="0 0 1280 720"><title>Gnuplot</title><desc>Produced by GNUPLOT 5.2 patchlevel 2</desc><g id="gnuplot_canvas"><rect width="1280" height="720" x="0" y="0" fill="none"/><defs><circle id="gpDot" r=".5" stroke-width=".5"/><path id="gpPt0" stroke="currentColor" stroke-width=".222" d="M-1,0 h2 M0,-1 v2"/><path id="gpPt1" stroke="currentColor" stroke-width=".222" d="M-1,-1 L1,1 M1,-1 L-1,1"/><path id="gpPt2" stroke="currentColor" stroke-width=".222" d="M-1,0 L1,0 M0,-1 L0,1 M-1,-1 L1,1 M-1,1 L1,-1"/><rect id="gpPt3" width="2" height="2" x="-1" y="-1" stroke="currentColor" stroke-width=".222"/><rect id="gpPt4" width="2" height="2" x="-1" y="-1" fill="currentColor" stroke="currentColor" stroke-width=".222"/><circle id="gpPt5" cx="0" cy="0" r="1" stroke="currentColor" stroke-width=".222"/><use id="gpPt6" fill="currentColor" stroke="none" xlink:href="#gpPt5"/><path id="gpPt7" stroke="currentColor" stroke-width=".222" d="M0,-1.33 L-1.33,0.67 L1.33,0.67 z"/><use id="gpPt8" fill="currentColor" stroke="none" xlink:href="#gpPt7"/><use id="gpPt9" stroke="currentColor" transform="rotate(180)" xlink:href="#gpPt7"/><use id="gpPt10" fill="currentColor" stroke="none" xlink:href="#gpPt9"/><use id="gpPt11" stroke="currentColor" transform="rotate(45)" xlink:href="#gpPt3"/><use id="gpPt12" fill="currentColor" stroke="none" xlink:href="#gpPt11"/><path id="gpPt13" stroke="currentColor" stroke-width=".222" d="M0,1.330 L1.265,0.411 L0.782,-1.067 L-0.782,-1.076 L-1.265,0.411 z"/><use id="gpPt14" fill="currentColor" stroke="none" xlink:href="#gpPt13"/><filter id="textbox" width="1" height="1" x="0" y="0" filterUnits="objectBoundingBox"><feFlood flood-color="#fff" flood-opacity="1" result="bgnd"/><feComposite in="SourceGraphic" in2="bgnd" operator="atop"/></filter><filter id="greybox" width="1" height="1" x="0" y="0" filterUnits="objectBoundingBox"><feFlood flood-color="#d3d3d3" flood-opacity="1" result="grey"/><feComposite in="SourceGraphic" in2="grey" operator="atop"/></filter></defs><g fill="none" stroke="currentColor" stroke-linecap="butt" stroke-linejoin="miter" stroke-width=".5" color="gray"><path stroke="gray" stroke-dasharray="2 4" d="M88.5,662.4 L1255.0,662.4" class="gridline"/></g><g fill="none" stroke="currentColor" stroke-linecap="butt" stroke-linejoin="miter" stroke-width="1" color="#000"><path stroke="#000" d="M88.5,662.4 L97.5,662.4"/><g fill="#000" stroke="none" font-family="Helvetica" font-size="12" text-anchor="end"><text transform="translate(80.2,666.3)"><tspan font-family="Helvetica">10.7</tspan></text></g></g><g fill="none" stroke="currentColor" stroke-linecap="butt" stroke-linejoin="miter" stroke-width=".5" color="gray"><path stroke="gray" stroke-dasharray="2 4" d="M88.5,575.5 L1255.0,575.5" class="gridline"/></g><g fill="none" stroke="currentColor" stroke-linecap="butt" stroke-linejoin="miter" stroke-width="1" color="#000"><path stroke="#000" d="M88.5,575.5 L97.5,575.5"/><g fill="#000" stroke="none" font-family="Helvetica" font-size="12" text-anchor="end"><text transform="translate(80.2,579.4)"><tspan font-family="Helvetica">10.75</tspan></text></g></g><g fill="none" stroke="currentColor" stroke-linecap="butt" stroke-linejoin="miter" stroke-width=".5" color="gray"><path stroke="gray" stroke-dasharray="2 4" d="M88.5,488.6 L1255.0,488.6" class="gridline"/></g><g fill="none" stroke="currentColor" stroke-linecap="butt" stroke-linejoin="miter" stroke-width="1" color="#000"><path stroke="#000" d="M88.5,488.6 L97.5,488.6"/><g fill="#000" stroke="none" font-family="Helvetica" font-size="12" text-anchor="end"><text transform="translate(80.2,492.5)"><tspan font-family="Helvetica">10.8</tspan></text></g></g><g fill="none" stroke="currentColor" stroke-linecap="butt" stroke-linejoin="miter" stroke-width=".5" color="gray"><path stroke="gray" stroke-dasharray="2 4" d="M88.5,401.7 L1255.0,401.7" class="gridline"/></g><g fill="none" stroke="currentColor" stroke-linecap="butt" stroke-linejoin="miter" stroke-width="1" color="#000"><path stroke="#000" d="M88.5,401.7 L97.5,401.7"/><g fill="#000" stroke="none" font-family="Helvetica" font-size="12" text-anchor="end"><text transform="translate(80.2,405.6)"><tspan font-family="Helvetica">10.85</tspan></text></g></g><g fill="none" stroke="currentColor" stroke-linecap="butt" stroke-linejoin="miter" stroke-width=".5" color="gray"><path stroke="gray" stroke-dasharray="2 4" d="M88.5,314.8 L1255.0,314.8" class="gridline"/></g><g fill="none" stroke="currentColor" stroke-linecap="butt" stroke-linejoin="miter" stroke-width="1" color="#000"><path stroke="#000" d="M88.5,314.8 L97.5,314.8"/><g fill="#000" stroke="none" font-family="Helvetica" font-size="12" text-anchor="end"><text transform="translate(80.2,318.7)"><tspan font-family="Helvetica">10.9</tspan></text></g></g><g fill="none" stroke="currentColor" stroke-linecap="butt" stroke-linejoin="miter" stroke-width=".5" color="gray"><path stroke="gray" stroke-dasharray="2 4" d="M88.5,227.9 L1255.0,227.9" class="gridline"/></g><g fill="none" stroke="currentColor" stroke-linecap="butt" stroke-linejoin="miter" stroke-width="1" color="#000"><path stroke="#000" d="M88.5,227.9 L97.5,227.9"/><g fill="#000" stroke="none" font-family="Helvetica" font-size="12" text-anchor="end"><text transform="translate(80.2,231.8)"><tspan font-family="Helvetica">10.95</tspan></text></g></g><g fill="none" stroke="currentColor" stroke-linecap="butt" stroke-linejoin="miter" stroke-width=".5" color="gray"><path stroke="gray" stroke-dasharray="2 4" d="M88.5,141.0 L1255.0,141.0" class="gridline"/></g><g fill="none" stroke="currentColor" stroke-linecap="butt" stroke-linejoin="miter" stroke-width="1" color="#000"><path stroke="#000" d="M88.5,141.0 L97.5,141.0"/><g fill="#000" stroke="none" font-family="Helvetica" font-size="12" text-anchor="end"><text transform="translate(80.2,144.9)"><tspan font-family="Helvetica">11</tspan></text></g></g><g fill="none" stroke="currentColor" stroke-linecap="butt" stroke-linejoin="miter" stroke-width=".5" color="gray"><path stroke="gray" stroke-dasharray="2 4" d="M88.5,54.1 L1255.0,54.1" class="gridline"/></g><g fill="none" stroke="currentColor" stroke-linecap="butt" stroke-linejoin="miter" stroke-width="1" color="#000"><path stroke="#000" d="M88.5,54.1 L97.5,54.1"/><g fill="#000" stroke="none" font-family="Helvetica" font-size="12" text-anchor="end"><text transform="translate(80.2,58.0)"><tspan font-family="Helvetica">11.05</tspan></text></g></g><g fill="none" stroke="currentColor" stroke-linecap="butt" stroke-linejoin="miter" stroke-width=".5" color="gray"><path stroke="gray" stroke-dasharray="2 4" d="M88.5,662.4 L88.5,54.1" class="gridline"/></g><g fill="none" stroke="currentColor" stroke-linecap="butt" stroke-linejoin="miter" stroke-width="1" color="#000"><path stroke="#000" d="M88.5,662.4 L88.5,653.4"/><g fill="#000" stroke="none" font-family="Helvetica" font-size="12" text-anchor="middle"><text transform="translate(88.5,684.3)"><tspan font-family="Helvetica">0</tspan></text></g></g><g fill="none" stroke="currentColor" stroke-linecap="butt" stroke-linejoin="miter" stroke-width=".5" color="gray"><path stroke="gray" stroke-dasharray="2 4" d="M205.2,662.4 L205.2,54.1" class="gridline"/></g><g fill="none" stroke="currentColor" stroke-linecap="butt" stroke-linejoin="miter" stroke-width="1" color="#000"><path stroke="#000" d="M205.2,662.4 L205.2,653.4"/><g fill="#000" stroke="none" font-family="Helvetica" font-size="12" text-anchor="middle"><text transform="translate(205.2,684.3)"><tspan font-family="Helvetica">10</tspan></text></g></g><g fill="none" stroke="currentColor" stroke-linecap="butt" stroke-linejoin="miter" stroke-width=".5" color="gray"><path stroke="gray" stroke-dasharray="2 4" d="M321.8,662.4 L321.8,54.1" class="gridline"/></g><g fill="none" stroke="currentColor" stroke-linecap="butt" stroke-linejoin="miter" stroke-width="1" color="#000"><path stroke="#000" d="M321.8,662.4 L321.8,653.4"/><g fill="#000" stroke="none" font-family="Helvetica" font-size="12" text-anchor="middle"><text transform="translate(321.8,684.3)"><tspan font-family="Helvetica">20</tspan></text></g></g><g fill="none" stroke="currentColor" stroke-linecap="butt" stroke-linejoin="miter" stroke-width=".5" color="gray"><path stroke="gray" stroke-dasharray="2 4" d="M438.5,662.4 L438.5,54.1" class="gridline"/></g><g fill="none" stroke="currentColor" stroke-linecap="butt" stroke-linejoin="miter" stroke-width="1" color="#000"><path stroke="#000" d="M438.5,662.4 L438.5,653.4"/><g fill="#000" stroke="none" font-family="Helvetica" font-size="12" text-anchor="middle"><text transform="translate(438.5,684.3)"><tspan font-family="Helvetica">30</tspan></text></g></g><g fill="none" stroke="currentColor" stroke-linecap="butt" stroke-linejoin="miter" stroke-width=".5" color="gray"><path stroke="gray" stroke-dasharray="2 4" d="M555.1,662.4 L555.1,54.1" class="gridline"/></g><g fill="none" stroke="currentColor" stroke-linecap="butt" stroke-linejoin="miter" stroke-width="1" color="#000"><path stroke="#000" d="M555.1,662.4 L555.1,653.4"/><g fill="#000" stroke="none" font-family="Helvetica" font-size="12" text-anchor="middle"><text transform="translate(555.1,684.3)"><tspan font-family="Helvetica">40</tspan></text></g></g><g fill="none" stroke="currentColor" stroke-linecap="butt" stroke-linejoin="miter" stroke-width=".5" color="gray"><path stroke="gray" stroke-dasharray="2 4" d="M671.8,662.4 L671.8,54.1" class="gridline"/></g><g fill="none" stroke="currentColor" stroke-linecap="butt" stroke-linejoin="miter" stroke-width="1" color="#000"><path stroke="#000" d="M671.8,662.4 L671.8,653.4"/><g fill="#000" stroke="none" font-family="Helvetica" font-size="12" text-anchor="middle"><text transform="translate(671.8,684.3)"><tspan font-family="Helvetica">50</tspan></text></g></g><g fill="none" stroke="currentColor" stroke-linecap="butt" stroke-linejoin="miter" stroke-width=".5" color="gray"><path stroke="gray" stroke-dasharray="2 4" d="M788.4,662.4 L788.4,54.1" class="gridline"/></g><g fill="none" stroke="currentColor" stroke-linecap="butt" stroke-linejoin="miter" stroke-width="1" color="#000"><path stroke="#000" d="M788.4,662.4 L788.4,653.4"/><g fill="#000" stroke="none" font-family="Helvetica" font-size="12" text-anchor="middle"><text transform="translate(788.4,684.3)"><tspan font-family="Helvetica">60</tspan></text></g></g><g fill="none" stroke="currentColor" stroke-linecap="butt" stroke-linejoin="miter" stroke-width=".5" color="gray"><path stroke="gray" stroke-dasharray="2 4" d="M905.1,662.4 L905.1,54.1" class="gridline"/></g><g fill="none" stroke="currentColor" stroke-linecap="butt" stroke-linejoin="miter" stroke-width="1" color="#000"><path stroke="#000" d="M905.1,662.4 L905.1,653.4"/><g fill="#000" stroke="none" font-family="Helvetica" font-size="12" text-anchor="middle"><text transform="translate(905.1,684.3)"><tspan font-family="Helvetica">70</tspan></text></g></g><g fill="none" stroke="currentColor" stroke-linecap="butt" stroke-linejoin="miter" stroke-width=".5" color="gray"><path stroke="gray" stroke-dasharray="2 4" d="M1021.7,662.4 L1021.7,54.1" class="gridline"/></g><g fill="none" stroke="currentColor" stroke-linecap="butt" stroke-linejoin="miter" stroke-width="1" color="#000"><path stroke="#000" d="M1021.7,662.4 L1021.7,653.4"/><g fill="#000" stroke="none" font-family="Helvetica" font-size="12" text-anchor="middle"><text transform="translate(1021.7,684.3)"><tspan font-family="Helvetica">80</tspan></text></g></g><g fill="none" stroke="currentColor" stroke-linecap="butt" stroke-linejoin="miter" stroke-width=".5" color="gray"><path stroke="gray" stroke-dasharray="2 4" d="M1138.4,662.4 L1138.4,54.1" class="gridline"/></g><g fill="none" stroke="currentColor" stroke-linecap="butt" stroke-linejoin="miter" stroke-width="1" color="#000"><path stroke="#000" d="M1138.4,662.4 L1138.4,653.4"/><g fill="#000" stroke="none" font-family="Helvetica" font-size="12" text-anchor="middle"><text transform="translate(1138.4,684.3)"><tspan font-family="Helvetica">90</tspan></text></g></g><g fill="none" stroke="currentColor" stroke-linecap="butt" stroke-linejoin="miter" stroke-width=".5" color="gray"><path stroke="gray" stroke-dasharray="2 4" d="M1255.0,662.4 L1255.0,54.1" class="gridline"/></g><g fill="none" stroke="currentColor" stroke-linecap="butt" stroke-linejoin="miter" stroke-width="1" color="#000"><path stroke="#000" d="M1255.0,662.4 L1255.0,653.4"/><g fill="#000" stroke="none" font-family="Helvetica" font-size="12" text-anchor="middle"><text transform="translate(1255.0,684.3)"><tspan font-family="Helvetica">100</tspan></text></g></g><g fill="none" stroke="currentColor" stroke-linecap="butt" stroke-linejoin="miter" stroke-width="1" color="#000"><path stroke="#000" d="M88.5,54.1 L88.5,662.4 L1255.0,662.4 L1255.0,54.1 L88.5,54.1 Z"/></g><g fill="none" stroke="currentColor" stroke-linecap="butt" stroke-linejoin="miter" stroke-width="1" color="#000"><g fill="#000" stroke="none" font-family="Helvetica" font-size="12" text-anchor="middle"><text transform="translate(16.3,358.3) rotate(270)"><tspan font-family="Helvetica">Average Iteration Time (ms)</tspan></text></g></g><g fill="none" stroke="currentColor" stroke-linecap="butt" stroke-linejoin="miter" stroke-width="1" color="#000"><g fill="#000" stroke="none" font-family="Helvetica" font-size="12" text-anchor="middle"><text transform="translate(671.7,711.3)"><tspan font-family="Helvetica">Sample</tspan></text></g></g><g fill="none" stroke="currentColor" stroke-linecap="butt" stroke-linejoin="miter" stroke-width="1" color="#000"><g fill="#000" stroke="none" font-family="Helvetica" font-size="12" text-anchor="middle"><text transform="translate(671.7,31.0)"><tspan font-family="Helvetica">sampling_mode/Flat</tspan></text></g></g><g id="gnuplot_plot_1"><title>gnuplot_plot_1</title><g fill="none" stroke="currentColor" stroke-linecap="butt" stroke-linejoin="miter" stroke-width="1" color="#000"><use color="#1F78B4" transform="translate(100.2,302.9) scale(2.25)" xlink:href="#gpPt6"/><use color="#1F78B4" transform="translate(111.8,167.2) scale(2.25)" xlink:href="#gpPt6"/><use color="#1F78B4" transform="translate(123.5,177.4) scale(2.25)" xlink:href="#gpPt6"/><use color="#1F78B4" transform="translate(135.2,179.4) scale(2.25)" xlink:href="#gpPt6"/><use color="#1F78B4" transform="translate(146.8,151.7) scale(2.25)" xlink:href="#gpPt6"/><use color="#1F78B4" transform="translate(158.5,166.0) scale(2.25)" xlink:href="#gpPt6"/><use color="#1F78B4" transform="translate(170.2,185.5) scale(2.25)" xlink:href="#gpPt6"/><use color="#1F78B4" transform="translate(181.8,146.6) scale(2.25)" xlink:href="#gpPt6"/><use color="#1F78B4" transform="translate(193.5,177.4) scale(2.25)" xlink:href="#gpPt6"/><use color="#1F78B4" transform="translate(205.2,130.1) scale(2.25)" xlink:href="#gpPt6"/><use color="#1F78B4" transform="translate(216.8,159.2) scale(2.25)" xlink:href="#gpPt6"/><use color="#1F78B4" transform="translate(228.5,153.5) scale(2.25)" xlink:href="#gpPt6"/><use color="#1F78B4" transform="translate(240.1,172.9) scale(2.25)" xlink:href="#gpPt6"/><use color="#1F78B4" transform="translate(251.8,181.3) scale(2.25)" xlink:href="#gpPt6"/><use color="#1F78B4" transform="translate(263.5,157.1) scale(2.25)" xlink:href="#gpPt6"/><use color="#1F78B4" transform="translate(275.1,179.2) scale(2.25)" xlink:href="#gpPt6"/><use color="#1F78B4" transform="translate(286.8,153.8) scale(2.25)" xlink:href="#gpPt6"/><use color="#1F78B4" transform="translate(298.5,165.7) scale(2.25)" xlink:href="#gpPt6"/><use color="#1F78B4" transform="translate(310.1,176.2) scale(2.25)" xlink:href="#gpPt6"/><use color="#1F78B4" transform="translate(321.8,161.6) scale(2.25)" xlink:href="#gpPt6"/><use color="#1F78B4" transform="translate(333.5,164.0) scale(2.25)" xlink:href="#gpPt6"/><use color="#1F78B4" transform="translate(345.1,166.5) scale(2.25)" xlink:href="#gpPt6"/><use color="#1F78B4" transform="translate(356.8,133.8) scale(2.25)" xlink:href="#gpPt6"/><use color="#1F78B4" transform="translate(368.5,176.8) scale(2.25)" xlink:href="#gpPt6"/><use color="#1F78B4" transform="translate(380.1,499.7) scale(2.25)" xlink:href="#gpPt6"/><use color="#1F78B4" transform="translate(391.8,161.4) scale(2.25)" xlink:href="#gpPt6"/><use color="#1F78B4" transform="translate(403.5,158.2) scale(2.25)" xlink:href="#gpPt6"/><use color="#1F78B4" transform="translate(415.1,169.7) scale(2.25)" xlink:href="#gpPt6"/><use color="#1F78B4" transform="translate(426.8,161.9) scale(2.25)" xlink:href="#gpPt6"/><use color="#1F78B4" transform="translate(438.5,178.4) scale(2.25)" xlink:href="#gpPt6"/><use color="#1F78B4" transform="translate(450.1,170.1) scale(2.25)" xlink:href="#gpPt6"/><use color="#1F78B4" transform="translate(461.8,158.8) scale(2.25)" xlink:href="#gpPt6"/><use color="#1F78B4" transform="translate(473.4,178.4) scale(2.25)" xlink:href="#gpPt6"/><use color="#1F78B4" transform="translate(485.1,141.6) scale(2.25)" xlink:href="#gpPt6"/><use color="#1F78B4" transform="translate(496.8,171.1) scale(2.25)" xlink:href="#gpPt6"/><use color="#1F78B4" transform="translate(508.4,152.9) scale(2.25)" xlink:href="#gpPt6"/><use color="#1F78B4" transform="translate(520.1,149.2) scale(2.25)" xlink:href="#gpPt6"/><use color="#1F78B4" transform="translate(531.8,121.7) scale(2.25)" xlink:href="#gpPt6"/><use color="#1F78B4" transform="translate(543.4,226.5) scale(2.25)" xlink:href="#gpPt6"/><use color="#1F78B4" transform="translate(555.1,154.0) scale(2.25)" xlink:href="#gpPt6"/><use color="#1F78B4" transform="translate(566.8,160.8) scale(2.25)" xlink:href="#gpPt6"/><use color="#1F78B4" transform="translate(578.4,510.5) scale(2.25)" xlink:href="#gpPt6"/><use color="#1F78B4" transform="translate(590.1,169.8) scale(2.25)" xlink:href="#gpPt6"/><use color="#1F78B4" transform="translate(601.8,186.9) scale(2.25)" xlink:href="#gpPt6"/><use color="#1F78B4" transform="translate(613.4,155.8) scale(2.25)" xlink:href="#gpPt6"/><use color="#1F78B4" transform="translate(625.1,153.4) scale(2.25)" xlink:href="#gpPt6"/><use color="#1F78B4" transform="translate(636.8,162.9) scale(2.25)" xlink:href="#gpPt6"/><use color="#1F78B4" transform="translate(648.4,164.5) scale(2.25)" xlink:href="#gpPt6"/><use color="#1F78B4" transform="translate(660.1,185.5) scale(2.25)" xlink:href="#gpPt6"/><use color="#1F78B4" transform="translate(671.8,171.7) scale(2.25)" xlink:href="#gpPt6"/><use color="#1F78B4" transform="translate(683.4,159.0) scale(2.25)" xlink:href="#gpPt6"/><use color="#1F78B4" transform="translate(695.1,172.1) scale(2.25)" xlink:href="#gpPt6"/><use color="#1F78B4" transform="translate(706.7,164.2) scale(2.25)" xlink:href="#gpPt6"/><use color="#1F78B4" transform="translate(718.4,177.8) scale(2.25)" xlink:href="#gpPt6"/><use color="#1F78B4" transform="translate(730.1,164.5) scale(2.25)" xlink:href="#gpPt6"/><use color="#1F78B4" transform="translate(741.7,148.2) scale(2.25)" xlink:href="#gpPt6"/><use color="#1F78B4" transform="translate(753.4,182.7) scale(2.25)" xlink:href="#gpPt6"/><use color="#1F78B4" transform="translate(765.1,148.3) scale(2.25)" xlink:href="#gpPt6"/><use color="#1F78B4" transform="translate(776.7,175.1) scale(2.25)" xlink:href="#gpPt6"/><use color="#1F78B4" transform="translate(788.4,168.7) scale(2.25)" xlink:href="#gpPt6"/><use color="#1F78B4" transform="translate(800.1,334.5) scale(2.25)" xlink:href="#gpPt6"/><use color="#1F78B4" transform="translate(811.7,167.7) scale(2.25)" xlink:href="#gpPt6"/><use color="#1F78B4" transform="translate(823.4,177.2) scale(2.25)" xlink:href="#gpPt6"/><use color="#1F78B4" transform="translate(835.1,158.7) scale(2.25)" xlink:href="#gpPt6"/><use color="#1F78B4" transform="translate(846.7,172.1) scale(2.25)" xlink:href="#gpPt6"/><use color="#1F78B4" transform="translate(858.4,159.1) scale(2.25)" xlink:href="#gpPt6"/><use color="#1F78B4" transform="translate(870.1,179.4) scale(2.25)" xlink:href="#gpPt6"/><use color="#1F78B4" transform="translate(881.7,179.7) scale(2.25)" xlink:href="#gpPt6"/><use color="#1F78B4" transform="translate(893.4,155.8) scale(2.25)" xlink:href="#gpPt6"/><use color="#1F78B4" transform="translate(905.1,147.1) scale(2.25)" xlink:href="#gpPt6"/><use color="#1F78B4" transform="translate(916.7,175.8) scale(2.25)" xlink:href="#gpPt6"/><use color="#1F78B4" transform="translate(928.4,140.8) scale(2.25)" xlink:href="#gpPt6"/><use color="#1F78B4" transform="translate(940.0,167.7) scale(2.25)" xlink:href="#gpPt6"/><use color="#1F78B4" transform="translate(951.7,174.7) scale(2.25)" xlink:href="#gpPt6"/><use color="#1F78B4" transform="translate(963.4,159.4) scale(2.25)" xlink:href="#gpPt6"/><use color="#1F78B4" transform="translate(975.0,158.5) scale(2.25)" xlink:href="#gpPt6"/><use color="#1F78B4" transform="translate(986.7,184.8) scale(2.25)" xlink:href="#gpPt6"/><use color="#1F78B4" transform="translate(998.4,162.7) scale(2.25)" xlink:href="#gpPt6"/><use color="#1F78B4" transform="translate(1010.0,175.1) scale(2.25)" xlink:href="#gpPt6"/><use color="#1F78B4" transform="translate(1021.7,168.3) scale(2.25)" xlink:href="#gpPt6"/><use color="#1F78B4" transform="translate(1033.4,239.1) scale(2.25)" xlink:href="#gpPt6"/><use color="#1F78B4" transform="translate(1045.0,165.9) scale(2.25)" xlink:href="#gpPt6"/><use color="#1F78B4" transform="translate(1056.7,605.7) scale(2.25)" xlink:href="#gpPt6"/><use color="#1F78B4" transform="translate(1068.4,144.1) scale(2.25)" xlink:href="#gpPt6"/><use color="#1F78B4" transform="translate(1080.0,148.1) scale(2.25)" xlink:href="#gpPt6"/><use color="#1F78B4" transform="translate(1091.7,190.4) scale(2.25)" xlink:href="#gpPt6"/><use color="#1F78B4" transform="translate(1103.4,157.3) scale(2.25)" xlink:href="#gpPt6"/><use color="#1F78B4" transform="translate(1115.0,155.5) scale(2.25)" xlink:href="#gpPt6"/><use color="#1F78B4" transform="translate(1126.7,149.4) scale(2.25)" xlink:href="#gpPt6"/><use color="#1F78B4" transform="translate(1138.4,165.8) scale(2.25)" xlink:href="#gpPt6"/><use color="#1F78B4" transform="translate(1150.0,152.6) scale(2.25)" xlink:href="#gpPt6"/><use color="#1F78B4" transform="translate(1161.7,180.8) scale(2.25)" xlink:href="#gpPt6"/><use color="#1F78B4" transform="translate(1173.3,153.9) scale(2.25)" xlink:href="#gpPt6"/><use color="#1F78B4" transform="translate(1185.0,165.8) scale(2.25)" xlink:href="#gpPt6"/><use color="#1F78B4" transform="translate(1196.7,191.3) scale(2.25)" xlink:href="#gpPt6"/><use color="#1F78B4" transform="translate(1208.3,147.6) scale(2.25)" xlink:href="#gpPt6"/><use color="#1F78B4" transform="translate(1220.0,289.7) scale(2.25)" xlink:href="#gpPt6"/><use color="#1F78B4" transform="translate(1231.7,144.1) scale(2.25)" xlink:href="#gpPt6"/><use color="#1F78B4" transform="translate(1243.3,364.3) scale(2.25)" xlink:href="#gpPt6"/><use color="#1F78B4" transform="translate(1255.0,180.4) scale(2.25)" xlink:href="#gpPt6"/></g></g><g fill="none" stroke="currentColor" stroke-linecap="butt" stroke-linejoin="miter" stroke-width="1" color="#000"><path stroke="#000" d="M88.5,54.1 L88.5,662.4 L1255.0,662.4 L1255.0,54.1 L88.5,54.1 Z"/></g></g></svg>