<svg xmlns="http://www.w3.org/2000/svg" xmlns:xlink="http://www.w3.org/1999/xlink" viewBox="0 0 1280 720"><title>Gnuplot</title><desc>Produced by GNUPLOT 5.0 patchlevel 3</desc><g id="gnuplot_canvas"><rect width="1280" height="720" x="0" y="0" fill="none"/><defs><circle id="gpDot" r=".5" stroke-width=".5"/><path id="gpPt0" stroke="currentColor" stroke-width=".222" d="M-1,0 h2 M0,-1 v2"/><path id="gpPt1" stroke="currentColor" stroke-width=".222" d="M-1,-1 L1,1 M1,-1 L-1,1"/><path id="gpPt2" stroke="currentColor" stroke-width=".222" d="M-1,0 L1,0 M0,-1 L0,1 M-1,-1 L1,1 M-1,1 L1,-1"/><rect id="gpPt3" width="2" height="2" x="-1" y="-1" stroke="currentColor" stroke-width=".222"/><rect id="gpPt4" width="2" height="2" x="-1" y="-1" fill="currentColor" stroke="currentColor" stroke-width=".222"/><circle id="gpPt5" cx="0" cy="0" r="1" stroke="currentColor" stroke-width=".222"/><use id="gpPt6" fill="currentColor" stroke="none" xlink:href="#gpPt5"/><path id="gpPt7" stroke="currentColor" stroke-width=".222" d="M0,-1.33 L-1.33,0.67 L1.33,0.67 z"/><use id="gpPt8" fill="currentColor" stroke="none" xlink:href="#gpPt7"/><use id="gpPt9" stroke="currentColor" transform="rotate(180)" xlink:href="#gpPt7"/><use id="gpPt10" fill="currentColor" stroke="none" xlink:href="#gpPt9"/><use id="gpPt11" stroke="currentColor" transform="rotate(45)" xlink:href="#gpPt3"/><use id="gpPt12" fill="currentColor" stroke="none" xlink:href="#gpPt11"/><path id="gpPt13" stroke="currentColor" stroke-width=".222" d="M0,1.330 L1.265,0.411 L0.782,-1.067 L-0.782,-1.076 L-1.265,0.411 z"/><use id="gpPt14" fill="currentColor" stroke="none" xlink:href="#gpPt13"/><filter id="textbox" width="1" height="1" x="0" y="0" filterUnits="objectBoundingBox"><feFlood flood-color="#fff" flood-opacity="1" result="bgnd"/><feComposite in="SourceGraphic" in2="bgnd" operator="atop"/></filter><filter id="greybox" width="1" height="1" x="0" y="0" filterUnits="objectBoundingBox"><feFlood flood-color="#d3d3d3" flood-opacity="1" result="grey"/><feComposite in="SourceGraphic" in2="grey" operator="atop"/></filter></defs><g fill="none" stroke="currentColor" stroke-linecap="butt" stroke-linejoin="miter" stroke-width=".5" color="gray"><path stroke="gray" stroke-dasharray="2 4" d="M71.9,662.4 L1255.0,662.4" class="gridline"/></g><g fill="none" stroke="currentColor" stroke-linecap="butt" stroke-linejoin="miter" stroke-width="1" color="#000"><path stroke="#000" d="M71.9,662.4 L80.9,662.4"/><g fill="#000" stroke="none" font-family="Helvetica" font-size="12" text-anchor="end"><text transform="translate(63.6,666.9)"><tspan font-family="Helvetica">0</tspan></text></g></g><g fill="none" stroke="currentColor" stroke-linecap="butt" stroke-linejoin="miter" stroke-width=".5" color="gray"><path stroke="gray" stroke-dasharray="2 4" d="M71.9,561.0 L1255.0,561.0" class="gridline"/></g><g fill="none" stroke="currentColor" stroke-linecap="butt" stroke-linejoin="miter" stroke-width="1" color="#000"><path stroke="#000" d="M71.9,561.0 L80.9,561.0"/><g fill="#000" stroke="none" font-family="Helvetica" font-size="12" text-anchor="end"><text transform="translate(63.6,565.5)"><tspan font-family="Helvetica">100</tspan></text></g></g><g fill="none" stroke="currentColor" stroke-linecap="butt" stroke-linejoin="miter" stroke-width=".5" color="gray"><path stroke="gray" stroke-dasharray="2 4" d="M71.9,459.6 L1255.0,459.6" class="gridline"/></g><g fill="none" stroke="currentColor" stroke-linecap="butt" stroke-linejoin="miter" stroke-width="1" color="#000"><path stroke="#000" d="M71.9,459.6 L80.9,459.6"/><g fill="#000" stroke="none" font-family="Helvetica" font-size="12" text-anchor="end"><text transform="translate(63.6,464.1)"><tspan font-family="Helvetica">200</tspan></text></g></g><g fill="none" stroke="currentColor" stroke-linecap="butt" stroke-linejoin="miter" stroke-width=".5" color="gray"><path stroke="gray" stroke-dasharray="2 4" d="M71.9,358.2 L1255.0,358.2" class="gridline"/></g><g fill="none" stroke="currentColor" stroke-linecap="butt" stroke-linejoin="miter" stroke-width="1" color="#000"><path stroke="#000" d="M71.9,358.2 L80.9,358.2"/><g fill="#000" stroke="none" font-family="Helvetica" font-size="12" text-anchor="end"><text transform="translate(63.6,362.7)"><tspan font-family="Helvetica">300</tspan></text></g></g><g fill="none" stroke="currentColor" stroke-linecap="butt" stroke-linejoin="miter" stroke-width=".5" color="gray"><path stroke="gray" stroke-dasharray="2 4" d="M71.9,256.9 L1255.0,256.9" class="gridline"/></g><g fill="none" stroke="currentColor" stroke-linecap="butt" stroke-linejoin="miter" stroke-width="1" color="#000"><path stroke="#000" d="M71.9,256.9 L80.9,256.9"/><g fill="#000" stroke="none" font-family="Helvetica" font-size="12" text-anchor="end"><text transform="translate(63.6,261.4)"><tspan font-family="Helvetica">400</tspan></text></g></g><g fill="none" stroke="currentColor" stroke-linecap="butt" stroke-linejoin="miter" stroke-width=".5" color="gray"><path stroke="gray" stroke-dasharray="2 4" d="M71.9,155.5 L1255.0,155.5" class="gridline"/></g><g fill="none" stroke="currentColor" stroke-linecap="butt" stroke-linejoin="miter" stroke-width="1" color="#000"><path stroke="#000" d="M71.9,155.5 L80.9,155.5"/><g fill="#000" stroke="none" font-family="Helvetica" font-size="12" text-anchor="end"><text transform="translate(63.6,160.0)"><tspan font-family="Helvetica">500</tspan></text></g></g><g fill="none" stroke="currentColor" stroke-linecap="butt" stroke-linejoin="miter" stroke-width=".5" color="gray"><path stroke="gray" stroke-dasharray="2 4" d="M71.9,54.1 L1255.0,54.1" class="gridline"/></g><g fill="none" stroke="currentColor" stroke-linecap="butt" stroke-linejoin="miter" stroke-width="1" color="#000"><path stroke="#000" d="M71.9,54.1 L80.9,54.1"/><g fill="#000" stroke="none" font-family="Helvetica" font-size="12" text-anchor="end"><text transform="translate(63.6,58.6)"><tspan font-family="Helvetica">600</tspan></text></g></g><g fill="none" stroke="currentColor" stroke-linecap="butt" stroke-linejoin="miter" stroke-width=".5" color="gray"><path stroke="gray" stroke-dasharray="2 4" d="M71.9,662.4 L71.9,54.1" class="gridline"/></g><g fill="none" stroke="currentColor" stroke-linecap="butt" stroke-linejoin="miter" stroke-width="1" color="#000"><path stroke="#000" d="M71.9,662.4 L71.9,653.4"/><g fill="#000" stroke="none" font-family="Helvetica" font-size="12" text-anchor="middle"><text transform="translate(71.9,684.9)"><tspan font-family="Helvetica">0</tspan></text></g></g><g fill="none" stroke="currentColor" stroke-linecap="butt" stroke-linejoin="miter" stroke-width=".5" color="gray"><path stroke="gray" stroke-dasharray="2 4" d="M190.2,662.4 L190.2,117.1 M190.2,63.1 L190.2,54.1" class="gridline"/></g><g fill="none" stroke="currentColor" stroke-linecap="butt" stroke-linejoin="miter" stroke-width="1" color="#000"><path stroke="#000" d="M190.2,662.4 L190.2,653.4"/><g fill="#000" stroke="none" font-family="Helvetica" font-size="12" text-anchor="middle"><text transform="translate(190.2,684.9)"><tspan font-family="Helvetica">10</tspan></text></g></g><g fill="none" stroke="currentColor" stroke-linecap="butt" stroke-linejoin="miter" stroke-width=".5" color="gray"><path stroke="gray" stroke-dasharray="2 4" d="M308.5,662.4 L308.5,54.1" class="gridline"/></g><g fill="none" stroke="currentColor" stroke-linecap="butt" stroke-linejoin="miter" stroke-width="1" color="#000"><path stroke="#000" d="M308.5,662.4 L308.5,653.4"/><g fill="#000" stroke="none" font-family="Helvetica" font-size="12" text-anchor="middle"><text transform="translate(308.5,684.9)"><tspan font-family="Helvetica">20</tspan></text></g></g><g fill="none" stroke="currentColor" stroke-linecap="butt" stroke-linejoin="miter" stroke-width=".5" color="gray"><path stroke="gray" stroke-dasharray="2 4" d="M426.8,662.4 L426.8,54.1" class="gridline"/></g><g fill="none" stroke="currentColor" stroke-linecap="butt" stroke-linejoin="miter" stroke-width="1" color="#000"><path stroke="#000" d="M426.8,662.4 L426.8,653.4"/><g fill="#000" stroke="none" font-family="Helvetica" font-size="12" text-anchor="middle"><text transform="translate(426.8,684.9)"><tspan font-family="Helvetica">30</tspan></text></g></g><g fill="none" stroke="currentColor" stroke-linecap="butt" stroke-linejoin="miter" stroke-width=".5" color="gray"><path stroke="gray" stroke-dasharray="2 4" d="M545.1,662.4 L545.1,54.1" class="gridline"/></g><g fill="none" stroke="currentColor" stroke-linecap="butt" stroke-linejoin="miter" stroke-width="1" color="#000"><path stroke="#000" d="M545.1,662.4 L545.1,653.4"/><g fill="#000" stroke="none" font-family="Helvetica" font-size="12" text-anchor="middle"><text transform="translate(545.1,684.9)"><tspan font-family="Helvetica">40</tspan></text></g></g><g fill="none" stroke="currentColor" stroke-linecap="butt" stroke-linejoin="miter" stroke-width=".5" color="gray"><path stroke="gray" stroke-dasharray="2 4" d="M663.5,662.4 L663.5,54.1" class="gridline"/></g><g fill="none" stroke="currentColor" stroke-linecap="butt" stroke-linejoin="miter" stroke-width="1" color="#000"><path stroke="#000" d="M663.5,662.4 L663.5,653.4"/><g fill="#000" stroke="none" font-family="Helvetica" font-size="12" text-anchor="middle"><text transform="translate(663.5,684.9)"><tspan font-family="Helvetica">50</tspan></text></g></g><g fill="none" stroke="currentColor" stroke-linecap="butt" stroke-linejoin="miter" stroke-width=".5" color="gray"><path stroke="gray" stroke-dasharray="2 4" d="M781.8,662.4 L781.8,54.1" class="gridline"/></g><g fill="none" stroke="currentColor" stroke-linecap="butt" stroke-linejoin="miter" stroke-width="1" color="#000"><path stroke="#000" d="M781.8,662.4 L781.8,653.4"/><g fill="#000" stroke="none" font-family="Helvetica" font-size="12" text-anchor="middle"><text transform="translate(781.8,684.9)"><tspan font-family="Helvetica">60</tspan></text></g></g><g fill="none" stroke="currentColor" stroke-linecap="butt" stroke-linejoin="miter" stroke-width=".5" color="gray"><path stroke="gray" stroke-dasharray="2 4" d="M900.1,662.4 L900.1,54.1" class="gridline"/></g><g fill="none" stroke="currentColor" stroke-linecap="butt" stroke-linejoin="miter" stroke-width="1" color="#000"><path stroke="#000" d="M900.1,662.4 L900.1,653.4"/><g fill="#000" stroke="none" font-family="Helvetica" font-size="12" text-anchor="middle"><text transform="translate(900.1,684.9)"><tspan font-family="Helvetica">70</tspan></text></g></g><g fill="none" stroke="currentColor" stroke-linecap="butt" stroke-linejoin="miter" stroke-width=".5" color="gray"><path stroke="gray" stroke-dasharray="2 4" d="M1018.4,662.4 L1018.4,54.1" class="gridline"/></g><g fill="none" stroke="currentColor" stroke-linecap="butt" stroke-linejoin="miter" stroke-width="1" color="#000"><path stroke="#000" d="M1018.4,662.4 L1018.4,653.4"/><g fill="#000" stroke="none" font-family="Helvetica" font-size="12" text-anchor="middle"><text transform="translate(1018.4,684.9)"><tspan font-family="Helvetica">80</tspan></text></g></g><g fill="none" stroke="currentColor" stroke-linecap="butt" stroke-linejoin="miter" stroke-width=".5" color="gray"><path stroke="gray" stroke-dasharray="2 4" d="M1136.7,662.4 L1136.7,54.1" class="gridline"/></g><g fill="none" stroke="currentColor" stroke-linecap="butt" stroke-linejoin="miter" stroke-width="1" color="#000"><path stroke="#000" d="M1136.7,662.4 L1136.7,653.4"/><g fill="#000" stroke="none" font-family="Helvetica" font-size="12" text-anchor="middle"><text transform="translate(1136.7,684.9)"><tspan font-family="Helvetica">90</tspan></text></g></g><g fill="none" stroke="currentColor" stroke-linecap="butt" stroke-linejoin="miter" stroke-width=".5" color="gray"><path stroke="gray" stroke-dasharray="2 4" d="M1255.0,662.4 L1255.0,54.1" class="gridline"/></g><g fill="none" stroke="currentColor" stroke-linecap="butt" stroke-linejoin="miter" stroke-width="1" color="#000"><path stroke="#000" d="M1255.0,662.4 L1255.0,653.4"/><g fill="#000" stroke="none" font-family="Helvetica" font-size="12" text-anchor="middle"><text transform="translate(1255.0,684.9)"><tspan font-family="Helvetica">100</tspan></text></g></g><g fill="none" stroke="currentColor" stroke-linecap="butt" stroke-linejoin="miter" stroke-width="1" color="#000"><path stroke="#000" d="M71.9,54.1 L71.9,662.4 L1255.0,662.4 L1255.0,54.1 L71.9,54.1 Z"/></g><g fill="none" stroke="currentColor" stroke-linecap="butt" stroke-linejoin="miter" stroke-width="1" color="#000"><g fill="#000" stroke="none" font-family="Helvetica" font-size="12" text-anchor="middle"><text transform="translate(17.6,358.3) rotate(270)"><tspan font-family="Helvetica">Total time (ms)</tspan></text></g></g><g fill="none" stroke="currentColor" stroke-linecap="butt" stroke-linejoin="miter" stroke-width="1" color="#000"><g fill="#000" stroke="none" font-family="Helvetica" font-size="12" text-anchor="middle"><text transform="translate(663.4,711.9)"><tspan font-family="Helvetica">Iterations</tspan></text></g></g><g fill="none" stroke="currentColor" stroke-linecap="butt" stroke-linejoin="miter" stroke-width="1" color="#000"><g fill="#000" stroke="none" font-family="Helvetica" font-size="12" text-anchor="middle"><text transform="translate(663.4,31.6)"><tspan font-family="Helvetica">alloc</tspan></text></g></g><g id="gnuplot_plot_1"><title>Sample</title><g fill="none" stroke="currentColor" stroke-linecap="butt" stroke-linejoin="miter" stroke-width="1" color="#000"><g fill="#000" stroke="none" font-family="Helvetica" font-size="12" text-anchor="start"><text transform="translate(139.0,76.6)"><tspan font-family="Helvetica">Sample</tspan></text></g></g><g fill="none" stroke="currentColor" stroke-linecap="butt" stroke-linejoin="miter" stroke-width="1" color="#000"><use color="#1F78B4" transform="translate(83.7,651.3) scale(2.25)" xlink:href="#gpPt6"/><use color="#1F78B4" transform="translate(95.6,646.1) scale(2.25)" xlink:href="#gpPt6"/><use color="#1F78B4" transform="translate(107.4,640.5) scale(2.25)" xlink:href="#gpPt6"/><use color="#1F78B4" transform="translate(119.2,632.9) scale(2.25)" xlink:href="#gpPt6"/><use color="#1F78B4" transform="translate(131.1,624.2) scale(2.25)" xlink:href="#gpPt6"/><use color="#1F78B4" transform="translate(142.9,615.9) scale(2.25)" xlink:href="#gpPt6"/><use color="#1F78B4" transform="translate(154.7,609.0) scale(2.25)" xlink:href="#gpPt6"/><use color="#1F78B4" transform="translate(166.5,601.1) scale(2.25)" xlink:href="#gpPt6"/><use color="#1F78B4" transform="translate(178.4,593.7) scale(2.25)" xlink:href="#gpPt6"/><use color="#1F78B4" transform="translate(190.2,586.0) scale(2.25)" xlink:href="#gpPt6"/><use color="#1F78B4" transform="translate(202.0,577.5) scale(2.25)" xlink:href="#gpPt6"/><use color="#1F78B4" transform="translate(213.9,570.1) scale(2.25)" xlink:href="#gpPt6"/><use color="#1F78B4" transform="translate(225.7,562.9) scale(2.25)" xlink:href="#gpPt6"/><use color="#1F78B4" transform="translate(237.5,558.4) scale(2.25)" xlink:href="#gpPt6"/><use color="#1F78B4" transform="translate(249.4,554.0) scale(2.25)" xlink:href="#gpPt6"/><use color="#1F78B4" transform="translate(261.2,545.0) scale(2.25)" xlink:href="#gpPt6"/><use color="#1F78B4" transform="translate(273.0,540.3) scale(2.25)" xlink:href="#gpPt6"/><use color="#1F78B4" transform="translate(284.9,532.5) scale(2.25)" xlink:href="#gpPt6"/><use color="#1F78B4" transform="translate(296.7,525.9) scale(2.25)" xlink:href="#gpPt6"/><use color="#1F78B4" transform="translate(308.5,518.6) scale(2.25)" xlink:href="#gpPt6"/><use color="#1F78B4" transform="translate(320.4,511.3) scale(2.25)" xlink:href="#gpPt6"/><use color="#1F78B4" transform="translate(332.2,510.3) scale(2.25)" xlink:href="#gpPt6"/><use color="#1F78B4" transform="translate(344.0,501.8) scale(2.25)" xlink:href="#gpPt6"/><use color="#1F78B4" transform="translate(355.8,500.6) scale(2.25)" xlink:href="#gpPt6"/><use color="#1F78B4" transform="translate(367.7,493.7) scale(2.25)" xlink:href="#gpPt6"/><use color="#1F78B4" transform="translate(379.5,487.0) scale(2.25)" xlink:href="#gpPt6"/><use color="#1F78B4" transform="translate(391.3,480.4) scale(2.25)" xlink:href="#gpPt6"/><use color="#1F78B4" transform="translate(403.2,480.5) scale(2.25)" xlink:href="#gpPt6"/><use color="#1F78B4" transform="translate(415.0,476.5) scale(2.25)" xlink:href="#gpPt6"/><use color="#1F78B4" transform="translate(426.8,471.3) scale(2.25)" xlink:href="#gpPt6"/><use color="#1F78B4" transform="translate(438.7,464.9) scale(2.25)" xlink:href="#gpPt6"/><use color="#1F78B4" transform="translate(450.5,458.7) scale(2.25)" xlink:href="#gpPt6"/><use color="#1F78B4" transform="translate(462.3,457.4) scale(2.25)" xlink:href="#gpPt6"/><use color="#1F78B4" transform="translate(474.2,456.6) scale(2.25)" xlink:href="#gpPt6"/><use color="#1F78B4" transform="translate(486.0,450.7) scale(2.25)" xlink:href="#gpPt6"/><use color="#1F78B4" transform="translate(497.8,444.7) scale(2.25)" xlink:href="#gpPt6"/><use color="#1F78B4" transform="translate(509.6,438.6) scale(2.25)" xlink:href="#gpPt6"/><use color="#1F78B4" transform="translate(521.5,432.4) scale(2.25)" xlink:href="#gpPt6"/><use color="#1F78B4" transform="translate(533.3,426.4) scale(2.25)" xlink:href="#gpPt6"/><use color="#1F78B4" transform="translate(545.1,420.6) scale(2.25)" xlink:href="#gpPt6"/><use color="#1F78B4" transform="translate(557.0,414.5) scale(2.25)" xlink:href="#gpPt6"/><use color="#1F78B4" transform="translate(568.8,408.3) scale(2.25)" xlink:href="#gpPt6"/><use color="#1F78B4" transform="translate(580.6,402.1) scale(2.25)" xlink:href="#gpPt6"/><use color="#1F78B4" transform="translate(592.5,395.9) scale(2.25)" xlink:href="#gpPt6"/><use color="#1F78B4" transform="translate(604.3,389.7) scale(2.25)" xlink:href="#gpPt6"/><use color="#1F78B4" transform="translate(616.1,383.4) scale(2.25)" xlink:href="#gpPt6"/><use color="#1F78B4" transform="translate(628.0,378.2) scale(2.25)" xlink:href="#gpPt6"/><use color="#1F78B4" transform="translate(639.8,372.2) scale(2.25)" xlink:href="#gpPt6"/><use color="#1F78B4" transform="translate(651.6,366.0) scale(2.25)" xlink:href="#gpPt6"/><use color="#1F78B4" transform="translate(663.5,359.9) scale(2.25)" xlink:href="#gpPt6"/><use color="#1F78B4" transform="translate(675.3,354.2) scale(2.25)" xlink:href="#gpPt6"/><use color="#1F78B4" transform="translate(687.1,347.8) scale(2.25)" xlink:href="#gpPt6"/><use color="#1F78B4" transform="translate(698.9,341.9) scale(2.25)" xlink:href="#gpPt6"/><use color="#1F78B4" transform="translate(710.8,332.8) scale(2.25)" xlink:href="#gpPt6"/><use color="#1F78B4" transform="translate(722.6,329.9) scale(2.25)" xlink:href="#gpPt6"/><use color="#1F78B4" transform="translate(734.4,320.6) scale(2.25)" xlink:href="#gpPt6"/><use color="#1F78B4" transform="translate(746.3,317.6) scale(2.25)" xlink:href="#gpPt6"/><use color="#1F78B4" transform="translate(758.1,310.8) scale(2.25)" xlink:href="#gpPt6"/><use color="#1F78B4" transform="translate(769.9,306.1) scale(2.25)" xlink:href="#gpPt6"/><use color="#1F78B4" transform="translate(781.8,299.6) scale(2.25)" xlink:href="#gpPt6"/><use color="#1F78B4" transform="translate(793.6,293.5) scale(2.25)" xlink:href="#gpPt6"/><use color="#1F78B4" transform="translate(805.4,287.8) scale(2.25)" xlink:href="#gpPt6"/><use color="#1F78B4" transform="translate(817.3,281.1) scale(2.25)" xlink:href="#gpPt6"/><use color="#1F78B4" transform="translate(829.1,273.9) scale(2.25)" xlink:href="#gpPt6"/><use color="#1F78B4" transform="translate(840.9,269.5) scale(2.25)" xlink:href="#gpPt6"/><use color="#1F78B4" transform="translate(852.7,263.1) scale(2.25)" xlink:href="#gpPt6"/><use color="#1F78B4" transform="translate(864.6,257.3) scale(2.25)" xlink:href="#gpPt6"/><use color="#1F78B4" transform="translate(876.4,251.1) scale(2.25)" xlink:href="#gpPt6"/><use color="#1F78B4" transform="translate(888.2,240.5) scale(2.25)" xlink:href="#gpPt6"/><use color="#1F78B4" transform="translate(900.1,239.3) scale(2.25)" xlink:href="#gpPt6"/><use color="#1F78B4" transform="translate(911.9,232.8) scale(2.25)" xlink:href="#gpPt6"/><use color="#1F78B4" transform="translate(923.7,220.5) scale(2.25)" xlink:href="#gpPt6"/><use color="#1F78B4" transform="translate(935.6,219.5) scale(2.25)" xlink:href="#gpPt6"/><use color="#1F78B4" transform="translate(947.4,212.4) scale(2.25)" xlink:href="#gpPt6"/><use color="#1F78B4" transform="translate(959.2,204.4) scale(2.25)" xlink:href="#gpPt6"/><use color="#1F78B4" transform="translate(971.1,199.9) scale(2.25)" xlink:href="#gpPt6"/><use color="#1F78B4" transform="translate(982.9,196.5) scale(2.25)" xlink:href="#gpPt6"/><use color="#1F78B4" transform="translate(994.7,189.6) scale(2.25)" xlink:href="#gpPt6"/><use color="#1F78B4" transform="translate(1006.5,184.5) scale(2.25)" xlink:href="#gpPt6"/><use color="#1F78B4" transform="translate(1018.4,177.7) scale(2.25)" xlink:href="#gpPt6"/><use color="#1F78B4" transform="translate(1030.2,171.0) scale(2.25)" xlink:href="#gpPt6"/><use color="#1F78B4" transform="translate(1042.0,166.7) scale(2.25)" xlink:href="#gpPt6"/><use color="#1F78B4" transform="translate(1053.9,160.6) scale(2.25)" xlink:href="#gpPt6"/><use color="#1F78B4" transform="translate(1065.7,152.9) scale(2.25)" xlink:href="#gpPt6"/><use color="#1F78B4" transform="translate(1077.5,148.6) scale(2.25)" xlink:href="#gpPt6"/><use color="#1F78B4" transform="translate(1089.4,142.5) scale(2.25)" xlink:href="#gpPt6"/><use color="#1F78B4" transform="translate(1101.2,136.6) scale(2.25)" xlink:href="#gpPt6"/><use color="#1F78B4" transform="translate(1113.0,128.3) scale(2.25)" xlink:href="#gpPt6"/><use color="#1F78B4" transform="translate(1124.9,119.6) scale(2.25)" xlink:href="#gpPt6"/><use color="#1F78B4" transform="translate(1136.7,115.8) scale(2.25)" xlink:href="#gpPt6"/><use color="#1F78B4" transform="translate(1148.5,113.0) scale(2.25)" xlink:href="#gpPt6"/><use color="#1F78B4" transform="translate(1160.4,104.9) scale(2.25)" xlink:href="#gpPt6"/><use color="#1F78B4" transform="translate(1172.2,93.6) scale(2.25)" xlink:href="#gpPt6"/><use color="#1F78B4" transform="translate(1184.0,92.6) scale(2.25)" xlink:href="#gpPt6"/><use color="#1F78B4" transform="translate(1195.8,85.6) scale(2.25)" xlink:href="#gpPt6"/><use color="#1F78B4" transform="translate(1207.7,82.2) scale(2.25)" xlink:href="#gpPt6"/><use color="#1F78B4" transform="translate(1219.5,75.2) scale(2.25)" xlink:href="#gpPt6"/><use color="#1F78B4" transform="translate(1231.3,70.2) scale(2.25)" xlink:href="#gpPt6"/><use color="#1F78B4" transform="translate(1243.2,63.8) scale(2.25)" xlink:href="#gpPt6"/><use color="#1F78B4" transform="translate(109.6,72.1) scale(2.25)" xlink:href="#gpPt6"/></g></g><g id="gnuplot_plot_2"><title>Linear regression</title><g fill="none" stroke="currentColor" stroke-linecap="butt" stroke-linejoin="miter" stroke-width="2" color="#000"><g fill="#000" stroke="none" font-family="Helvetica" font-size="12" text-anchor="start"><text transform="translate(139.0,94.6)"><tspan font-family="Helvetica">Linear regression</tspan></text></g></g><g fill="none" stroke="currentColor" stroke-linecap="butt" stroke-linejoin="miter" stroke-width="2" color="#000"><path stroke="#1F78B4" d="M88.5,90.1 L130.7,90.1 M71.9,662.4 L1243.2,59.8"/></g></g><g id="gnuplot_plot_3"><title>Confidence interval</title><g fill="none" stroke="currentColor" stroke-linecap="butt" stroke-linejoin="miter" stroke-width="1" color="#000"><g fill="#000" stroke="none" font-family="Helvetica" font-size="12" text-anchor="start"><text transform="translate(139.0,112.6)"><tspan font-family="Helvetica">Confidence interval</tspan></text></g></g><g fill="none" stroke="currentColor" stroke-linecap="butt" stroke-linejoin="miter" stroke-width="1" color="#000"><g stroke="none" shape-rendering="crispEdges"><polygon fill="#1F78B4" fill-opacity=".25" points="88.5 112.6 130.7 112.6 130.7 103.6 88.5 103.6"/><polygon fill="#1F78B4" fill-opacity=".25" points="71.9 662.4 71.9 662.4 1243.2 58.2 1243.2 61"/></g></g></g><g fill="none" stroke="currentColor" stroke-linecap="butt" stroke-linejoin="miter" stroke-width="1" color="#000"><path stroke="#000" d="M71.9,54.1 L71.9,662.4 L1255.0,662.4 L1255.0,54.1 L71.9,54.1 Z"/></g></g></svg>