<svg xmlns="http://www.w3.org/2000/svg" xmlns:xlink="http://www.w3.org/1999/xlink" viewBox="0 0 450 300"><title>Gnuplot</title><desc>Produced by GNUPLOT 5.2 patchlevel 2</desc><g id="gnuplot_canvas"><rect width="450" height="300" x="0" y="0" fill="none"/><defs><circle id="gpDot" r=".5" stroke-width=".5"/><path id="gpPt0" stroke="currentColor" stroke-width=".222" d="M-1,0 h2 M0,-1 v2"/><path id="gpPt1" stroke="currentColor" stroke-width=".222" d="M-1,-1 L1,1 M1,-1 L-1,1"/><path id="gpPt2" stroke="currentColor" stroke-width=".222" d="M-1,0 L1,0 M0,-1 L0,1 M-1,-1 L1,1 M-1,1 L1,-1"/><rect id="gpPt3" width="2" height="2" x="-1" y="-1" stroke="currentColor" stroke-width=".222"/><rect id="gpPt4" width="2" height="2" x="-1" y="-1" fill="currentColor" stroke="currentColor" stroke-width=".222"/><circle id="gpPt5" cx="0" cy="0" r="1" stroke="currentColor" stroke-width=".222"/><use id="gpPt6" fill="currentColor" stroke="none" xlink:href="#gpPt5"/><path id="gpPt7" stroke="currentColor" stroke-width=".222" d="M0,-1.33 L-1.33,0.67 L1.33,0.67 z"/><use id="gpPt8" fill="currentColor" stroke="none" xlink:href="#gpPt7"/><use id="gpPt9" stroke="currentColor" transform="rotate(180)" xlink:href="#gpPt7"/><use id="gpPt10" fill="currentColor" stroke="none" xlink:href="#gpPt9"/><use id="gpPt11" stroke="currentColor" transform="rotate(45)" xlink:href="#gpPt3"/><use id="gpPt12" fill="currentColor" stroke="none" xlink:href="#gpPt11"/><path id="gpPt13" stroke="currentColor" stroke-width=".222" d="M0,1.330 L1.265,0.411 L0.782,-1.067 L-0.782,-1.076 L-1.265,0.411 z"/><use id="gpPt14" fill="currentColor" stroke="none" xlink:href="#gpPt13"/><filter id="textbox" width="1" height="1" x="0" y="0" filterUnits="objectBoundingBox"><feFlood flood-color="#fff" flood-opacity="1" result="bgnd"/><feComposite in="SourceGraphic" in2="bgnd" operator="atop"/></filter><filter id="greybox" width="1" height="1" x="0" y="0" filterUnits="objectBoundingBox"><feFlood flood-color="#d3d3d3" flood-opacity="1" result="grey"/><feComposite in="SourceGraphic" in2="grey" operator="atop"/></filter></defs><g fill="none" stroke="currentColor" stroke-linecap="butt" stroke-linejoin="miter" stroke-width=".5" color="gray"><path stroke="gray" stroke-dasharray="2 4" d="M71.9,224.4 L425.0,224.4" class="gridline"/></g><g fill="none" stroke="currentColor" stroke-linecap="butt" stroke-linejoin="miter" stroke-width="1" color="#000"><path stroke="#000" d="M71.9,224.4 L80.9,224.4"/><g fill="#000" stroke="none" font-family="Helvetica" font-size="12" text-anchor="end"><text transform="translate(63.6,228.3)"><tspan font-family="Helvetica">0</tspan></text></g></g><g fill="none" stroke="currentColor" stroke-linecap="butt" stroke-linejoin="miter" stroke-width=".5" color="gray"><path stroke="gray" stroke-dasharray="2 4" d="M71.9,190.0 L425.0,190.0" class="gridline"/></g><g fill="none" stroke="currentColor" stroke-linecap="butt" stroke-linejoin="miter" stroke-width="1" color="#000"><path stroke="#000" d="M71.9,190.0 L80.9,190.0"/><g fill="#000" stroke="none" font-family="Helvetica" font-size="12" text-anchor="end"><text transform="translate(63.6,193.9)"><tspan font-family="Helvetica">20</tspan></text></g></g><g fill="none" stroke="currentColor" stroke-linecap="butt" stroke-linejoin="miter" stroke-width=".5" color="gray"><path stroke="gray" stroke-dasharray="2 4" d="M71.9,155.6 L425.0,155.6" class="gridline"/></g><g fill="none" stroke="currentColor" stroke-linecap="butt" stroke-linejoin="miter" stroke-width="1" color="#000"><path stroke="#000" d="M71.9,155.6 L80.9,155.6"/><g fill="#000" stroke="none" font-family="Helvetica" font-size="12" text-anchor="end"><text transform="translate(63.6,159.5)"><tspan font-family="Helvetica">40</tspan></text></g></g><g fill="none" stroke="currentColor" stroke-linecap="butt" stroke-linejoin="miter" stroke-width=".5" color="gray"><path stroke="gray" stroke-dasharray="2 4" d="M71.9,121.2 L425.0,121.2" class="gridline"/></g><g fill="none" stroke="currentColor" stroke-linecap="butt" stroke-linejoin="miter" stroke-width="1" color="#000"><path stroke="#000" d="M71.9,121.2 L80.9,121.2"/><g fill="#000" stroke="none" font-family="Helvetica" font-size="12" text-anchor="end"><text transform="translate(63.6,125.1)"><tspan font-family="Helvetica">60</tspan></text></g></g><g fill="none" stroke="currentColor" stroke-linecap="butt" stroke-linejoin="miter" stroke-width=".5" color="gray"><path stroke="gray" stroke-dasharray="2 4" d="M71.9,86.9 L425.0,86.9" class="gridline"/></g><g fill="none" stroke="currentColor" stroke-linecap="butt" stroke-linejoin="miter" stroke-width="1" color="#000"><path stroke="#000" d="M71.9,86.9 L80.9,86.9"/><g fill="#000" stroke="none" font-family="Helvetica" font-size="12" text-anchor="end"><text transform="translate(63.6,90.8)"><tspan font-family="Helvetica">80</tspan></text></g></g><g fill="none" stroke="currentColor" stroke-linecap="butt" stroke-linejoin="miter" stroke-width=".5" color="gray"><path stroke="gray" stroke-dasharray="2 4" d="M71.9,52.5 L425.0,52.5" class="gridline"/></g><g fill="none" stroke="currentColor" stroke-linecap="butt" stroke-linejoin="miter" stroke-width="1" color="#000"><path stroke="#000" d="M71.9,52.5 L80.9,52.5"/><g fill="#000" stroke="none" font-family="Helvetica" font-size="12" text-anchor="end"><text transform="translate(63.6,56.4)"><tspan font-family="Helvetica">100</tspan></text></g></g><g fill="none" stroke="currentColor" stroke-linecap="butt" stroke-linejoin="miter" stroke-width=".5" color="gray"><path stroke="gray" stroke-dasharray="2 4" d="M71.9,18.1 L425.0,18.1" class="gridline"/></g><g fill="none" stroke="currentColor" stroke-linecap="butt" stroke-linejoin="miter" stroke-width="1" color="#000"><path stroke="#000" d="M71.9,18.1 L80.9,18.1"/><g fill="#000" stroke="none" font-family="Helvetica" font-size="12" text-anchor="end"><text transform="translate(63.6,22.0)"><tspan font-family="Helvetica">120</tspan></text></g></g><g fill="none" stroke="currentColor" stroke-linecap="butt" stroke-linejoin="miter" stroke-width=".5" color="gray"><path stroke="gray" stroke-dasharray="2 4" d="M71.9,224.4 L71.9,18.1" class="gridline"/></g><g fill="none" stroke="currentColor" stroke-linecap="butt" stroke-linejoin="miter" stroke-width="1" color="#000"><path stroke="#000" d="M71.9,224.4 L71.9,215.4"/><g fill="#000" stroke="none" font-family="Helvetica" font-size="12" text-anchor="middle"><text transform="translate(71.9,246.3)"><tspan font-family="Helvetica">0</tspan></text></g></g><g fill="none" stroke="currentColor" stroke-linecap="butt" stroke-linejoin="miter" stroke-width=".5" color="gray"><path stroke="gray" stroke-dasharray="2 4" d="M130.8,224.4 L130.8,18.1" class="gridline"/></g><g fill="none" stroke="currentColor" stroke-linecap="butt" stroke-linejoin="miter" stroke-width="1" color="#000"><path stroke="#000" d="M130.8,224.4 L130.8,215.4"/><g fill="#000" stroke="none" font-family="Helvetica" font-size="12" text-anchor="middle"><text transform="translate(130.8,246.3)"><tspan font-family="Helvetica">1</tspan></text></g></g><g fill="none" stroke="currentColor" stroke-linecap="butt" stroke-linejoin="miter" stroke-width=".5" color="gray"><path stroke="gray" stroke-dasharray="2 4" d="M189.6,224.4 L189.6,18.1" class="gridline"/></g><g fill="none" stroke="currentColor" stroke-linecap="butt" stroke-linejoin="miter" stroke-width="1" color="#000"><path stroke="#000" d="M189.6,224.4 L189.6,215.4"/><g fill="#000" stroke="none" font-family="Helvetica" font-size="12" text-anchor="middle"><text transform="translate(189.6,246.3)"><tspan font-family="Helvetica">2</tspan></text></g></g><g fill="none" stroke="currentColor" stroke-linecap="butt" stroke-linejoin="miter" stroke-width=".5" color="gray"><path stroke="gray" stroke-dasharray="2 4" d="M248.5,224.4 L248.5,18.1" class="gridline"/></g><g fill="none" stroke="currentColor" stroke-linecap="butt" stroke-linejoin="miter" stroke-width="1" color="#000"><path stroke="#000" d="M248.5,224.4 L248.5,215.4"/><g fill="#000" stroke="none" font-family="Helvetica" font-size="12" text-anchor="middle"><text transform="translate(248.5,246.3)"><tspan font-family="Helvetica">3</tspan></text></g></g><g fill="none" stroke="currentColor" stroke-linecap="butt" stroke-linejoin="miter" stroke-width=".5" color="gray"><path stroke="gray" stroke-dasharray="2 4" d="M307.3,224.4 L307.3,18.1" class="gridline"/></g><g fill="none" stroke="currentColor" stroke-linecap="butt" stroke-linejoin="miter" stroke-width="1" color="#000"><path stroke="#000" d="M307.3,224.4 L307.3,215.4"/><g fill="#000" stroke="none" font-family="Helvetica" font-size="12" text-anchor="middle"><text transform="translate(307.3,246.3)"><tspan font-family="Helvetica">4</tspan></text></g></g><g fill="none" stroke="currentColor" stroke-linecap="butt" stroke-linejoin="miter" stroke-width=".5" color="gray"><path stroke="gray" stroke-dasharray="2 4" d="M366.2,224.4 L366.2,18.1" class="gridline"/></g><g fill="none" stroke="currentColor" stroke-linecap="butt" stroke-linejoin="miter" stroke-width="1" color="#000"><path stroke="#000" d="M366.2,224.4 L366.2,215.4"/><g fill="#000" stroke="none" font-family="Helvetica" font-size="12" text-anchor="middle"><text transform="translate(366.2,246.3)"><tspan font-family="Helvetica">5</tspan></text></g></g><g fill="none" stroke="currentColor" stroke-linecap="butt" stroke-linejoin="miter" stroke-width=".5" color="gray"><path stroke="gray" stroke-dasharray="2 4" d="M425.0,224.4 L425.0,18.1" class="gridline"/></g><g fill="none" stroke="currentColor" stroke-linecap="butt" stroke-linejoin="miter" stroke-width="1" color="#000"><path stroke="#000" d="M425.0,224.4 L425.0,215.4"/><g fill="#000" stroke="none" font-family="Helvetica" font-size="12" text-anchor="middle"><text transform="translate(425.0,246.3)"><tspan font-family="Helvetica">6</tspan></text></g></g><g fill="none" stroke="currentColor" stroke-linecap="butt" stroke-linejoin="miter" stroke-width="1" color="#000"><path stroke="#000" d="M71.9,18.1 L71.9,224.4 L425.0,224.4 L425.0,18.1 L71.9,18.1 Z"/></g><g fill="none" stroke="currentColor" stroke-linecap="butt" stroke-linejoin="miter" stroke-width="1" color="#000"><g fill="#000" stroke="none" font-family="Helvetica" font-size="12" text-anchor="middle"><text transform="translate(16.3,121.3) rotate(270)"><tspan font-family="Helvetica">Total sample time (ms)</tspan></text></g></g><g fill="none" stroke="currentColor" stroke-linecap="butt" stroke-linejoin="miter" stroke-width="1" color="#000"><g fill="#000" stroke="none" font-family="Helvetica" font-size="12" text-anchor="middle"><text transform="translate(248.4,273.3)"><tspan font-family="Helvetica">Iterations (x 10</tspan><tspan dy="-6" font-family="Helvetica" font-size="9.6">3</tspan><tspan dy="6" font-family="Helvetica" font-size="12">)</tspan></text></g></g><g id="gnuplot_plot_1"><title>Sample</title><g fill="none" stroke="currentColor" stroke-linecap="butt" stroke-linejoin="miter" stroke-width="1" color="#000"><use color="#1F78B4" transform="translate(75.0,222.4) scale(2.25)" xlink:href="#gpPt6"/><use color="#1F78B4" transform="translate(78.0,221.0) scale(2.25)" xlink:href="#gpPt6"/><use color="#1F78B4" transform="translate(81.1,219.4) scale(2.25)" xlink:href="#gpPt6"/><use color="#1F78B4" transform="translate(84.1,217.7) scale(2.25)" xlink:href="#gpPt6"/><use color="#1F78B4" transform="translate(87.2,216.0) scale(2.25)" xlink:href="#gpPt6"/><use color="#1F78B4" transform="translate(90.3,214.2) scale(2.25)" xlink:href="#gpPt6"/><use color="#1F78B4" transform="translate(93.3,212.8) scale(2.25)" xlink:href="#gpPt6"/><use color="#1F78B4" transform="translate(96.4,211.0) scale(2.25)" xlink:href="#gpPt6"/><use color="#1F78B4" transform="translate(99.4,209.4) scale(2.25)" xlink:href="#gpPt6"/><use color="#1F78B4" transform="translate(102.5,207.7) scale(2.25)" xlink:href="#gpPt6"/><use color="#1F78B4" transform="translate(105.6,204.8) scale(2.25)" xlink:href="#gpPt6"/><use color="#1F78B4" transform="translate(108.6,204.1) scale(2.25)" xlink:href="#gpPt6"/><use color="#1F78B4" transform="translate(111.7,202.6) scale(2.25)" xlink:href="#gpPt6"/><use color="#1F78B4" transform="translate(114.7,200.6) scale(2.25)" xlink:href="#gpPt6"/><use color="#1F78B4" transform="translate(117.8,199.0) scale(2.25)" xlink:href="#gpPt6"/><use color="#1F78B4" transform="translate(120.9,196.8) scale(2.25)" xlink:href="#gpPt6"/><use color="#1F78B4" transform="translate(123.9,195.8) scale(2.25)" xlink:href="#gpPt6"/><use color="#1F78B4" transform="translate(127.0,189.5) scale(2.25)" xlink:href="#gpPt6"/><use color="#1F78B4" transform="translate(130.0,188.7) scale(2.25)" xlink:href="#gpPt6"/><use color="#1F78B4" transform="translate(133.1,189.6) scale(2.25)" xlink:href="#gpPt6"/><use color="#1F78B4" transform="translate(136.2,188.1) scale(2.25)" xlink:href="#gpPt6"/><use color="#1F78B4" transform="translate(139.2,186.3) scale(2.25)" xlink:href="#gpPt6"/><use color="#1F78B4" transform="translate(142.3,184.3) scale(2.25)" xlink:href="#gpPt6"/><use color="#1F78B4" transform="translate(145.3,183.9) scale(2.25)" xlink:href="#gpPt6"/><use color="#1F78B4" transform="translate(148.4,181.9) scale(2.25)" xlink:href="#gpPt6"/><use color="#1F78B4" transform="translate(151.5,180.3) scale(2.25)" xlink:href="#gpPt6"/><use color="#1F78B4" transform="translate(154.5,177.4) scale(2.25)" xlink:href="#gpPt6"/><use color="#1F78B4" transform="translate(157.6,174.3) scale(2.25)" xlink:href="#gpPt6"/><use color="#1F78B4" transform="translate(160.6,173.5) scale(2.25)" xlink:href="#gpPt6"/><use color="#1F78B4" transform="translate(163.7,173.0) scale(2.25)" xlink:href="#gpPt6"/><use color="#1F78B4" transform="translate(166.8,171.5) scale(2.25)" xlink:href="#gpPt6"/><use color="#1F78B4" transform="translate(169.8,170.7) scale(2.25)" xlink:href="#gpPt6"/><use color="#1F78B4" transform="translate(172.9,168.0) scale(2.25)" xlink:href="#gpPt6"/><use color="#1F78B4" transform="translate(175.9,161.5) scale(2.25)" xlink:href="#gpPt6"/><use color="#1F78B4" transform="translate(179.0,165.8) scale(2.25)" xlink:href="#gpPt6"/><use color="#1F78B4" transform="translate(182.1,162.6) scale(2.25)" xlink:href="#gpPt6"/><use color="#1F78B4" transform="translate(185.1,160.5) scale(2.25)" xlink:href="#gpPt6"/><use color="#1F78B4" transform="translate(188.2,160.1) scale(2.25)" xlink:href="#gpPt6"/><use color="#1F78B4" transform="translate(191.2,158.7) scale(2.25)" xlink:href="#gpPt6"/><use color="#1F78B4" transform="translate(194.3,156.9) scale(2.25)" xlink:href="#gpPt6"/><use color="#1F78B4" transform="translate(197.4,153.8) scale(2.25)" xlink:href="#gpPt6"/><use color="#1F78B4" transform="translate(200.4,153.6) scale(2.25)" xlink:href="#gpPt6"/><use color="#1F78B4" transform="translate(203.5,151.3) scale(2.25)" xlink:href="#gpPt6"/><use color="#1F78B4" transform="translate(206.5,149.9) scale(2.25)" xlink:href="#gpPt6"/><use color="#1F78B4" transform="translate(209.6,148.5) scale(2.25)" xlink:href="#gpPt6"/><use color="#1F78B4" transform="translate(212.7,146.7) scale(2.25)" xlink:href="#gpPt6"/><use color="#1F78B4" transform="translate(215.7,144.7) scale(2.25)" xlink:href="#gpPt6"/><use color="#1F78B4" transform="translate(218.8,138.6) scale(2.25)" xlink:href="#gpPt6"/><use color="#1F78B4" transform="translate(221.8,137.5) scale(2.25)" xlink:href="#gpPt6"/><use color="#1F78B4" transform="translate(224.9,137.5) scale(2.25)" xlink:href="#gpPt6"/><use color="#1F78B4" transform="translate(228.0,137.4) scale(2.25)" xlink:href="#gpPt6"/><use color="#1F78B4" transform="translate(231.0,134.9) scale(2.25)" xlink:href="#gpPt6"/><use color="#1F78B4" transform="translate(234.1,130.0) scale(2.25)" xlink:href="#gpPt6"/><use color="#1F78B4" transform="translate(237.2,131.6) scale(2.25)" xlink:href="#gpPt6"/><use color="#1F78B4" transform="translate(240.2,131.1) scale(2.25)" xlink:href="#gpPt6"/><use color="#1F78B4" transform="translate(243.3,123.5) scale(2.25)" xlink:href="#gpPt6"/><use color="#1F78B4" transform="translate(246.3,127.8) scale(2.25)" xlink:href="#gpPt6"/><use color="#1F78B4" transform="translate(249.4,124.4) scale(2.25)" xlink:href="#gpPt6"/><use color="#1F78B4" transform="translate(252.5,124.0) scale(2.25)" xlink:href="#gpPt6"/><use color="#1F78B4" transform="translate(255.5,121.9) scale(2.25)" xlink:href="#gpPt6"/><use color="#1F78B4" transform="translate(258.6,118.6) scale(2.25)" xlink:href="#gpPt6"/><use color="#1F78B4" transform="translate(261.6,118.5) scale(2.25)" xlink:href="#gpPt6"/><use color="#1F78B4" transform="translate(264.7,117.5) scale(2.25)" xlink:href="#gpPt6"/><use color="#1F78B4" transform="translate(267.8,115.2) scale(2.25)" xlink:href="#gpPt6"/><use color="#1F78B4" transform="translate(270.8,113.6) scale(2.25)" xlink:href="#gpPt6"/><use color="#1F78B4" transform="translate(273.9,103.3) scale(2.25)" xlink:href="#gpPt6"/><use color="#1F78B4" transform="translate(276.9,109.0) scale(2.25)" xlink:href="#gpPt6"/><use color="#1F78B4" transform="translate(280.0,104.7) scale(2.25)" xlink:href="#gpPt6"/><use color="#1F78B4" transform="translate(283.1,102.1) scale(2.25)" xlink:href="#gpPt6"/><use color="#1F78B4" transform="translate(286.1,103.5) scale(2.25)" xlink:href="#gpPt6"/><use color="#1F78B4" transform="translate(289.2,102.6) scale(2.25)" xlink:href="#gpPt6"/><use color="#1F78B4" transform="translate(292.2,101.0) scale(2.25)" xlink:href="#gpPt6"/><use color="#1F78B4" transform="translate(295.3,99.9) scale(2.25)" xlink:href="#gpPt6"/><use color="#1F78B4" transform="translate(298.4,100.2) scale(2.25)" xlink:href="#gpPt6"/><use color="#1F78B4" transform="translate(301.4,97.8) scale(2.25)" xlink:href="#gpPt6"/><use color="#1F78B4" transform="translate(304.5,86.5) scale(2.25)" xlink:href="#gpPt6"/><use color="#1F78B4" transform="translate(307.5,92.5) scale(2.25)" xlink:href="#gpPt6"/><use color="#1F78B4" transform="translate(310.6,90.7) scale(2.25)" xlink:href="#gpPt6"/><use color="#1F78B4" transform="translate(313.7,88.7) scale(2.25)" xlink:href="#gpPt6"/><use color="#1F78B4" transform="translate(316.7,83.7) scale(2.25)" xlink:href="#gpPt6"/><use color="#1F78B4" transform="translate(319.8,85.3) scale(2.25)" xlink:href="#gpPt6"/><use color="#1F78B4" transform="translate(322.8,82.9) scale(2.25)" xlink:href="#gpPt6"/><use color="#1F78B4" transform="translate(325.9,79.3) scale(2.25)" xlink:href="#gpPt6"/><use color="#1F78B4" transform="translate(329.0,75.9) scale(2.25)" xlink:href="#gpPt6"/><use color="#1F78B4" transform="translate(332.0,79.4) scale(2.25)" xlink:href="#gpPt6"/><use color="#1F78B4" transform="translate(335.1,77.1) scale(2.25)" xlink:href="#gpPt6"/><use color="#1F78B4" transform="translate(338.1,75.3) scale(2.25)" xlink:href="#gpPt6"/><use color="#1F78B4" transform="translate(341.2,72.1) scale(2.25)" xlink:href="#gpPt6"/><use color="#1F78B4" transform="translate(344.3,73.4) scale(2.25)" xlink:href="#gpPt6"/><use color="#1F78B4" transform="translate(347.3,72.1) scale(2.25)" xlink:href="#gpPt6"/><use color="#1F78B4" transform="translate(350.4,64.6) scale(2.25)" xlink:href="#gpPt6"/><use color="#1F78B4" transform="translate(353.4,66.2) scale(2.25)" xlink:href="#gpPt6"/><use color="#1F78B4" transform="translate(356.5,63.8) scale(2.25)" xlink:href="#gpPt6"/><use color="#1F78B4" transform="translate(359.6,60.5) scale(2.25)" xlink:href="#gpPt6"/><use color="#1F78B4" transform="translate(362.6,59.4) scale(2.25)" xlink:href="#gpPt6"/><use color="#1F78B4" transform="translate(365.7,57.5) scale(2.25)" xlink:href="#gpPt6"/><use color="#1F78B4" transform="translate(368.7,59.0) scale(2.25)" xlink:href="#gpPt6"/><use color="#1F78B4" transform="translate(371.8,59.3) scale(2.25)" xlink:href="#gpPt6"/><use color="#1F78B4" transform="translate(374.9,52.8) scale(2.25)" xlink:href="#gpPt6"/><use color="#1F78B4" transform="translate(377.9,53.4) scale(2.25)" xlink:href="#gpPt6"/></g></g><g id="gnuplot_plot_2"><title>Linear regression</title><g fill="none" stroke="currentColor" stroke-linecap="butt" stroke-linejoin="miter" stroke-width="2" color="#000"><path stroke="#1F78B4" d="M71.9,224.4 L377.9,51.9"/></g></g><g id="gnuplot_plot_3"><title>Confidence interval</title><g fill="none" stroke="currentColor" stroke-linecap="butt" stroke-linejoin="miter" stroke-width="1" color="#000"><g stroke="none" shape-rendering="crispEdges"><polygon fill="#1F78B4" fill-opacity=".25" points="71.9 224.4 71.9 224.4 71.9 224.4"/><polygon fill="#1F78B4" fill-opacity=".25" points="71.9 224.4 377.9 52.6 377.9 51.2"/></g></g></g><g fill="none" stroke="currentColor" stroke-linecap="butt" stroke-linejoin="miter" stroke-width="1" color="#000"><path stroke="#000" d="M71.9,18.1 L71.9,224.4 L425.0,224.4 L425.0,18.1 L71.9,18.1 Z"/></g></g></svg>