<svg xmlns="http://www.w3.org/2000/svg" xmlns:xlink="http://www.w3.org/1999/xlink" viewBox="0 0 1280 250"><title>Gnuplot</title><desc>Produced by GNUPLOT 5.2 patchlevel 2</desc><g id="gnuplot_canvas"><rect width="1280" height="250" x="0" y="0" fill="none"/><defs><circle id="gpDot" r=".5" stroke-width=".5"/><path id="gpPt0" stroke="currentColor" stroke-width=".222" d="M-1,0 h2 M0,-1 v2"/><path id="gpPt1" stroke="currentColor" stroke-width=".222" d="M-1,-1 L1,1 M1,-1 L-1,1"/><path id="gpPt2" stroke="currentColor" stroke-width=".222" d="M-1,0 L1,0 M0,-1 L0,1 M-1,-1 L1,1 M-1,1 L1,-1"/><rect id="gpPt3" width="2" height="2" x="-1" y="-1" stroke="currentColor" stroke-width=".222"/><rect id="gpPt4" width="2" height="2" x="-1" y="-1" fill="currentColor" stroke="currentColor" stroke-width=".222"/><circle id="gpPt5" cx="0" cy="0" r="1" stroke="currentColor" stroke-width=".222"/><use id="gpPt6" fill="currentColor" stroke="none" xlink:href="#gpPt5"/><path id="gpPt7" stroke="currentColor" stroke-width=".222" d="M0,-1.33 L-1.33,0.67 L1.33,0.67 z"/><use id="gpPt8" fill="currentColor" stroke="none" xlink:href="#gpPt7"/><use id="gpPt9" stroke="currentColor" transform="rotate(180)" xlink:href="#gpPt7"/><use id="gpPt10" fill="currentColor" stroke="none" xlink:href="#gpPt9"/><use id="gpPt11" stroke="currentColor" transform="rotate(45)" xlink:href="#gpPt3"/><use id="gpPt12" fill="currentColor" stroke="none" xlink:href="#gpPt11"/><path id="gpPt13" stroke="currentColor" stroke-width=".222" d="M0,1.330 L1.265,0.411 L0.782,-1.067 L-0.782,-1.076 L-1.265,0.411 z"/><use id="gpPt14" fill="currentColor" stroke="none" xlink:href="#gpPt13"/><filter id="textbox" width="1" height="1" x="0" y="0" filterUnits="objectBoundingBox"><feFlood flood-color="#fff" flood-opacity="1" result="bgnd"/><feComposite in="SourceGraphic" in2="bgnd" operator="atop"/></filter><filter id="greybox" width="1" height="1" x="0" y="0" filterUnits="objectBoundingBox"><feFlood flood-color="#d3d3d3" flood-opacity="1" result="grey"/><feComposite in="SourceGraphic" in2="grey" operator="atop"/></filter></defs><g fill="none" stroke="currentColor" stroke-linecap="butt" stroke-linejoin="miter" stroke-width="1" color="#000"><path stroke="#000" d="M196.4,157.8 L205.4,157.8"/><g fill="#000" stroke="none" font-family="Helvetica" font-size="12" text-anchor="end"><text transform="translate(188.1,161.7)"><tspan font-family="Helvetica">Fibonacci/Iterative</tspan></text></g></g><g fill="none" stroke="currentColor" stroke-linecap="butt" stroke-linejoin="miter" stroke-width="1" color="#000"><path stroke="#000" d="M196.4,88.7 L205.4,88.7"/><g fill="#000" stroke="none" font-family="Helvetica" font-size="12" text-anchor="end"><text transform="translate(188.1,92.6)"><tspan font-family="Helvetica">Fibonacci/Recursive</tspan></text></g></g><g fill="none" stroke="currentColor" stroke-linecap="butt" stroke-linejoin="miter" stroke-width=".5" color="gray"><path stroke="gray" stroke-dasharray="2 4" d="M196.4,192.4 L196.4,54.1" class="gridline"/></g><g fill="none" stroke="currentColor" stroke-linecap="butt" stroke-linejoin="miter" stroke-width="1" color="#000"><path stroke="#000" d="M196.4,192.4 L196.4,183.4"/><g fill="#000" stroke="none" font-family="Helvetica" font-size="12" text-anchor="middle"><text transform="translate(196.4,214.3)"><tspan font-family="Helvetica">0</tspan></text></g></g><g fill="none" stroke="currentColor" stroke-linecap="butt" stroke-linejoin="miter" stroke-width=".5" color="gray"><path stroke="gray" stroke-dasharray="2 4" d="M408.1,192.4 L408.1,54.1" class="gridline"/></g><g fill="none" stroke="currentColor" stroke-linecap="butt" stroke-linejoin="miter" stroke-width="1" color="#000"><path stroke="#000" d="M408.1,192.4 L408.1,183.4"/><g fill="#000" stroke="none" font-family="Helvetica" font-size="12" text-anchor="middle"><text transform="translate(408.1,214.3)"><tspan font-family="Helvetica">5</tspan></text></g></g><g fill="none" stroke="currentColor" stroke-linecap="butt" stroke-linejoin="miter" stroke-width=".5" color="gray"><path stroke="gray" stroke-dasharray="2 4" d="M619.8,192.4 L619.8,54.1" class="gridline"/></g><g fill="none" stroke="currentColor" stroke-linecap="butt" stroke-linejoin="miter" stroke-width="1" color="#000"><path stroke="#000" d="M619.8,192.4 L619.8,183.4"/><g fill="#000" stroke="none" font-family="Helvetica" font-size="12" text-anchor="middle"><text transform="translate(619.8,214.3)"><tspan font-family="Helvetica">10</tspan></text></g></g><g fill="none" stroke="currentColor" stroke-linecap="butt" stroke-linejoin="miter" stroke-width=".5" color="gray"><path stroke="gray" stroke-dasharray="2 4" d="M831.6,192.4 L831.6,54.1" class="gridline"/></g><g fill="none" stroke="currentColor" stroke-linecap="butt" stroke-linejoin="miter" stroke-width="1" color="#000"><path stroke="#000" d="M831.6,192.4 L831.6,183.4"/><g fill="#000" stroke="none" font-family="Helvetica" font-size="12" text-anchor="middle"><text transform="translate(831.6,214.3)"><tspan font-family="Helvetica">15</tspan></text></g></g><g fill="none" stroke="currentColor" stroke-linecap="butt" stroke-linejoin="miter" stroke-width=".5" color="gray"><path stroke="gray" stroke-dasharray="2 4" d="M1043.3,192.4 L1043.3,54.1" class="gridline"/></g><g fill="none" stroke="currentColor" stroke-linecap="butt" stroke-linejoin="miter" stroke-width="1" color="#000"><path stroke="#000" d="M1043.3,192.4 L1043.3,183.4"/><g fill="#000" stroke="none" font-family="Helvetica" font-size="12" text-anchor="middle"><text transform="translate(1043.3,214.3)"><tspan font-family="Helvetica">20</tspan></text></g></g><g fill="none" stroke="currentColor" stroke-linecap="butt" stroke-linejoin="miter" stroke-width=".5" color="gray"><path stroke="gray" stroke-dasharray="2 4" d="M1255.0,192.4 L1255.0,54.1" class="gridline"/></g><g fill="none" stroke="currentColor" stroke-linecap="butt" stroke-linejoin="miter" stroke-width="1" color="#000"><path stroke="#000" d="M1255.0,192.4 L1255.0,183.4"/><g fill="#000" stroke="none" font-family="Helvetica" font-size="12" text-anchor="middle"><text transform="translate(1255.0,214.3)"><tspan font-family="Helvetica">25</tspan></text></g></g><g fill="none" stroke="currentColor" stroke-linecap="butt" stroke-linejoin="miter" stroke-width="1" color="#000"><path stroke="#000" d="M196.4,54.1 L196.4,192.4 L1255.0,192.4 L1255.0,54.1 L196.4,54.1 Z"/></g><g fill="none" stroke="currentColor" stroke-linecap="butt" stroke-linejoin="miter" stroke-width="1" color="#000"><g fill="#000" stroke="none" font-family="Helvetica" font-size="12" text-anchor="middle"><text transform="translate(16.3,123.3) rotate(270)"><tspan font-family="Helvetica">Input</tspan></text></g></g><g fill="none" stroke="currentColor" stroke-linecap="butt" stroke-linejoin="miter" stroke-width="1" color="#000"><g fill="#000" stroke="none" font-family="Helvetica" font-size="12" text-anchor="middle"><text transform="translate(725.7,241.3)"><tspan font-family="Helvetica">Average time (us)</tspan></text></g></g><g fill="none" stroke="currentColor" stroke-linecap="butt" stroke-linejoin="miter" stroke-width="1" color="#000"><g fill="#000" stroke="none" font-family="Helvetica" font-size="12" text-anchor="middle"><text transform="translate(725.7,31.0)"><tspan font-family="Helvetica">Fibonacci: Violin plot</tspan></text></g></g><g id="gnuplot_plot_1"><title>PDF</title><g fill="none" stroke="currentColor" stroke-linecap="butt" stroke-linejoin="miter" stroke-width="1" color="#000"><g fill="#000" stroke="none" font-family="Helvetica" font-size="12" text-anchor="end"><text transform="translate(1187.9,76.0)"><tspan font-family="Helvetica">PDF</tspan></text></g></g><g fill="none" stroke="currentColor" stroke-linecap="butt" stroke-linejoin="miter" stroke-width="1" color="#000"><g stroke="none" shape-rendering="crispEdges"><polygon fill="#1F78B4" fill-opacity=".25" points="1196.2 76.6 1238.4 76.6 1238.4 67.6 1196.2 67.6"/><polygon fill="#1F78B4" fill-opacity=".25" points="196.6 157.8 196.6 157.8 196.6 157.8 196.6 157.8 196.6 157.8 196.6 157.8 196.6 157.8 196.6 157.8 196.6 157.8 196.6 157.8 196.6 157.8 196.6 157.8 196.6 157.8 196.6 157.8 196.6 157.8 196.6 157.8 196.6 157.8 196.6 157.8 196.6 157.8 196.6 157.8 196.6 157.8 196.6 157.8 196.6 157.7 196.6 157.7 196.6 157.7 196.6 157.7 196.6 157.7 196.6 157.7 196.6 157.7 196.6 157.7 196.6 157.7 196.6 157.6 196.6 157.6 196.6 157.6 196.6 157.6 196.6 157.6 196.6 157.6 196.6 157.5 196.6 157.5 196.6 157.5 196.6 157.5 196.6 157.4 196.6 157.4 196.6 157.4 196.6 157.3 196.6 157.3 196.6 157.3 196.6 157.2 196.6 157.2 196.6 157.1 196.6 157.1 196.6 157 196.6 156.9 196.6 156.9 196.6 156.8 196.6 156.7 196.6 156.7 196.6 156.6 196.6 156.5 196.6 156.4 196.6 156.3 196.6 156.2 196.6 156.1 196.6 155.9 196.6 155.8 196.6 155.7 196.6 155.5 196.6 155.4 196.6 155.2 196.6 155 196.6 154.8 196.6 154.6 196.6 154.4 196.6 154.2 196.6 153.9 196.6 153.6 196.6 153.4 196.6 153.1 196.6 152.8 196.6 152.5 196.6 152.1 196.6 151.8 196.6 151.4 196.6 151 196.6 150.6 196.6 150.2 196.6 149.8 196.6 149.3 196.6 148.9 196.6 148.4 196.6 147.9 196.6 147.4 196.6 146.8 196.6 146.3 196.6 145.7 196.6 145.1 196.6 144.5 196.6 143.9 196.6 143.3 196.6 142.6 196.6 142 196.6 141.3 196.6 140.7 196.6 140 196.6 139.3 196.6 138.6 196.6 137.9 196.6 137.2 196.6 136.6 196.6 135.9 196.6 135.2 196.6 134.5 196.6 133.8 196.6 133.1 196.6 132.4 196.6 131.8 196.6 131.1 196.6 130.5 196.6 129.9 196.6 129.3 196.6 128.7 196.6 128.2 196.6 127.6 196.6 127.1 196.6 126.6 196.6 126.2 196.6 125.8 196.6 125.4 196.6 125 196.6 124.7 196.6 124.4 196.6 124.1 196.6 123.9 196.6 123.7 196.6 123.5 196.6 123.4 196.6 123.3 196.6 123.3 196.6 123.2 196.6 123.3 196.6 123.3 196.6 123.5 196.6 123.6 196.6 123.8 196.6 124 196.6 124.2 196.6 124.5 196.6 124.8 196.6 125.1 196.6 125.5 196.6 125.9 196.6 126.3 196.6 126.8 196.6 127.3 196.6 127.7 196.6 128.3 196.6 128.8 196.6 129.3 196.6 129.9 196.6 130.5 196.6 131 196.6 131.6 196.6 132.2 196.6 132.8 196.6 133.4 196.6 134 196.6 134.6 196.6 135.2 196.6 135.8 196.6 136.4 196.6 137 196.6 137.6 196.6 138.1 196.6 138.7 196.6 139.3 196.6 139.8 196.6 140.3 196.6 140.8 196.6 141.3 196.6 141.8 196.6 142.3 196.6 142.8 196.6 143.2 196.6 143.6 196.6 144 196.6 144.4 196.6 144.8 196.6 145.2 196.6 145.6 196.6 145.9 196.6 146.2 196.6 146.5 196.6 146.8 196.6 147.1 196.6 147.4 196.6 147.7 196.6 147.9 196.6 148.2 196.6 148.4 196.6 148.6 196.6 148.8 196.6 149 196.6 149.2 196.6 149.4 196.6 149.6 196.6 149.8 196.6 149.9 196.6 150.1 196.6 150.2 196.6 150.4 196.6 150.5 196.6 150.7 196.6 150.8 196.6 150.9 196.6 151 196.6 151.1 196.6 151.2 196.6 151.3 196.6 151.4 196.6 151.5 196.6 151.6 196.6 151.7 196.6 151.8 196.6 151.9 196.6 152 196.6 152 196.6 152.1 196.6 152.2 196.6 152.2 196.6 152.3 196.6 152.4 196.6 152.4 196.6 152.5 196.6 152.5 196.6 152.6 196.6 152.7 196.6 152.7 196.6 152.8 196.6 152.8 196.6 152.9 196.6 152.9 196.6 153 196.6 153 196.6 153 196.6 153.1 196.6 153.1 196.6 153.2 196.6 153.2 196.6 153.3 196.6 153.4 196.6 153.4 196.6 153.5 196.6 153.5 196.6 153.6 196.6 153.6 196.6 153.7 196.6 153.8 196.6 153.8 196.6 153.9 196.6 153.9 196.6 154 196.6 154.1 196.6 154.1 196.6 154.2 196.6 154.3 196.6 154.4 196.6 154.4 196.6 154.5 196.6 154.6 196.6 154.7 196.6 154.7 196.6 154.8 196.6 154.9 196.6 155 196.6 155 196.6 155.1 196.6 155.2 196.6 155.3 196.6 155.3 196.6 155.4 196.6 155.5 196.6 155.5 196.6 155.6 196.6 155.7 196.6 155.7 196.6 155.8 196.6 155.9 196.6 155.9 196.6 156 196.6 156 196.6 156.1 196.6 156.2 196.6 156.2 196.6 156.3 196.6 156.3 196.6 156.4 196.6 156.4 196.6 156.5 196.6 156.5 196.6 156.5 196.6 156.6 196.6 156.6 196.6 156.7 196.6 156.7 196.6 156.7 196.6 156.8 196.6 156.8 196.6 156.8 196.6 156.9 196.6 156.9 196.6 156.9 196.6 156.9 196.6 157 196.6 157 196.6 157 196.6 157 196.6 157.1 196.6 157.1 196.6 157.1 196.6 157.1 196.6 157.1 196.6 157.1 196.6 157.2 196.6 157.2 196.6 157.2 196.6 157.2 196.6 157.2 196.6 157.2 196.6 157.2 196.6 157.2 196.6 157.2 196.6 157.2 196.6 157.2 196.6 157.2 196.6 157.2 196.6 157.2 196.6 157.2 196.6 157.2 196.6 157.2 196.6 157.2 196.6 157.2 196.6 157.2 196.6 157.2 196.6 157.2 196.6 157.2 196.6 157.2 196.6 157.2 196.6 157.2 196.6 157.2 196.6 157.2 196.6 157.2 196.6 157.2 196.6 157.2 196.6 157.2 196.6 157.2 196.6 157.2 196.6 157.2 196.6 157.2 196.6 157.2 196.6 157.2 196.6 157.2 196.6 157.2 196.6 157.3 196.6 157.3 196.6 157.3 196.6 157.3 196.6 157.3 196.6 157.3 196.6 157.3 196.6 157.3 196.6 157.3 196.6 157.3 196.6 157.4 196.6 157.4 196.6 157.4 196.6 157.4 196.6 157.4 196.6 157.4 196.6 157.4 196.6 157.4 196.6 157.5 196.6 157.5 196.6 157.5 196.6 157.5 196.6 157.5 196.6 157.5 196.6 157.5 196.6 157.5 196.6 157.5 196.6 157.5 196.6 157.5 196.6 157.5 196.6 157.5 196.6 157.5 196.6 157.5 196.6 157.5 196.6 157.5 196.6 157.5 196.6 157.5 196.6 157.5 196.6 157.5 196.6 157.5 196.6 157.5 196.6 157.5 196.6 157.5 196.6 157.5 196.6 157.5 196.6 157.5 196.6 157.4 196.6 157.4 196.6 157.4 196.6 157.4 196.6 157.4 196.6 157.4 196.6 157.4 196.6 157.4 196.6 157.3 196.6 157.3 196.6 157.3 196.6 157.3 196.6 157.3 196.6 157.3 196.6 157.3 196.6 157.3 196.6 157.3 196.6 157.3 196.6 157.3 196.6 157.3 196.6 157.3 196.6 157.3 196.6 157.3 196.6 157.3 196.6 157.3 196.6 157.3 196.6 157.3 196.6 157.3 196.6 157.3 196.6 157.3 196.6 157.3 196.6 157.3 196.6 157.3 196.6 157.3 196.6 157.3 196.6 157.3 196.6 157.3 196.6 157.4 196.6 157.4 196.6 157.4 196.6 157.4 196.6 157.4 196.6 157.4 196.6 157.4 196.6 157.5 196.6 157.5 196.6 157.5 196.6 157.5 196.6 157.5 196.6 157.5 196.6 157.5 196.6 157.6 196.6 157.6 196.6 157.6 196.6 157.6 196.6 157.6 196.6 157.6 196.6 157.6 196.6 157.7 196.6 157.7 196.6 157.7 196.6 157.7 196.6 157.7 196.6 157.7 196.6 157.7 196.6 157.7 196.6 157.7 196.6 157.7 196.6 157.7 196.6 157.8 196.6 157.8 196.6 157.8 196.6 157.8 196.6 157.8 196.6 157.8 196.6 157.8 196.6 157.8 196.6 157.8 196.6 157.8 196.6 157.8 196.6 157.8 196.6 157.8 196.6 157.8 196.6 157.8 196.6 157.8 196.6 157.8 196.6 157.8 196.6 157.8 196.6 157.8 196.6 157.8 196.6 157.8 196.6 157.8 196.6 157.8 196.6 157.8 196.6 157.8 196.6 157.8 196.6 157.8 196.6 157.8 196.6 157.8 196.6 157.8 196.6 157.8 196.6 157.8 196.6 157.8 196.6 157.8 196.6 157.9 196.6 157.9 196.6 157.9 196.6 157.9 196.6 157.9 196.6 157.9 196.6 157.9 196.6 157.9 196.6 157.9 196.6 157.9 196.6 157.9 196.6 157.9 196.6 157.9 196.6 157.9 196.6 157.9 196.6 157.9 196.6 157.9 196.6 158 196.6 158 196.6 158 196.6 158 196.6 158 196.6 158 196.6 158 196.6 158 196.6 158 196.6 158.1 196.6 158.1 196.6 158.1 196.6 158.1 196.6 158.1 196.6 158.1 196.6 158.1 196.6 158.2 196.6 158.2 196.6 158.2 196.6 158.2 196.6 158.2 196.6 158.2 196.6 158.2 196.6 158.3 196.6 158.3 196.6 158.3 196.6 158.3 196.6 158.3 196.6 158.3 196.6 158.3 196.6 158.3 196.6 158.4 196.6 158.4 196.6 158.4 196.6 158.4 196.6 158.4 196.6 158.4 196.6 158.4 196.6 158.4 196.6 158.4 196.6 158.4 196.6 158.4 196.6 158.4 196.6 158.4 196.6 158.4 196.6 158.4 196.6 158.4 196.6 158.4 196.6 158.4 196.6 158.3 196.6 158.3 196.6 158.3 196.6 158.3 196.6 158.3 196.6 158.3 196.6 158.3 196.6 158.3 196.6 158.3 196.6 158.3 196.6 158.2 196.6 158.2 196.6 158.2 196.6 158.2 196.6 158.2 196.6 158.2 196.6 158.2 196.6 158.2 196.6 158.2 196.6 158.2 196.6 158.1 196.6 158.1 196.6 158.1 196.6 158.1 196.6 158.1 196.6 158.1 196.6 158.1 196.6 158.1 196.6 158.1 196.6 158.1 196.6 158.1 196.6 158.1 196.6 158.1 196.6 158.1 196.6 158.1 196.6 158.1 196.6 158.2 196.6 158.2 196.6 158.2 196.6 158.2 196.6 158.2 196.6 158.2 196.6 158.2 196.6 158.2 196.6 158.2 196.6 158.2 196.6 158.3 196.6 158.3 196.6 158.3 196.6 158.3 196.6 158.3 196.6 158.3 196.6 158.3 196.6 158.3 196.6 158.4 196.6 158.4 196.6 158.4 196.6 158.4 196.6 158.4 196.6 158.4 196.6 158.4 196.6 158.4 196.6 158.4 196.6 158.4 196.6 158.4 196.6 158.4 196.6 158.4 196.6 158.4 196.6 158.4 196.6 158.4 196.6 158.4 196.6 158.4 196.6 158.4 196.6 158.4 196.6 158.4 196.6 158.4 196.6 158.4 196.6 158.4 196.6 158.4 196.6 158.4 196.6 158.4 196.6 158.4 196.6 158.4 196.6 158.4 196.6 158.4 196.6 158.4 196.6 158.4 196.6 158.4 196.6 158.4 196.6 158.4 196.6 158.4 196.6 158.4 196.6 158.4 196.6 158.4 196.6 158.4 196.6 158.5 196.6 158.5 196.6 158.5 196.6 158.5 196.6 158.5 196.6 158.5 196.6 158.5 196.6 158.5 196.6 158.6 196.6 158.6 196.6 158.6 196.6 158.6 196.6 158.6 196.6 158.7 196.6 158.7 196.6 158.7 196.6 158.7 196.6 158.8 196.6 158.8 196.6 158.8 196.6 158.9 196.6 158.9 196.6 158.9 196.6 159 196.6 159 196.6 159 196.6 159.1 196.6 159.1 196.6 159.2 196.6 159.2 196.6 159.2 196.6 159.3 196.6 159.3 196.6 159.4 196.6 159.4 196.6 159.5 196.6 159.5 196.6 159.6 196.6 159.7 196.6 159.7 196.6 159.8 196.6 159.8 196.6 159.9 196.6 160 196.6 160 196.6 160.1 196.6 160.2 196.6 160.3 196.6 160.3 196.6 160.4 196.6 160.5 196.6 160.5 196.6 160.6 196.6 160.7 196.6 160.8 196.6 160.8 196.6 160.9 196.6 161 196.6 161.1 196.6 161.1 196.6 161.2 196.6 161.3 196.6 161.4 196.6 161.4 196.6 161.5 196.6 161.6 196.6 161.6 196.6 161.7 196.6 161.8 196.6 161.8 196.6 161.9 196.6 162 196.6 162 196.6 162.1 196.6 162.1 196.6 162.2 196.6 162.2 196.6 162.3 196.6 162.4 196.6 162.4 196.6 162.5 196.6 162.5 196.6 162.6 196.6 162.6 196.6 162.7 196.6 162.7 196.6 162.7 196.6 162.8 196.6 162.8 196.6 162.9 196.6 162.9 196.6 163 196.6 163.1 196.6 163.1 196.6 163.2 196.6 163.2 196.6 163.3 196.6 163.3 196.6 163.4 196.6 163.5 196.6 163.5 196.6 163.6 196.6 163.7 196.6 163.8 196.6 163.8 196.6 163.9 196.6 164 196.6 164.1 196.6 164.2 196.6 164.3 196.6 164.4 196.6 164.5 196.6 164.6 196.6 164.8 196.6 164.9 196.6 165 196.6 165.1 196.6 165.3 196.6 165.4 196.6 165.6 196.6 165.7 196.6 165.9 196.6 166.1 196.6 166.2 196.6 166.4 196.6 166.6 196.6 166.8 196.6 167 196.6 167.3 196.6 167.5 196.6 167.7 196.6 168 196.6 168.2 196.6 168.5 196.6 168.8 196.6 169.1 196.6 169.4 196.6 169.8 196.6 170.1 196.6 170.4 196.6 170.8 196.6 171.2 196.6 171.6 196.6 172 196.6 172.4 196.6 172.9 196.6 173.3 196.6 173.8 196.6 174.3 196.6 174.8 196.6 175.3 196.6 175.9 196.6 176.4 196.6 176.9 196.6 177.5 196.6 178.1 196.6 178.7 196.6 179.2 196.6 179.8 196.6 180.4 196.6 181 196.6 181.6 196.6 182.2 196.6 182.8 196.6 183.4 196.6 184 196.6 184.6 196.6 185.2 196.6 185.8 196.6 186.3 196.6 186.9 196.6 187.4 196.6 187.9 196.6 188.4 196.6 188.9 196.6 189.3 196.6 189.7 196.6 190.1 196.6 190.5 196.6 190.8 196.6 191.2 196.6 191.4 196.6 191.7 196.6 191.9 196.6 192.1 196.6 192.2 196.6 192.3 196.6 192.4 196.6 192.4 196.6 192.4 196.6 192.3 196.6 192.3 196.6 192.1 196.6 192 196.6 191.8 196.6 191.6 196.6 191.3 196.6 191 196.6 190.7 196.6 190.3 196.6 189.9 196.6 189.5 196.6 189 196.6 188.5 196.6 188 196.6 187.5 196.6 186.9 196.6 186.4 196.6 185.8 196.6 185.1 196.6 184.5 196.6 183.9 196.6 183.2 196.6 182.5 196.6 181.9 196.6 181.2 196.6 180.5 196.6 179.8 196.6 179.1 196.6 178.4 196.6 177.7 196.6 177 196.6 176.3 196.6 175.6 196.6 175 196.6 174.3 196.6 173.6 196.6 173 196.6 172.4 196.6 171.7 196.6 171.1 196.6 170.5 196.6 169.9 196.6 169.4 196.6 168.8 196.6 168.3 196.6 167.8 196.6 167.3 196.6 166.8 196.6 166.3 196.6 165.9 196.6 165.4 196.6 165 196.6 164.6 196.6 164.2 196.6 163.9 196.6 163.5 196.6 163.2 196.6 162.9 196.6 162.6 196.6 162.3 196.6 162 196.6 161.7 196.6 161.5 196.6 161.3 196.6 161.1 196.6 160.8 196.6 160.7 196.6 160.5 196.6 160.3 196.6 160.1 196.6 160 196.6 159.8 196.6 159.7 196.6 159.6 196.6 159.5 196.6 159.4 196.6 159.3 196.6 159.2 196.6 159.1 196.6 159 196.6 158.9 196.6 158.8 196.6 158.8 196.6 158.7 196.6 158.6 196.6 158.6 196.6 158.5 196.6 158.5 196.6 158.4 196.6 158.4 196.6 158.4 196.6 158.3 196.6 158.3 196.6 158.3 196.6 158.2 196.6 158.2 196.6 158.2 196.6 158.1 196.6 158.1 196.6 158.1 196.6 158.1 196.6 158.1 196.6 158 196.6 158 196.6 158 196.6 158 196.6 158 196.6 158 196.6 158 196.6 157.9 196.6 157.9 196.6 157.9 196.6 157.9 196.6 157.9 196.6 157.9 196.6 157.9 196.6 157.9 196.6 157.9 196.6 157.9 196.6 157.9 196.6 157.9 196.6 157.9 196.6 157.9 196.6 157.9 196.6 157.8 196.6 157.8 196.6 157.8 196.6 157.8 196.6 157.8 196.6 157.8 196.6 157.8 196.6 157.8 196.6 157.8 196.6 157.8 196.6 157.8 196.6 157.8"/></g></g></g><g id="gnuplot_plot_2"><title>gnuplot_plot_2</title><g fill="none" stroke="currentColor" stroke-linecap="butt" stroke-linejoin="miter" stroke-width="1" color="#000"><g stroke="none" shape-rendering="crispEdges"><polygon fill="#1F78B4" fill-opacity=".25" points="950.9 88.7 951.2 88.7 951.6 88.7 951.9 88.7 952.2 88.7 952.6 88.7 952.9 88.7 953.3 88.6 953.6 88.6 954 88.6 954.3 88.6 954.6 88.6 955 88.6 955.3 88.6 955.7 88.6 956 88.6 956.4 88.6 956.7 88.6 957 88.6 957.4 88.6 957.7 88.6 958.1 88.6 958.4 88.6 958.7 88.6 959.1 88.5 959.4 88.5 959.8 88.5 960.1 88.5 960.5 88.5 960.8 88.5 961.1 88.5 961.5 88.4 961.8 88.4 962.2 88.4 962.5 88.4 962.8 88.3 963.2 88.3 963.5 88.3 963.9 88.3 964.2 88.2 964.6 88.2 964.9 88.2 965.2 88.1 965.6 88.1 965.9 88.1 966.3 88 966.6 88 966.9 87.9 967.3 87.9 967.6 87.8 968 87.8 968.3 87.7 968.7 87.6 969 87.6 969.3 87.5 969.7 87.4 970 87.4 970.4 87.3 970.7 87.2 971 87.1 971.4 87 971.7 86.9 972.1 86.8 972.4 86.7 972.8 86.6 973.1 86.5 973.4 86.4 973.8 86.3 974.1 86.2 974.5 86 974.8 85.9 975.2 85.7 975.5 85.6 975.8 85.4 976.2 85.3 976.5 85.1 976.9 84.9 977.2 84.7 977.5 84.5 977.9 84.3 978.2 84.1 978.6 83.9 978.9 83.7 979.3 83.4 979.6 83.2 979.9 82.9 980.3 82.7 980.6 82.4 981 82.1 981.3 81.8 981.6 81.5 982 81.2 982.3 80.8 982.7 80.5 983 80.1 983.4 79.8 983.7 79.4 984 79 984.4 78.6 984.7 78.2 985.1 77.7 985.4 77.3 985.7 76.9 986.1 76.4 986.4 75.9 986.8 75.4 987.1 75 987.5 74.5 987.8 73.9 988.1 73.4 988.5 72.9 988.8 72.4 989.2 71.8 989.5 71.3 989.8 70.7 990.2 70.2 990.5 69.6 990.9 69 991.2 68.5 991.6 67.9 991.9 67.3 992.2 66.8 992.6 66.2 992.9 65.6 993.3 65.1 993.6 64.5 994 63.9 994.3 63.4 994.6 62.9 995 62.3 995.3 61.8 995.7 61.3 996 60.8 996.3 60.3 996.7 59.8 997 59.4 997.4 58.9 997.7 58.5 998.1 58.1 998.4 57.7 998.7 57.3 999.1 57 999.4 56.6 999.8 56.3 1000.1 56 1000.4 55.7 1000.8 55.5 1001.1 55.2 1001.5 55 1001.8 54.8 1002.2 54.7 1002.5 54.5 1002.8 54.4 1003.2 54.3 1003.5 54.2 1003.9 54.1 1004.2 54.1 1004.5 54.1 1004.9 54.1 1005.2 54.1 1005.6 54.2 1005.9 54.3 1006.3 54.3 1006.6 54.4 1006.9 54.6 1007.3 54.7 1007.6 54.9 1008 55.1 1008.3 55.3 1008.6 55.5 1009 55.7 1009.3 55.9 1009.7 56.2 1010 56.5 1010.4 56.7 1010.7 57 1011 57.3 1011.4 57.7 1011.7 58 1012.1 58.3 1012.4 58.7 1012.8 59 1013.1 59.4 1013.4 59.7 1013.8 60.1 1014.1 60.5 1014.5 60.9 1014.8 61.2 1015.1 61.6 1015.5 62 1015.8 62.4 1016.2 62.8 1016.5 63.2 1016.9 63.6 1017.2 64 1017.5 64.4 1017.9 64.8 1018.2 65.3 1018.6 65.7 1018.9 66.1 1019.2 66.5 1019.6 66.9 1019.9 67.3 1020.3 67.7 1020.6 68.1 1021 68.5 1021.3 68.9 1021.6 69.2 1022 69.6 1022.3 70 1022.7 70.4 1023 70.8 1023.3 71.1 1023.7 71.5 1024 71.9 1024.4 72.2 1024.7 72.6 1025.1 72.9 1025.4 73.3 1025.7 73.6 1026.1 73.9 1026.4 74.3 1026.8 74.6 1027.1 74.9 1027.5 75.2 1027.8 75.5 1028.1 75.8 1028.5 76.1 1028.8 76.4 1029.2 76.7 1029.5 77 1029.8 77.2 1030.2 77.5 1030.5 77.8 1030.9 78 1031.2 78.3 1031.6 78.5 1031.9 78.7 1032.2 79 1032.6 79.2 1032.9 79.4 1033.3 79.6 1033.6 79.8 1033.9 80 1034.3 80.2 1034.6 80.4 1035 80.6 1035.3 80.7 1035.7 80.9 1036 81.1 1036.3 81.2 1036.7 81.4 1037 81.6 1037.4 81.7 1037.7 81.8 1038 82 1038.4 82.1 1038.7 82.2 1039.1 82.4 1039.4 82.5 1039.8 82.6 1040.1 82.7 1040.4 82.8 1040.8 83 1041.1 83.1 1041.5 83.2 1041.8 83.3 1042.1 83.4 1042.5 83.5 1042.8 83.6 1043.2 83.6 1043.5 83.7 1043.9 83.8 1044.2 83.9 1044.5 84 1044.9 84.1 1045.2 84.2 1045.6 84.2 1045.9 84.3 1046.3 84.4 1046.6 84.5 1046.9 84.5 1047.3 84.6 1047.6 84.7 1048 84.8 1048.3 84.8 1048.6 84.9 1049 85 1049.3 85 1049.7 85.1 1050 85.2 1050.4 85.2 1050.7 85.3 1051 85.4 1051.4 85.4 1051.7 85.5 1052.1 85.6 1052.4 85.6 1052.7 85.7 1053.1 85.7 1053.4 85.8 1053.8 85.9 1054.1 85.9 1054.5 86 1054.8 86 1055.1 86.1 1055.5 86.1 1055.8 86.2 1056.2 86.2 1056.5 86.3 1056.8 86.3 1057.2 86.3 1057.5 86.4 1057.9 86.4 1058.2 86.5 1058.6 86.5 1058.9 86.5 1059.2 86.6 1059.6 86.6 1059.9 86.6 1060.3 86.7 1060.6 86.7 1060.9 86.7 1061.3 86.7 1061.6 86.7 1062 86.8 1062.3 86.8 1062.7 86.8 1063 86.8 1063.3 86.8 1063.7 86.8 1064 86.8 1064.4 86.8 1064.7 86.9 1065.1 86.9 1065.4 86.9 1065.7 86.9 1066.1 86.9 1066.4 86.9 1066.8 86.9 1067.1 86.9 1067.4 86.9 1067.8 86.9 1068.1 86.9 1068.5 86.9 1068.8 86.8 1069.2 86.8 1069.5 86.8 1069.8 86.8 1070.2 86.8 1070.5 86.8 1070.9 86.8 1071.2 86.8 1071.5 86.8 1071.9 86.8 1072.2 86.8 1072.6 86.8 1072.9 86.8 1073.3 86.8 1073.6 86.8 1073.9 86.8 1074.3 86.8 1074.6 86.8 1075 86.8 1075.3 86.8 1075.6 86.8 1076 86.8 1076.3 86.8 1076.7 86.8 1077 86.8 1077.4 86.8 1077.7 86.8 1078 86.8 1078.4 86.8 1078.7 86.8 1079.1 86.8 1079.4 86.9 1079.8 86.9 1080.1 86.9 1080.4 86.9 1080.8 86.9 1081.1 86.9 1081.5 86.9 1081.8 86.9 1082.1 86.9 1082.5 86.9 1082.8 86.9 1083.2 86.9 1083.5 86.9 1083.9 87 1084.2 87 1084.5 87 1084.9 87 1085.2 87 1085.6 87 1085.9 87 1086.2 87 1086.6 87 1086.9 87 1087.3 87 1087.6 87 1088 87 1088.3 87 1088.6 87.1 1089 87.1 1089.3 87.1 1089.7 87.1 1090 87.1 1090.3 87.1 1090.7 87.1 1091 87.1 1091.4 87.1 1091.7 87.1 1092.1 87.1 1092.4 87.2 1092.7 87.2 1093.1 87.2 1093.4 87.2 1093.8 87.2 1094.1 87.2 1094.4 87.3 1094.8 87.3 1095.1 87.3 1095.5 87.3 1095.8 87.3 1096.2 87.4 1096.5 87.4 1096.8 87.4 1097.2 87.4 1097.5 87.5 1097.9 87.5 1098.2 87.5 1098.6 87.5 1098.9 87.6 1099.2 87.6 1099.6 87.6 1099.9 87.7 1100.3 87.7 1100.6 87.7 1100.9 87.7 1101.3 87.8 1101.6 87.8 1102 87.8 1102.3 87.9 1102.7 87.9 1103 87.9 1103.3 88 1103.7 88 1104 88 1104.4 88 1104.7 88.1 1105 88.1 1105.4 88.1 1105.7 88.2 1106.1 88.2 1106.4 88.2 1106.8 88.2 1107.1 88.3 1107.4 88.3 1107.8 88.3 1108.1 88.3 1108.5 88.3 1108.8 88.4 1109.1 88.4 1109.5 88.4 1109.8 88.4 1110.2 88.4 1110.5 88.5 1110.9 88.5 1111.2 88.5 1111.5 88.5 1111.9 88.5 1112.2 88.5 1112.6 88.5 1112.9 88.5 1113.2 88.6 1113.6 88.6 1113.9 88.6 1114.3 88.6 1114.6 88.6 1115 88.6 1115.3 88.6 1115.6 88.6 1116 88.6 1116.3 88.6 1116.7 88.6 1117 88.6 1117.4 88.6 1117.7 88.6 1118 88.6 1118.4 88.6 1118.7 88.6 1119.1 88.6 1119.4 88.7 1119.7 88.7 1120.1 88.7 1120.4 88.7 1120.8 88.7 1121.1 88.7 1121.5 88.7 1121.5 88.7 1121.1 88.7 1120.8 88.7 1120.4 88.7 1120.1 88.7 1119.7 88.7 1119.4 88.7 1119.1 88.7 1118.7 88.7 1118.4 88.7 1118 88.7 1117.7 88.7 1117.4 88.7 1117 88.7 1116.7 88.7 1116.3 88.7 1116 88.7 1115.6 88.7 1115.3 88.7 1115 88.8 1114.6 88.8 1114.3 88.8 1113.9 88.8 1113.6 88.8 1113.2 88.8 1112.9 88.8 1112.6 88.8 1112.2 88.8 1111.9 88.8 1111.5 88.9 1111.2 88.9 1110.9 88.9 1110.5 88.9 1110.2 88.9 1109.8 88.9 1109.5 88.9 1109.1 89 1108.8 89 1108.5 89 1108.1 89 1107.8 89 1107.4 89.1 1107.1 89.1 1106.8 89.1 1106.4 89.1 1106.1 89.2 1105.7 89.2 1105.4 89.2 1105 89.2 1104.7 89.3 1104.4 89.3 1104 89.3 1103.7 89.4 1103.3 89.4 1103 89.4 1102.7 89.5 1102.3 89.5 1102 89.5 1101.6 89.5 1101.3 89.6 1100.9 89.6 1100.6 89.6 1100.3 89.7 1099.9 89.7 1099.6 89.7 1099.2 89.8 1098.9 89.8 1098.6 89.8 1098.2 89.8 1097.9 89.9 1097.5 89.9 1097.2 89.9 1096.8 89.9 1096.5 90 1096.2 90 1095.8 90 1095.5 90 1095.1 90.1 1094.8 90.1 1094.4 90.1 1094.1 90.1 1093.8 90.1 1093.4 90.1 1093.1 90.2 1092.7 90.2 1092.4 90.2 1092.1 90.2 1091.7 90.2 1091.4 90.2 1091 90.2 1090.7 90.2 1090.3 90.3 1090 90.3 1089.7 90.3 1089.3 90.3 1089 90.3 1088.6 90.3 1088.3 90.3 1088 90.3 1087.6 90.3 1087.3 90.3 1086.9 90.3 1086.6 90.3 1086.2 90.3 1085.9 90.4 1085.6 90.4 1085.2 90.4 1084.9 90.4 1084.5 90.4 1084.2 90.4 1083.9 90.4 1083.5 90.4 1083.2 90.4 1082.8 90.4 1082.5 90.4 1082.1 90.4 1081.8 90.4 1081.5 90.5 1081.1 90.5 1080.8 90.5 1080.4 90.5 1080.1 90.5 1079.8 90.5 1079.4 90.5 1079.1 90.5 1078.7 90.5 1078.4 90.5 1078 90.5 1077.7 90.5 1077.4 90.5 1077 90.5 1076.7 90.5 1076.3 90.5 1076 90.6 1075.6 90.6 1075.3 90.6 1075 90.6 1074.6 90.6 1074.3 90.6 1073.9 90.6 1073.6 90.6 1073.3 90.6 1072.9 90.6 1072.6 90.5 1072.2 90.5 1071.9 90.5 1071.5 90.5 1071.2 90.5 1070.9 90.5 1070.5 90.5 1070.2 90.5 1069.8 90.5 1069.5 90.5 1069.2 90.5 1068.8 90.5 1068.5 90.5 1068.1 90.5 1067.8 90.5 1067.4 90.5 1067.1 90.5 1066.8 90.5 1066.4 90.5 1066.1 90.5 1065.7 90.5 1065.4 90.5 1065.1 90.5 1064.7 90.5 1064.4 90.5 1064 90.5 1063.7 90.5 1063.3 90.5 1063 90.5 1062.7 90.6 1062.3 90.6 1062 90.6 1061.6 90.6 1061.3 90.6 1060.9 90.6 1060.6 90.7 1060.3 90.7 1059.9 90.7 1059.6 90.8 1059.2 90.8 1058.9 90.8 1058.6 90.8 1058.2 90.9 1057.9 90.9 1057.5 91 1057.2 91 1056.8 91 1056.5 91.1 1056.2 91.1 1055.8 91.2 1055.5 91.2 1055.1 91.3 1054.8 91.3 1054.5 91.4 1054.1 91.4 1053.8 91.5 1053.4 91.6 1053.1 91.6 1052.7 91.7 1052.4 91.7 1052.1 91.8 1051.7 91.9 1051.4 91.9 1051 92 1050.7 92 1050.4 92.1 1050 92.2 1049.7 92.2 1049.3 92.3 1049 92.4 1048.6 92.5 1048.3 92.5 1048 92.6 1047.6 92.7 1047.3 92.7 1046.9 92.8 1046.6 92.9 1046.3 93 1045.9 93 1045.6 93.1 1045.2 93.2 1044.9 93.3 1044.5 93.4 1044.2 93.4 1043.9 93.5 1043.5 93.6 1043.2 93.7 1042.8 93.8 1042.5 93.9 1042.1 94 1041.8 94.1 1041.5 94.2 1041.1 94.3 1040.8 94.4 1040.4 94.5 1040.1 94.6 1039.8 94.7 1039.4 94.9 1039.1 95 1038.7 95.1 1038.4 95.2 1038 95.4 1037.7 95.5 1037.4 95.6 1037 95.8 1036.7 95.9 1036.3 96.1 1036 96.3 1035.7 96.4 1035.3 96.6 1035 96.8 1034.6 97 1034.3 97.1 1033.9 97.3 1033.6 97.5 1033.3 97.7 1032.9 98 1032.6 98.2 1032.2 98.4 1031.9 98.6 1031.6 98.9 1031.2 99.1 1030.9 99.3 1030.5 99.6 1030.2 99.8 1029.8 100.1 1029.5 100.4 1029.2 100.7 1028.8 100.9 1028.5 101.2 1028.1 101.5 1027.8 101.8 1027.5 102.1 1027.1 102.4 1026.8 102.8 1026.4 103.1 1026.1 103.4 1025.7 103.7 1025.4 104.1 1025.1 104.4 1024.7 104.8 1024.4 105.1 1024 105.5 1023.7 105.8 1023.3 106.2 1023 106.6 1022.7 107 1022.3 107.3 1022 107.7 1021.6 108.1 1021.3 108.5 1021 108.9 1020.6 109.3 1020.3 109.7 1019.9 110.1 1019.6 110.5 1019.2 110.9 1018.9 111.3 1018.6 111.7 1018.2 112.1 1017.9 112.5 1017.5 112.9 1017.2 113.3 1016.9 113.7 1016.5 114.1 1016.2 114.5 1015.8 114.9 1015.5 115.3 1015.1 115.7 1014.8 116.1 1014.5 116.5 1014.1 116.9 1013.8 117.3 1013.4 117.6 1013.1 118 1012.8 118.3 1012.4 118.7 1012.1 119 1011.7 119.4 1011.4 119.7 1011 120 1010.7 120.3 1010.4 120.6 1010 120.9 1009.7 121.2 1009.3 121.4 1009 121.7 1008.6 121.9 1008.3 122.1 1008 122.3 1007.6 122.5 1007.3 122.6 1006.9 122.8 1006.6 122.9 1006.3 123 1005.9 123.1 1005.6 123.2 1005.2 123.2 1004.9 123.2 1004.5 123.2 1004.2 123.2 1003.9 123.2 1003.5 123.1 1003.2 123.1 1002.8 123 1002.5 122.8 1002.2 122.7 1001.8 122.5 1001.5 122.3 1001.1 122.1 1000.8 121.9 1000.4 121.6 1000.1 121.4 999.8 121.1 999.4 120.7 999.1 120.4 998.7 120 998.4 119.7 998.1 119.3 997.7 118.9 997.4 118.4 997 118 996.7 117.5 996.3 117 996 116.6 995.7 116.1 995.3 115.5 995 115 994.6 114.5 994.3 114 994 113.4 993.6 112.8 993.3 112.3 992.9 111.7 992.6 111.2 992.2 110.6 991.9 110 991.6 109.5 991.2 108.9 990.9 108.3 990.5 107.7 990.2 107.2 989.8 106.6 989.5 106.1 989.2 105.5 988.8 105 988.5 104.4 988.1 103.9 987.8 103.4 987.5 102.9 987.1 102.4 986.8 101.9 986.4 101.4 986.1 101 985.7 100.5 985.4 100 985.1 99.6 984.7 99.2 984.4 98.8 984 98.4 983.7 98 983.4 97.6 983 97.2 982.7 96.9 982.3 96.5 982 96.2 981.6 95.9 981.3 95.6 981 95.3 980.6 95 980.3 94.7 979.9 94.4 979.6 94.2 979.3 93.9 978.9 93.7 978.6 93.4 978.2 93.2 977.9 93 977.5 92.8 977.2 92.6 976.9 92.4 976.5 92.3 976.2 92.1 975.8 91.9 975.5 91.8 975.2 91.6 974.8 91.5 974.5 91.3 974.1 91.2 973.8 91.1 973.4 90.9 973.1 90.8 972.8 90.7 972.4 90.6 972.1 90.5 971.7 90.4 971.4 90.3 971 90.2 970.7 90.1 970.4 90.1 970 90 969.7 89.9 969.3 89.8 969 89.8 968.7 89.7 968.3 89.6 968 89.6 967.6 89.5 967.3 89.5 966.9 89.4 966.6 89.4 966.3 89.3 965.9 89.3 965.6 89.3 965.2 89.2 964.9 89.2 964.6 89.1 964.2 89.1 963.9 89.1 963.5 89.1 963.2 89 962.8 89 962.5 89 962.2 89 961.8 88.9 961.5 88.9 961.1 88.9 960.8 88.9 960.5 88.9 960.1 88.8 959.8 88.8 959.4 88.8 959.1 88.8 958.7 88.8 958.4 88.8 958.1 88.8 957.7 88.8 957.4 88.8 957 88.8 956.7 88.7 956.4 88.7 956 88.7 955.7 88.7 955.3 88.7 955 88.7 954.6 88.7 954.3 88.7 954 88.7 953.6 88.7 953.3 88.7 952.9 88.7 952.6 88.7 952.2 88.7 951.9 88.7 951.6 88.7 951.2 88.7 950.9 88.7"/></g></g></g><g fill="none" stroke="currentColor" stroke-linecap="butt" stroke-linejoin="miter" stroke-width="1" color="#000"><path stroke="#000" d="M196.4,54.1 L196.4,192.4 L1255.0,192.4 L1255.0,54.1 L196.4,54.1 Z"/></g></g></svg>