<svg xmlns="http://www.w3.org/2000/svg" xmlns:xlink="http://www.w3.org/1999/xlink" viewBox="0 0 450 300"><title>Gnuplot</title><desc>Produced by GNUPLOT 5.2 patchlevel 2</desc><g id="gnuplot_canvas"><rect width="450" height="300" x="0" y="0" fill="none"/><defs><circle id="gpDot" r=".5" stroke-width=".5"/><path id="gpPt0" stroke="currentColor" stroke-width=".222" d="M-1,0 h2 M0,-1 v2"/><path id="gpPt1" stroke="currentColor" stroke-width=".222" d="M-1,-1 L1,1 M1,-1 L-1,1"/><path id="gpPt2" stroke="currentColor" stroke-width=".222" d="M-1,0 L1,0 M0,-1 L0,1 M-1,-1 L1,1 M-1,1 L1,-1"/><rect id="gpPt3" width="2" height="2" x="-1" y="-1" stroke="currentColor" stroke-width=".222"/><rect id="gpPt4" width="2" height="2" x="-1" y="-1" fill="currentColor" stroke="currentColor" stroke-width=".222"/><circle id="gpPt5" cx="0" cy="0" r="1" stroke="currentColor" stroke-width=".222"/><use id="gpPt6" fill="currentColor" stroke="none" xlink:href="#gpPt5"/><path id="gpPt7" stroke="currentColor" stroke-width=".222" d="M0,-1.33 L-1.33,0.67 L1.33,0.67 z"/><use id="gpPt8" fill="currentColor" stroke="none" xlink:href="#gpPt7"/><use id="gpPt9" stroke="currentColor" transform="rotate(180)" xlink:href="#gpPt7"/><use id="gpPt10" fill="currentColor" stroke="none" xlink:href="#gpPt9"/><use id="gpPt11" stroke="currentColor" transform="rotate(45)" xlink:href="#gpPt3"/><use id="gpPt12" fill="currentColor" stroke="none" xlink:href="#gpPt11"/><path id="gpPt13" stroke="currentColor" stroke-width=".222" d="M0,1.330 L1.265,0.411 L0.782,-1.067 L-0.782,-1.076 L-1.265,0.411 z"/><use id="gpPt14" fill="currentColor" stroke="none" xlink:href="#gpPt13"/><filter id="textbox" width="1" height="1" x="0" y="0" filterUnits="objectBoundingBox"><feFlood flood-color="#fff" flood-opacity="1" result="bgnd"/><feComposite in="SourceGraphic" in2="bgnd" operator="atop"/></filter><filter id="greybox" width="1" height="1" x="0" y="0" filterUnits="objectBoundingBox"><feFlood flood-color="#d3d3d3" flood-opacity="1" result="grey"/><feComposite in="SourceGraphic" in2="grey" operator="atop"/></filter></defs><g fill="none" stroke="currentColor" stroke-linecap="butt" stroke-linejoin="miter" stroke-width="1" color="#000"><path stroke="#000" d="M105.1,242.4 L114.1,242.4"/><g fill="#000" stroke="none" font-family="Helvetica" font-size="12" text-anchor="end"><text transform="translate(96.8,246.3)"><tspan font-family="Helvetica">0</tspan></text></g></g><g fill="none" stroke="currentColor" stroke-linecap="butt" stroke-linejoin="miter" stroke-width="1" color="#000"><path stroke="#000" d="M105.1,205.8 L114.1,205.8"/><g fill="#000" stroke="none" font-family="Helvetica" font-size="12" text-anchor="end"><text transform="translate(96.8,209.7)"><tspan font-family="Helvetica">5x10</tspan><tspan dy="-6" font-family="Helvetica" font-size="9.6">-5</tspan></text></g></g><g fill="none" stroke="currentColor" stroke-linecap="butt" stroke-linejoin="miter" stroke-width="1" color="#000"><path stroke="#000" d="M105.1,169.1 L114.1,169.1"/><g fill="#000" stroke="none" font-family="Helvetica" font-size="12" text-anchor="end"><text transform="translate(96.8,173.0)"><tspan font-family="Helvetica">0.0001</tspan></text></g></g><g fill="none" stroke="currentColor" stroke-linecap="butt" stroke-linejoin="miter" stroke-width="1" color="#000"><path stroke="#000" d="M105.1,132.5 L114.1,132.5"/><g fill="#000" stroke="none" font-family="Helvetica" font-size="12" text-anchor="end"><text transform="translate(96.8,136.4)"><tspan font-family="Helvetica">0.00015</tspan></text></g></g><g fill="none" stroke="currentColor" stroke-linecap="butt" stroke-linejoin="miter" stroke-width="1" color="#000"><path stroke="#000" d="M105.1,95.9 L114.1,95.9"/><g fill="#000" stroke="none" font-family="Helvetica" font-size="12" text-anchor="end"><text transform="translate(96.8,99.8)"><tspan font-family="Helvetica">0.0002</tspan></text></g></g><g fill="none" stroke="currentColor" stroke-linecap="butt" stroke-linejoin="miter" stroke-width="1" color="#000"><path stroke="#000" d="M105.1,59.2 L114.1,59.2"/><g fill="#000" stroke="none" font-family="Helvetica" font-size="12" text-anchor="end"><text transform="translate(96.8,63.1)"><tspan font-family="Helvetica">0.00025</tspan></text></g></g><g fill="none" stroke="currentColor" stroke-linecap="butt" stroke-linejoin="miter" stroke-width="1" color="#000"><path stroke="#000" d="M105.1,22.6 L114.1,22.6"/><g fill="#000" stroke="none" font-family="Helvetica" font-size="12" text-anchor="end"><text transform="translate(96.8,26.5)"><tspan font-family="Helvetica">0.0003</tspan></text></g></g><g fill="none" stroke="currentColor" stroke-linecap="butt" stroke-linejoin="miter" stroke-width="1" color="#000"><path stroke="#000" d="M146.6,242.4 L146.6,233.4"/><g fill="#000" stroke="none" font-family="Helvetica" font-size="12" text-anchor="middle"><text transform="translate(146.6,264.3)"><tspan font-family="Helvetica">30</tspan></text></g></g><g fill="none" stroke="currentColor" stroke-linecap="butt" stroke-linejoin="miter" stroke-width="1" color="#000"><path stroke="#000" d="M205.8,242.4 L205.8,233.4"/><g fill="#000" stroke="none" font-family="Helvetica" font-size="12" text-anchor="middle"><text transform="translate(205.8,264.3)"><tspan font-family="Helvetica">35</tspan></text></g></g><g fill="none" stroke="currentColor" stroke-linecap="butt" stroke-linejoin="miter" stroke-width="1" color="#000"><path stroke="#000" d="M265.0,242.4 L265.0,233.4"/><g fill="#000" stroke="none" font-family="Helvetica" font-size="12" text-anchor="middle"><text transform="translate(265.0,264.3)"><tspan font-family="Helvetica">40</tspan></text></g></g><g fill="none" stroke="currentColor" stroke-linecap="butt" stroke-linejoin="miter" stroke-width="1" color="#000"><path stroke="#000" d="M324.3,242.4 L324.3,233.4"/><g fill="#000" stroke="none" font-family="Helvetica" font-size="12" text-anchor="middle"><text transform="translate(324.3,264.3)"><tspan font-family="Helvetica">45</tspan></text></g></g><g fill="none" stroke="currentColor" stroke-linecap="butt" stroke-linejoin="miter" stroke-width="1" color="#000"><path stroke="#000" d="M383.5,242.4 L383.5,233.4"/><g fill="#000" stroke="none" font-family="Helvetica" font-size="12" text-anchor="middle"><text transform="translate(383.5,264.3)"><tspan font-family="Helvetica">50</tspan></text></g></g><g fill="none" stroke="currentColor" stroke-linecap="butt" stroke-linejoin="miter" stroke-width="1" color="#000"><path stroke="#000" d="M105.1,18.1 L105.1,242.4 L425.0,242.4 L425.0,18.1 L105.1,18.1 Z"/></g><g fill="none" stroke="currentColor" stroke-linecap="butt" stroke-linejoin="miter" stroke-width="1" color="#000"><g fill="#000" stroke="none" font-family="Helvetica" font-size="12" text-anchor="middle"><text transform="translate(16.3,130.3) rotate(270)"><tspan font-family="Helvetica">Density (a.u.)</tspan></text></g></g><g fill="none" stroke="currentColor" stroke-linecap="butt" stroke-linejoin="miter" stroke-width="1" color="#000"><g fill="#000" stroke="none" font-family="Helvetica" font-size="12" text-anchor="middle"><text transform="translate(265.0,291.3)"><tspan font-family="Helvetica">Average time (us)</tspan></text></g></g><g id="gnuplot_plot_1"><title>PDF</title><g fill="none" stroke="currentColor" stroke-linecap="butt" stroke-linejoin="miter" stroke-width="1" color="#000"><g stroke="none" shape-rendering="crispEdges"><polygon fill="#1F78B4" fill-opacity=".25" points="105.1 242 105.7 241.9 106.4 241.8 107 241.8 107.7 241.7 108.3 241.5 108.9 241.4 109.6 241.3 110.2 241.1 110.9 240.9 111.5 240.7 112.2 240.5 112.8 240.2 113.4 239.9 114.1 239.6 114.7 239.2 115.4 238.8 116 238.3 116.6 237.8 117.3 237.2 117.9 236.6 118.6 235.9 119.2 235.1 119.8 234.3 120.5 233.3 121.1 232.3 121.8 231.2 122.4 230 123.1 228.7 123.7 227.3 124.3 225.7 125 224.1 125.6 222.3 126.3 220.3 126.9 218.3 127.5 216 128.2 213.7 128.8 211.1 129.5 208.4 130.1 205.6 130.7 202.5 131.4 199.3 132 195.9 132.7 192.4 133.3 188.7 133.9 184.8 134.6 180.7 135.2 176.4 135.9 172 136.5 167.4 137.2 162.7 137.8 157.8 138.4 152.8 139.1 147.7 139.7 142.4 140.4 137 141 131.6 141.6 126 142.3 120.4 142.9 114.8 143.6 109.1 144.2 103.4 144.8 97.8 145.5 92.1 146.1 86.6 146.8 81.1 147.4 75.7 148.1 70.4 148.7 65.3 149.3 60.3 150 55.5 150.6 50.9 151.3 46.6 151.9 42.5 152.5 38.6 153.2 35.1 153.8 31.8 154.5 28.9 155.1 26.3 155.7 24 156.4 22.1 157 20.6 157.7 19.4 158.3 18.6 159 18.2 159.6 18.1 160.2 18.4 160.9 19.1 161.5 20.1 162.2 21.6 162.8 23.3 163.4 25.4 164.1 27.8 164.7 30.6 165.4 33.6 166 37 166.6 40.6 167.3 44.4 167.9 48.5 168.6 52.7 169.2 57.2 169.8 61.8 170.5 66.6 171.1 71.5 171.8 76.5 172.4 81.6 173.1 86.8 173.7 92 174.3 97.3 175 102.5 175.6 107.7 176.3 112.9 176.9 118.1 177.5 123.2 178.2 128.2 178.8 133.2 179.5 138 180.1 142.8 180.7 147.4 181.4 152 182 156.3 182.7 160.6 183.3 164.7 184 168.7 184.6 172.5 185.2 176.2 185.9 179.7 186.5 183.1 187.2 186.4 187.8 189.5 188.4 192.4 189.1 195.2 189.7 197.9 190.4 200.5 191 202.9 191.6 205.2 192.3 207.3 192.9 209.4 193.6 211.3 194.2 213.1 194.9 214.8 195.5 216.5 196.1 218 196.8 219.4 197.4 220.8 198.1 222 198.7 223.2 199.3 224.3 200 225.4 200.6 226.4 201.3 227.3 201.9 228.1 202.5 228.9 203.2 229.7 203.8 230.4 204.5 231 205.1 231.7 205.7 232.2 206.4 232.8 207 233.2 207.7 233.7 208.3 234.1 209 234.5 209.6 234.9 210.2 235.2 210.9 235.5 211.5 235.8 212.2 236 212.8 236.3 213.4 236.5 214.1 236.7 214.7 236.8 215.4 237 216 237.1 216.6 237.2 217.3 237.3 217.9 237.4 218.6 237.5 219.2 237.6 219.9 237.6 220.5 237.7 221.1 237.7 221.8 237.7 222.4 237.8 223.1 237.8 223.7 237.8 224.3 237.8 225 237.8 225.6 237.8 226.3 237.8 226.9 237.8 227.5 237.8 228.2 237.8 228.8 237.8 229.5 237.8 230.1 237.8 230.8 237.8 231.4 237.8 232 237.8 232.7 237.8 233.3 237.8 234 237.8 234.6 237.8 235.2 237.9 235.9 237.9 236.5 237.9 237.2 237.9 237.8 238 238.4 238 239.1 238.1 239.7 238.1 240.4 238.2 241 238.2 241.7 238.3 242.3 238.4 242.9 238.4 243.6 238.5 244.2 238.6 244.9 238.7 245.5 238.7 246.1 238.8 246.8 238.9 247.4 239 248.1 239.1 248.7 239.2 249.3 239.3 250 239.4 250.6 239.5 251.3 239.6 251.9 239.7 252.5 239.8 253.2 239.9 253.8 240 254.5 240.1 255.1 240.2 255.8 240.3 256.4 240.4 257 240.5 257.7 240.6 258.3 240.7 259 240.8 259.6 240.9 260.2 241 260.9 241 261.5 241.1 262.2 241.2 262.8 241.3 263.4 241.3 264.1 241.4 264.7 241.5 265.4 241.5 266 241.6 266.7 241.7 267.3 241.7 267.9 241.8 268.6 241.8 269.2 241.9 269.9 241.9 270.5 241.9 271.1 242 271.8 242 272.4 242 273.1 242.1 273.7 242.1 274.3 242.1 275 242.2 275.6 242.2 276.3 242.2 276.9 242.2 277.6 242.2 278.2 242.2 278.8 242.3 279.5 242.3 280.1 242.3 280.8 242.3 281.4 242.3 282 242.3 282.7 242.3 283.3 242.3 284 242.3 284.6 242.3 285.2 242.3 285.9 242.3 286.5 242.3 287.2 242.3 287.8 242.3 288.4 242.3 289.1 242.3 289.7 242.2 290.4 242.2 291 242.2 291.7 242.2 292.3 242.2 292.9 242.1 293.6 242.1 294.2 242.1 294.9 242.1 295.5 242 296.1 242 296.8 242 297.4 241.9 298.1 241.9 298.7 241.8 299.3 241.8 300 241.7 300.6 241.7 301.3 241.6 301.9 241.5 302.6 241.5 303.2 241.4 303.8 241.3 304.5 241.2 305.1 241.2 305.8 241.1 306.4 241 307 240.9 307.7 240.8 308.3 240.7 309 240.6 309.6 240.5 310.2 240.4 310.9 240.3 311.5 240.1 312.2 240 312.8 239.9 313.5 239.8 314.1 239.7 314.7 239.5 315.4 239.4 316 239.3 316.7 239.2 317.3 239 317.9 238.9 318.6 238.8 319.2 238.7 319.9 238.6 320.5 238.5 321.1 238.4 321.8 238.3 322.4 238.2 323.1 238.1 323.7 238 324.4 237.9 325 237.8 325.6 237.8 326.3 237.7 326.9 237.7 327.6 237.6 328.2 237.6 328.8 237.5 329.5 237.5 330.1 237.5 330.8 237.5 331.4 237.5 332 237.5 332.7 237.5 333.3 237.5 334 237.6 334.6 237.6 335.2 237.7 335.9 237.7 336.5 237.8 337.2 237.9 337.8 237.9 338.5 238 339.1 238.1 339.7 238.2 340.4 238.3 341 238.4 341.7 238.5 342.3 238.6 342.9 238.7 343.6 238.8 344.2 238.9 344.9 239 345.5 239.1 346.1 239.2 346.8 239.3 347.4 239.4 348.1 239.5 348.7 239.6 349.4 239.7 350 239.8 350.6 239.9 351.3 240 351.9 240.1 352.6 240.2 353.2 240.2 353.8 240.3 354.5 240.4 355.1 240.4 355.8 240.5 356.4 240.5 357 240.5 357.7 240.6 358.3 240.6 359 240.6 359.6 240.6 360.3 240.6 360.9 240.7 361.5 240.6 362.2 240.6 362.8 240.6 363.5 240.6 364.1 240.6 364.7 240.6 365.4 240.5 366 240.5 366.7 240.5 367.3 240.4 367.9 240.4 368.6 240.4 369.2 240.3 369.9 240.3 370.5 240.2 371.1 240.2 371.8 240.1 372.4 240.1 373.1 240 373.7 240 374.4 240 375 239.9 375.6 239.9 376.3 239.9 376.9 239.8 377.6 239.8 378.2 239.8 378.8 239.8 379.5 239.8 380.1 239.8 380.8 239.8 381.4 239.8 382 239.8 382.7 239.8 383.3 239.8 384 239.8 384.6 239.9 385.3 239.9 385.9 239.9 386.5 240 387.2 240 387.8 240 388.5 240.1 389.1 240.1 389.7 240.2 390.4 240.3 391 240.3 391.7 240.4 392.3 240.4 392.9 240.5 393.6 240.6 394.2 240.6 394.9 240.7 395.5 240.8 396.2 240.9 396.8 240.9 397.4 241 398.1 241.1 398.7 241.1 399.4 241.2 400 241.3 400.6 241.3 401.3 241.4 401.9 241.4 402.6 241.5 403.2 241.6 403.8 241.6 404.5 241.7 405.1 241.7 405.8 241.8 406.4 241.8 407 241.9 407.7 241.9 408.3 241.9 409 242 409.6 242 410.3 242 410.9 242.1 411.5 242.1 412.2 242.1 412.8 242.2 413.5 242.2 414.1 242.2 414.7 242.2 415.4 242.2 416 242.2 416.7 242.3 417.3 242.3 417.9 242.3 418.6 242.3 419.2 242.3 419.9 242.3 420.5 242.3 421.2 242.3 421.8 242.3 422.4 242.4 423.1 242.4 423.7 242.4 424.4 242.4 425 242.4 425 242.4 424.4 242.4 423.7 242.4 423.1 242.4 422.4 242.4 421.8 242.4 421.2 242.4 420.5 242.4 419.9 242.4 419.2 242.4 418.6 242.4 417.9 242.4 417.3 242.4 416.7 242.4 416 242.4 415.4 242.4 414.7 242.4 414.1 242.4 413.5 242.4 412.8 242.4 412.2 242.4 411.5 242.4 410.9 242.4 410.3 242.4 409.6 242.4 409 242.4 408.3 242.4 407.7 242.4 407 242.4 406.4 242.4 405.8 242.4 405.1 242.4 404.5 242.4 403.8 242.4 403.2 242.4 402.6 242.4 401.9 242.4 401.3 242.4 400.6 242.4 400 242.4 399.4 242.4 398.7 242.4 398.1 242.4 397.4 242.4 396.8 242.4 396.2 242.4 395.5 242.4 394.9 242.4 394.2 242.4 393.6 242.4 392.9 242.4 392.3 242.4 391.7 242.4 391 242.4 390.4 242.4 389.7 242.4 389.1 242.4 388.5 242.4 387.8 242.4 387.2 242.4 386.5 242.4 385.9 242.4 385.3 242.4 384.6 242.4 384 242.4 383.3 242.4 382.7 242.4 382 242.4 381.4 242.4 380.8 242.4 380.1 242.4 379.5 242.4 378.8 242.4 378.2 242.4 377.6 242.4 376.9 242.4 376.3 242.4 375.6 242.4 375 242.4 374.4 242.4 373.7 242.4 373.1 242.4 372.4 242.4 371.8 242.4 371.1 242.4 370.5 242.4 369.9 242.4 369.2 242.4 368.6 242.4 367.9 242.4 367.3 242.4 366.7 242.4 366 242.4 365.4 242.4 364.7 242.4 364.1 242.4 363.5 242.4 362.8 242.4 362.2 242.4 361.5 242.4 360.9 242.4 360.3 242.4 359.6 242.4 359 242.4 358.3 242.4 357.7 242.4 357 242.4 356.4 242.4 355.8 242.4 355.1 242.4 354.5 242.4 353.8 242.4 353.2 242.4 352.6 242.4 351.9 242.4 351.3 242.4 350.6 242.4 350 242.4 349.4 242.4 348.7 242.4 348.1 242.4 347.4 242.4 346.8 242.4 346.1 242.4 345.5 242.4 344.9 242.4 344.2 242.4 343.6 242.4 342.9 242.4 342.3 242.4 341.7 242.4 341 242.4 340.4 242.4 339.7 242.4 339.1 242.4 338.5 242.4 337.8 242.4 337.2 242.4 336.5 242.4 335.9 242.4 335.2 242.4 334.6 242.4 334 242.4 333.3 242.4 332.7 242.4 332 242.4 331.4 242.4 330.8 242.4 330.1 242.4 329.5 242.4 328.8 242.4 328.2 242.4 327.6 242.4 326.9 242.4 326.3 242.4 325.6 242.4 325 242.4 324.4 242.4 323.7 242.4 323.1 242.4 322.4 242.4 321.8 242.4 321.1 242.4 320.5 242.4 319.9 242.4 319.2 242.4 318.6 242.4 317.9 242.4 317.3 242.4 316.7 242.4 316 242.4 315.4 242.4 314.7 242.4 314.1 242.4 313.5 242.4 312.8 242.4 312.2 242.4 311.5 242.4 310.9 242.4 310.2 242.4 309.6 242.4 309 242.4 308.3 242.4 307.7 242.4 307 242.4 306.4 242.4 305.8 242.4 305.1 242.4 304.5 242.4 303.8 242.4 303.2 242.4 302.6 242.4 301.9 242.4 301.3 242.4 300.6 242.4 300 242.4 299.3 242.4 298.7 242.4 298.1 242.4 297.4 242.4 296.8 242.4 296.1 242.4 295.5 242.4 294.9 242.4 294.2 242.4 293.6 242.4 292.9 242.4 292.3 242.4 291.7 242.4 291 242.4 290.4 242.4 289.7 242.4 289.1 242.4 288.4 242.4 287.8 242.4 287.2 242.4 286.5 242.4 285.9 242.4 285.2 242.4 284.6 242.4 284 242.4 283.3 242.4 282.7 242.4 282 242.4 281.4 242.4 280.8 242.4 280.1 242.4 279.5 242.4 278.8 242.4 278.2 242.4 277.6 242.4 276.9 242.4 276.3 242.4 275.6 242.4 275 242.4 274.3 242.4 273.7 242.4 273.1 242.4 272.4 242.4 271.8 242.4 271.1 242.4 270.5 242.4 269.9 242.4 269.2 242.4 268.6 242.4 267.9 242.4 267.3 242.4 266.7 242.4 266 242.4 265.4 242.4 264.7 242.4 264.1 242.4 263.4 242.4 262.8 242.4 262.2 242.4 261.5 242.4 260.9 242.4 260.2 242.4 259.6 242.4 259 242.4 258.3 242.4 257.7 242.4 257 242.4 256.4 242.4 255.8 242.4 255.1 242.4 254.5 242.4 253.8 242.4 253.2 242.4 252.5 242.4 251.9 242.4 251.3 242.4 250.6 242.4 250 242.4 249.3 242.4 248.7 242.4 248.1 242.4 247.4 242.4 246.8 242.4 246.1 242.4 245.5 242.4 244.9 242.4 244.2 242.4 243.6 242.4 242.9 242.4 242.3 242.4 241.7 242.4 241 242.4 240.4 242.4 239.7 242.4 239.1 242.4 238.4 242.4 237.8 242.4 237.2 242.4 236.5 242.4 235.9 242.4 235.2 242.4 234.6 242.4 234 242.4 233.3 242.4 232.7 242.4 232 242.4 231.4 242.4 230.8 242.4 230.1 242.4 229.5 242.4 228.8 242.4 228.2 242.4 227.5 242.4 226.9 242.4 226.3 242.4 225.6 242.4 225 242.4 224.3 242.4 223.7 242.4 223.1 242.4 222.4 242.4 221.8 242.4 221.1 242.4 220.5 242.4 219.9 242.4 219.2 242.4 218.6 242.4 217.9 242.4 217.3 242.4 216.6 242.4 216 242.4 215.4 242.4 214.7 242.4 214.1 242.4 213.4 242.4 212.8 242.4 212.2 242.4 211.5 242.4 210.9 242.4 210.2 242.4 209.6 242.4 209 242.4 208.3 242.4 207.7 242.4 207 242.4 206.4 242.4 205.7 242.4 205.1 242.4 204.5 242.4 203.8 242.4 203.2 242.4 202.5 242.4 201.9 242.4 201.3 242.4 200.6 242.4 200 242.4 199.3 242.4 198.7 242.4 198.1 242.4 197.4 242.4 196.8 242.4 196.1 242.4 195.5 242.4 194.9 242.4 194.2 242.4 193.6 242.4 192.9 242.4 192.3 242.4 191.6 242.4 191 242.4 190.4 242.4 189.7 242.4 189.1 242.4 188.4 242.4 187.8 242.4 187.2 242.4 186.5 242.4 185.9 242.4 185.2 242.4 184.6 242.4 184 242.4 183.3 242.4 182.7 242.4 182 242.4 181.4 242.4 180.7 242.4 180.1 242.4 179.5 242.4 178.8 242.4 178.2 242.4 177.5 242.4 176.9 242.4 176.3 242.4 175.6 242.4 175 242.4 174.3 242.4 173.7 242.4 173.1 242.4 172.4 242.4 171.8 242.4 171.1 242.4 170.5 242.4 169.8 242.4 169.2 242.4 168.6 242.4 167.9 242.4 167.3 242.4 166.6 242.4 166 242.4 165.4 242.4 164.7 242.4 164.1 242.4 163.4 242.4 162.8 242.4 162.2 242.4 161.5 242.4 160.9 242.4 160.2 242.4 159.6 242.4 159 242.4 158.3 242.4 157.7 242.4 157 242.4 156.4 242.4 155.7 242.4 155.1 242.4 154.5 242.4 153.8 242.4 153.2 242.4 152.5 242.4 151.9 242.4 151.3 242.4 150.6 242.4 150 242.4 149.3 242.4 148.7 242.4 148.1 242.4 147.4 242.4 146.8 242.4 146.1 242.4 145.5 242.4 144.8 242.4 144.2 242.4 143.6 242.4 142.9 242.4 142.3 242.4 141.6 242.4 141 242.4 140.4 242.4 139.7 242.4 139.1 242.4 138.4 242.4 137.8 242.4 137.2 242.4 136.5 242.4 135.9 242.4 135.2 242.4 134.6 242.4 133.9 242.4 133.3 242.4 132.7 242.4 132 242.4 131.4 242.4 130.7 242.4 130.1 242.4 129.5 242.4 128.8 242.4 128.2 242.4 127.5 242.4 126.9 242.4 126.3 242.4 125.6 242.4 125 242.4 124.3 242.4 123.7 242.4 123.1 242.4 122.4 242.4 121.8 242.4 121.1 242.4 120.5 242.4 119.8 242.4 119.2 242.4 118.6 242.4 117.9 242.4 117.3 242.4 116.6 242.4 116 242.4 115.4 242.4 114.7 242.4 114.1 242.4 113.4 242.4 112.8 242.4 112.2 242.4 111.5 242.4 110.9 242.4 110.2 242.4 109.6 242.4 108.9 242.4 108.3 242.4 107.7 242.4 107 242.4 106.4 242.4 105.7 242.4 105.1 242.4"/></g></g></g><g id="gnuplot_plot_2"><title>Mean</title><g fill="none" stroke="currentColor" stroke-linecap="butt" stroke-linejoin="miter" stroke-width="2" color="#000"><path stroke="#1F78B4" d="M167.9,242.4 L167.9,66.0"/></g></g><g fill="none" stroke="currentColor" stroke-linecap="butt" stroke-linejoin="miter" stroke-width="1" color="#000"><path stroke="#000" d="M105.1,18.1 L105.1,242.4 L425.0,242.4 L425.0,18.1 L105.1,18.1 Z"/></g></g></svg>