<svg xmlns="http://www.w3.org/2000/svg" xmlns:xlink="http://www.w3.org/1999/xlink" viewBox="0 0 450 300"><title>Gnuplot</title><desc>Produced by GNUPLOT 5.2 patchlevel 2</desc><g id="gnuplot_canvas"><rect width="450" height="300" x="0" y="0" fill="none"/><defs><circle id="gpDot" r=".5" stroke-width=".5"/><path id="gpPt0" stroke="currentColor" stroke-width=".222" d="M-1,0 h2 M0,-1 v2"/><path id="gpPt1" stroke="currentColor" stroke-width=".222" d="M-1,-1 L1,1 M1,-1 L-1,1"/><path id="gpPt2" stroke="currentColor" stroke-width=".222" d="M-1,0 L1,0 M0,-1 L0,1 M-1,-1 L1,1 M-1,1 L1,-1"/><rect id="gpPt3" width="2" height="2" x="-1" y="-1" stroke="currentColor" stroke-width=".222"/><rect id="gpPt4" width="2" height="2" x="-1" y="-1" fill="currentColor" stroke="currentColor" stroke-width=".222"/><circle id="gpPt5" cx="0" cy="0" r="1" stroke="currentColor" stroke-width=".222"/><use id="gpPt6" fill="currentColor" stroke="none" xlink:href="#gpPt5"/><path id="gpPt7" stroke="currentColor" stroke-width=".222" d="M0,-1.33 L-1.33,0.67 L1.33,0.67 z"/><use id="gpPt8" fill="currentColor" stroke="none" xlink:href="#gpPt7"/><use id="gpPt9" stroke="currentColor" transform="rotate(180)" xlink:href="#gpPt7"/><use id="gpPt10" fill="currentColor" stroke="none" xlink:href="#gpPt9"/><use id="gpPt11" stroke="currentColor" transform="rotate(45)" xlink:href="#gpPt3"/><use id="gpPt12" fill="currentColor" stroke="none" xlink:href="#gpPt11"/><path id="gpPt13" stroke="currentColor" stroke-width=".222" d="M0,1.330 L1.265,0.411 L0.782,-1.067 L-0.782,-1.076 L-1.265,0.411 z"/><use id="gpPt14" fill="currentColor" stroke="none" xlink:href="#gpPt13"/><filter id="textbox" width="1" height="1" x="0" y="0" filterUnits="objectBoundingBox"><feFlood flood-color="#fff" flood-opacity="1" result="bgnd"/><feComposite in="SourceGraphic" in2="bgnd" operator="atop"/></filter><filter id="greybox" width="1" height="1" x="0" y="0" filterUnits="objectBoundingBox"><feFlood flood-color="#d3d3d3" flood-opacity="1" result="grey"/><feComposite in="SourceGraphic" in2="grey" operator="atop"/></filter></defs><g fill="none" stroke="currentColor" stroke-linecap="butt" stroke-linejoin="miter" stroke-width=".5" color="gray"><path stroke="gray" stroke-dasharray="2 4" d="M71.9,224.4 L425.0,224.4" class="gridline"/></g><g fill="none" stroke="currentColor" stroke-linecap="butt" stroke-linejoin="miter" stroke-width="1" color="#000"><path stroke="#000" d="M71.9,224.4 L80.9,224.4"/><g fill="#000" stroke="none" font-family="Helvetica" font-size="12" text-anchor="end"><text transform="translate(63.6,228.3)"><tspan font-family="Helvetica">0</tspan></text></g></g><g fill="none" stroke="currentColor" stroke-linecap="butt" stroke-linejoin="miter" stroke-width=".5" color="gray"><path stroke="gray" stroke-dasharray="2 4" d="M71.9,190.0 L425.0,190.0" class="gridline"/></g><g fill="none" stroke="currentColor" stroke-linecap="butt" stroke-linejoin="miter" stroke-width="1" color="#000"><path stroke="#000" d="M71.9,190.0 L80.9,190.0"/><g fill="#000" stroke="none" font-family="Helvetica" font-size="12" text-anchor="end"><text transform="translate(63.6,193.9)"><tspan font-family="Helvetica">20</tspan></text></g></g><g fill="none" stroke="currentColor" stroke-linecap="butt" stroke-linejoin="miter" stroke-width=".5" color="gray"><path stroke="gray" stroke-dasharray="2 4" d="M71.9,155.6 L425.0,155.6" class="gridline"/></g><g fill="none" stroke="currentColor" stroke-linecap="butt" stroke-linejoin="miter" stroke-width="1" color="#000"><path stroke="#000" d="M71.9,155.6 L80.9,155.6"/><g fill="#000" stroke="none" font-family="Helvetica" font-size="12" text-anchor="end"><text transform="translate(63.6,159.5)"><tspan font-family="Helvetica">40</tspan></text></g></g><g fill="none" stroke="currentColor" stroke-linecap="butt" stroke-linejoin="miter" stroke-width=".5" color="gray"><path stroke="gray" stroke-dasharray="2 4" d="M71.9,121.2 L425.0,121.2" class="gridline"/></g><g fill="none" stroke="currentColor" stroke-linecap="butt" stroke-linejoin="miter" stroke-width="1" color="#000"><path stroke="#000" d="M71.9,121.2 L80.9,121.2"/><g fill="#000" stroke="none" font-family="Helvetica" font-size="12" text-anchor="end"><text transform="translate(63.6,125.1)"><tspan font-family="Helvetica">60</tspan></text></g></g><g fill="none" stroke="currentColor" stroke-linecap="butt" stroke-linejoin="miter" stroke-width=".5" color="gray"><path stroke="gray" stroke-dasharray="2 4" d="M71.9,86.9 L425.0,86.9" class="gridline"/></g><g fill="none" stroke="currentColor" stroke-linecap="butt" stroke-linejoin="miter" stroke-width="1" color="#000"><path stroke="#000" d="M71.9,86.9 L80.9,86.9"/><g fill="#000" stroke="none" font-family="Helvetica" font-size="12" text-anchor="end"><text transform="translate(63.6,90.8)"><tspan font-family="Helvetica">80</tspan></text></g></g><g fill="none" stroke="currentColor" stroke-linecap="butt" stroke-linejoin="miter" stroke-width=".5" color="gray"><path stroke="gray" stroke-dasharray="2 4" d="M71.9,52.5 L425.0,52.5" class="gridline"/></g><g fill="none" stroke="currentColor" stroke-linecap="butt" stroke-linejoin="miter" stroke-width="1" color="#000"><path stroke="#000" d="M71.9,52.5 L80.9,52.5"/><g fill="#000" stroke="none" font-family="Helvetica" font-size="12" text-anchor="end"><text transform="translate(63.6,56.4)"><tspan font-family="Helvetica">100</tspan></text></g></g><g fill="none" stroke="currentColor" stroke-linecap="butt" stroke-linejoin="miter" stroke-width=".5" color="gray"><path stroke="gray" stroke-dasharray="2 4" d="M71.9,18.1 L425.0,18.1" class="gridline"/></g><g fill="none" stroke="currentColor" stroke-linecap="butt" stroke-linejoin="miter" stroke-width="1" color="#000"><path stroke="#000" d="M71.9,18.1 L80.9,18.1"/><g fill="#000" stroke="none" font-family="Helvetica" font-size="12" text-anchor="end"><text transform="translate(63.6,22.0)"><tspan font-family="Helvetica">120</tspan></text></g></g><g fill="none" stroke="currentColor" stroke-linecap="butt" stroke-linejoin="miter" stroke-width=".5" color="gray"><path stroke="gray" stroke-dasharray="2 4" d="M71.9,224.4 L71.9,18.1" class="gridline"/></g><g fill="none" stroke="currentColor" stroke-linecap="butt" stroke-linejoin="miter" stroke-width="1" color="#000"><path stroke="#000" d="M71.9,224.4 L71.9,215.4"/><g fill="#000" stroke="none" font-family="Helvetica" font-size="12" text-anchor="middle"><text transform="translate(71.9,246.3)"><tspan font-family="Helvetica">0</tspan></text></g></g><g fill="none" stroke="currentColor" stroke-linecap="butt" stroke-linejoin="miter" stroke-width=".5" color="gray"><path stroke="gray" stroke-dasharray="2 4" d="M122.3,224.4 L122.3,18.1" class="gridline"/></g><g fill="none" stroke="currentColor" stroke-linecap="butt" stroke-linejoin="miter" stroke-width="1" color="#000"><path stroke="#000" d="M122.3,224.4 L122.3,215.4"/><g fill="#000" stroke="none" font-family="Helvetica" font-size="12" text-anchor="middle"><text transform="translate(122.3,246.3)"><tspan font-family="Helvetica">0.5</tspan></text></g></g><g fill="none" stroke="currentColor" stroke-linecap="butt" stroke-linejoin="miter" stroke-width=".5" color="gray"><path stroke="gray" stroke-dasharray="2 4" d="M172.8,224.4 L172.8,18.1" class="gridline"/></g><g fill="none" stroke="currentColor" stroke-linecap="butt" stroke-linejoin="miter" stroke-width="1" color="#000"><path stroke="#000" d="M172.8,224.4 L172.8,215.4"/><g fill="#000" stroke="none" font-family="Helvetica" font-size="12" text-anchor="middle"><text transform="translate(172.8,246.3)"><tspan font-family="Helvetica">1</tspan></text></g></g><g fill="none" stroke="currentColor" stroke-linecap="butt" stroke-linejoin="miter" stroke-width=".5" color="gray"><path stroke="gray" stroke-dasharray="2 4" d="M223.2,224.4 L223.2,18.1" class="gridline"/></g><g fill="none" stroke="currentColor" stroke-linecap="butt" stroke-linejoin="miter" stroke-width="1" color="#000"><path stroke="#000" d="M223.2,224.4 L223.2,215.4"/><g fill="#000" stroke="none" font-family="Helvetica" font-size="12" text-anchor="middle"><text transform="translate(223.2,246.3)"><tspan font-family="Helvetica">1.5</tspan></text></g></g><g fill="none" stroke="currentColor" stroke-linecap="butt" stroke-linejoin="miter" stroke-width=".5" color="gray"><path stroke="gray" stroke-dasharray="2 4" d="M273.7,224.4 L273.7,18.1" class="gridline"/></g><g fill="none" stroke="currentColor" stroke-linecap="butt" stroke-linejoin="miter" stroke-width="1" color="#000"><path stroke="#000" d="M273.7,224.4 L273.7,215.4"/><g fill="#000" stroke="none" font-family="Helvetica" font-size="12" text-anchor="middle"><text transform="translate(273.7,246.3)"><tspan font-family="Helvetica">2</tspan></text></g></g><g fill="none" stroke="currentColor" stroke-linecap="butt" stroke-linejoin="miter" stroke-width=".5" color="gray"><path stroke="gray" stroke-dasharray="2 4" d="M324.1,224.4 L324.1,18.1" class="gridline"/></g><g fill="none" stroke="currentColor" stroke-linecap="butt" stroke-linejoin="miter" stroke-width="1" color="#000"><path stroke="#000" d="M324.1,224.4 L324.1,215.4"/><g fill="#000" stroke="none" font-family="Helvetica" font-size="12" text-anchor="middle"><text transform="translate(324.1,246.3)"><tspan font-family="Helvetica">2.5</tspan></text></g></g><g fill="none" stroke="currentColor" stroke-linecap="butt" stroke-linejoin="miter" stroke-width=".5" color="gray"><path stroke="gray" stroke-dasharray="2 4" d="M374.6,224.4 L374.6,18.1" class="gridline"/></g><g fill="none" stroke="currentColor" stroke-linecap="butt" stroke-linejoin="miter" stroke-width="1" color="#000"><path stroke="#000" d="M374.6,224.4 L374.6,215.4"/><g fill="#000" stroke="none" font-family="Helvetica" font-size="12" text-anchor="middle"><text transform="translate(374.6,246.3)"><tspan font-family="Helvetica">3</tspan></text></g></g><g fill="none" stroke="currentColor" stroke-linecap="butt" stroke-linejoin="miter" stroke-width=".5" color="gray"><path stroke="gray" stroke-dasharray="2 4" d="M425.0,224.4 L425.0,18.1" class="gridline"/></g><g fill="none" stroke="currentColor" stroke-linecap="butt" stroke-linejoin="miter" stroke-width="1" color="#000"><path stroke="#000" d="M425.0,224.4 L425.0,215.4"/><g fill="#000" stroke="none" font-family="Helvetica" font-size="12" text-anchor="middle"><text transform="translate(425.0,246.3)"><tspan font-family="Helvetica">3.5</tspan></text></g></g><g fill="none" stroke="currentColor" stroke-linecap="butt" stroke-linejoin="miter" stroke-width="1" color="#000"><path stroke="#000" d="M71.9,18.1 L71.9,224.4 L425.0,224.4 L425.0,18.1 L71.9,18.1 Z"/></g><g fill="none" stroke="currentColor" stroke-linecap="butt" stroke-linejoin="miter" stroke-width="1" color="#000"><g fill="#000" stroke="none" font-family="Helvetica" font-size="12" text-anchor="middle"><text transform="translate(16.3,121.3) rotate(270)"><tspan font-family="Helvetica">Total sample time (ms)</tspan></text></g></g><g fill="none" stroke="currentColor" stroke-linecap="butt" stroke-linejoin="miter" stroke-width="1" color="#000"><g fill="#000" stroke="none" font-family="Helvetica" font-size="12" text-anchor="middle"><text transform="translate(248.4,273.3)"><tspan font-family="Helvetica">Iterations (x 10</tspan><tspan dy="-6" font-family="Helvetica" font-size="9.6">3</tspan><tspan dy="6" font-family="Helvetica" font-size="12">)</tspan></text></g></g><g id="gnuplot_plot_1"><title>Sample</title><g fill="none" stroke="currentColor" stroke-linecap="butt" stroke-linejoin="miter" stroke-width="1" color="#000"><use color="#1F78B4" transform="translate(75.1,222.6) scale(2.25)" xlink:href="#gpPt6"/><use color="#1F78B4" transform="translate(78.4,220.8) scale(2.25)" xlink:href="#gpPt6"/><use color="#1F78B4" transform="translate(81.6,219.4) scale(2.25)" xlink:href="#gpPt6"/><use color="#1F78B4" transform="translate(84.8,217.6) scale(2.25)" xlink:href="#gpPt6"/><use color="#1F78B4" transform="translate(88.0,215.9) scale(2.25)" xlink:href="#gpPt6"/><use color="#1F78B4" transform="translate(91.3,214.1) scale(2.25)" xlink:href="#gpPt6"/><use color="#1F78B4" transform="translate(94.5,212.5) scale(2.25)" xlink:href="#gpPt6"/><use color="#1F78B4" transform="translate(97.7,210.7) scale(2.25)" xlink:href="#gpPt6"/><use color="#1F78B4" transform="translate(101.0,209.0) scale(2.25)" xlink:href="#gpPt6"/><use color="#1F78B4" transform="translate(104.2,207.6) scale(2.25)" xlink:href="#gpPt6"/><use color="#1F78B4" transform="translate(107.4,205.9) scale(2.25)" xlink:href="#gpPt6"/><use color="#1F78B4" transform="translate(110.6,204.1) scale(2.25)" xlink:href="#gpPt6"/><use color="#1F78B4" transform="translate(113.9,201.8) scale(2.25)" xlink:href="#gpPt6"/><use color="#1F78B4" transform="translate(117.1,196.1) scale(2.25)" xlink:href="#gpPt6"/><use color="#1F78B4" transform="translate(120.3,196.3) scale(2.25)" xlink:href="#gpPt6"/><use color="#1F78B4" transform="translate(123.6,197.2) scale(2.25)" xlink:href="#gpPt6"/><use color="#1F78B4" transform="translate(126.8,194.9) scale(2.25)" xlink:href="#gpPt6"/><use color="#1F78B4" transform="translate(130.0,193.7) scale(2.25)" xlink:href="#gpPt6"/><use color="#1F78B4" transform="translate(133.2,192.4) scale(2.25)" xlink:href="#gpPt6"/><use color="#1F78B4" transform="translate(136.5,189.7) scale(2.25)" xlink:href="#gpPt6"/><use color="#1F78B4" transform="translate(139.7,187.7) scale(2.25)" xlink:href="#gpPt6"/><use color="#1F78B4" transform="translate(142.9,185.2) scale(2.25)" xlink:href="#gpPt6"/><use color="#1F78B4" transform="translate(146.2,184.4) scale(2.25)" xlink:href="#gpPt6"/><use color="#1F78B4" transform="translate(149.4,182.7) scale(2.25)" xlink:href="#gpPt6"/><use color="#1F78B4" transform="translate(152.6,182.1) scale(2.25)" xlink:href="#gpPt6"/><use color="#1F78B4" transform="translate(155.8,180.9) scale(2.25)" xlink:href="#gpPt6"/><use color="#1F78B4" transform="translate(159.1,178.9) scale(2.25)" xlink:href="#gpPt6"/><use color="#1F78B4" transform="translate(162.3,176.6) scale(2.25)" xlink:href="#gpPt6"/><use color="#1F78B4" transform="translate(165.5,151.0) scale(2.25)" xlink:href="#gpPt6"/><use color="#1F78B4" transform="translate(168.8,142.2) scale(2.25)" xlink:href="#gpPt6"/><use color="#1F78B4" transform="translate(172.0,159.4) scale(2.25)" xlink:href="#gpPt6"/><use color="#1F78B4" transform="translate(175.2,169.5) scale(2.25)" xlink:href="#gpPt6"/><use color="#1F78B4" transform="translate(178.4,167.5) scale(2.25)" xlink:href="#gpPt6"/><use color="#1F78B4" transform="translate(181.7,164.9) scale(2.25)" xlink:href="#gpPt6"/><use color="#1F78B4" transform="translate(184.9,165.1) scale(2.25)" xlink:href="#gpPt6"/><use color="#1F78B4" transform="translate(188.1,163.7) scale(2.25)" xlink:href="#gpPt6"/><use color="#1F78B4" transform="translate(191.3,161.5) scale(2.25)" xlink:href="#gpPt6"/><use color="#1F78B4" transform="translate(194.6,161.3) scale(2.25)" xlink:href="#gpPt6"/><use color="#1F78B4" transform="translate(197.8,159.1) scale(2.25)" xlink:href="#gpPt6"/><use color="#1F78B4" transform="translate(201.0,157.4) scale(2.25)" xlink:href="#gpPt6"/><use color="#1F78B4" transform="translate(204.3,153.5) scale(2.25)" xlink:href="#gpPt6"/><use color="#1F78B4" transform="translate(207.5,153.4) scale(2.25)" xlink:href="#gpPt6"/><use color="#1F78B4" transform="translate(210.7,151.0) scale(2.25)" xlink:href="#gpPt6"/><use color="#1F78B4" transform="translate(213.9,150.3) scale(2.25)" xlink:href="#gpPt6"/><use color="#1F78B4" transform="translate(217.2,148.3) scale(2.25)" xlink:href="#gpPt6"/><use color="#1F78B4" transform="translate(220.4,142.8) scale(2.25)" xlink:href="#gpPt6"/><use color="#1F78B4" transform="translate(223.6,144.2) scale(2.25)" xlink:href="#gpPt6"/><use color="#1F78B4" transform="translate(226.9,143.3) scale(2.25)" xlink:href="#gpPt6"/><use color="#1F78B4" transform="translate(230.1,137.3) scale(2.25)" xlink:href="#gpPt6"/><use color="#1F78B4" transform="translate(233.3,137.9) scale(2.25)" xlink:href="#gpPt6"/><use color="#1F78B4" transform="translate(236.5,136.9) scale(2.25)" xlink:href="#gpPt6"/><use color="#1F78B4" transform="translate(239.8,135.7) scale(2.25)" xlink:href="#gpPt6"/><use color="#1F78B4" transform="translate(243.0,134.0) scale(2.25)" xlink:href="#gpPt6"/><use color="#1F78B4" transform="translate(246.2,125.6) scale(2.25)" xlink:href="#gpPt6"/><use color="#1F78B4" transform="translate(249.5,129.8) scale(2.25)" xlink:href="#gpPt6"/><use color="#1F78B4" transform="translate(252.7,129.4) scale(2.25)" xlink:href="#gpPt6"/><use color="#1F78B4" transform="translate(255.9,128.7) scale(2.25)" xlink:href="#gpPt6"/><use color="#1F78B4" transform="translate(259.1,126.4) scale(2.25)" xlink:href="#gpPt6"/><use color="#1F78B4" transform="translate(262.4,124.0) scale(2.25)" xlink:href="#gpPt6"/><use color="#1F78B4" transform="translate(265.6,123.5) scale(2.25)" xlink:href="#gpPt6"/><use color="#1F78B4" transform="translate(268.8,120.2) scale(2.25)" xlink:href="#gpPt6"/><use color="#1F78B4" transform="translate(272.1,119.4) scale(2.25)" xlink:href="#gpPt6"/><use color="#1F78B4" transform="translate(275.3,116.9) scale(2.25)" xlink:href="#gpPt6"/><use color="#1F78B4" transform="translate(278.5,105.5) scale(2.25)" xlink:href="#gpPt6"/><use color="#1F78B4" transform="translate(281.7,113.5) scale(2.25)" xlink:href="#gpPt6"/><use color="#1F78B4" transform="translate(285.0,111.7) scale(2.25)" xlink:href="#gpPt6"/><use color="#1F78B4" transform="translate(288.2,109.0) scale(2.25)" xlink:href="#gpPt6"/><use color="#1F78B4" transform="translate(291.4,108.8) scale(2.25)" xlink:href="#gpPt6"/><use color="#1F78B4" transform="translate(294.7,106.0) scale(2.25)" xlink:href="#gpPt6"/><use color="#1F78B4" transform="translate(297.9,50.6) scale(2.25)" xlink:href="#gpPt6"/><use color="#1F78B4" transform="translate(301.1,102.1) scale(2.25)" xlink:href="#gpPt6"/><use color="#1F78B4" transform="translate(304.3,98.4) scale(2.25)" xlink:href="#gpPt6"/><use color="#1F78B4" transform="translate(307.6,100.5) scale(2.25)" xlink:href="#gpPt6"/><use color="#1F78B4" transform="translate(310.8,98.8) scale(2.25)" xlink:href="#gpPt6"/><use color="#1F78B4" transform="translate(314.0,94.9) scale(2.25)" xlink:href="#gpPt6"/><use color="#1F78B4" transform="translate(317.3,93.6) scale(2.25)" xlink:href="#gpPt6"/><use color="#1F78B4" transform="translate(320.5,93.3) scale(2.25)" xlink:href="#gpPt6"/><use color="#1F78B4" transform="translate(323.7,88.2) scale(2.25)" xlink:href="#gpPt6"/><use color="#1F78B4" transform="translate(326.9,89.9) scale(2.25)" xlink:href="#gpPt6"/><use color="#1F78B4" transform="translate(330.2,86.2) scale(2.25)" xlink:href="#gpPt6"/><use color="#1F78B4" transform="translate(333.4,86.3) scale(2.25)" xlink:href="#gpPt6"/><use color="#1F78B4" transform="translate(336.6,84.1) scale(2.25)" xlink:href="#gpPt6"/><use color="#1F78B4" transform="translate(339.9,81.3) scale(2.25)" xlink:href="#gpPt6"/><use color="#1F78B4" transform="translate(343.1,80.1) scale(2.25)" xlink:href="#gpPt6"/><use color="#1F78B4" transform="translate(346.3,79.6) scale(2.25)" xlink:href="#gpPt6"/><use color="#1F78B4" transform="translate(349.5,78.3) scale(2.25)" xlink:href="#gpPt6"/><use color="#1F78B4" transform="translate(352.8,75.7) scale(2.25)" xlink:href="#gpPt6"/><use color="#1F78B4" transform="translate(356.0,73.4) scale(2.25)" xlink:href="#gpPt6"/><use color="#1F78B4" transform="translate(359.2,74.1) scale(2.25)" xlink:href="#gpPt6"/><use color="#1F78B4" transform="translate(362.5,65.6) scale(2.25)" xlink:href="#gpPt6"/><use color="#1F78B4" transform="translate(365.7,69.1) scale(2.25)" xlink:href="#gpPt6"/><use color="#1F78B4" transform="translate(368.9,66.5) scale(2.25)" xlink:href="#gpPt6"/><use color="#1F78B4" transform="translate(372.1,65.4) scale(2.25)" xlink:href="#gpPt6"/><use color="#1F78B4" transform="translate(375.4,64.6) scale(2.25)" xlink:href="#gpPt6"/><use color="#1F78B4" transform="translate(378.6,59.9) scale(2.25)" xlink:href="#gpPt6"/><use color="#1F78B4" transform="translate(381.8,62.6) scale(2.25)" xlink:href="#gpPt6"/><use color="#1F78B4" transform="translate(385.0,60.1) scale(2.25)" xlink:href="#gpPt6"/><use color="#1F78B4" transform="translate(388.3,59.5) scale(2.25)" xlink:href="#gpPt6"/><use color="#1F78B4" transform="translate(391.5,55.4) scale(2.25)" xlink:href="#gpPt6"/><use color="#1F78B4" transform="translate(394.7,50.6) scale(2.25)" xlink:href="#gpPt6"/></g></g><g id="gnuplot_plot_2"><title>Linear regression</title><g fill="none" stroke="currentColor" stroke-linecap="butt" stroke-linejoin="miter" stroke-width="2" color="#000"><path stroke="#1F78B4" d="M71.9,224.4 L394.7,51.3"/></g></g><g id="gnuplot_plot_3"><title>Confidence interval</title><g fill="none" stroke="currentColor" stroke-linecap="butt" stroke-linejoin="miter" stroke-width="1" color="#000"><g stroke="none" shape-rendering="crispEdges"><polygon fill="#1F78B4" fill-opacity=".25" points="71.9 224.4 71.9 224.4 71.9 224.4"/><polygon fill="#1F78B4" fill-opacity=".25" points="71.9 224.4 394.7 53.1 394.7 48.5"/></g></g></g><g fill="none" stroke="currentColor" stroke-linecap="butt" stroke-linejoin="miter" stroke-width="1" color="#000"><path stroke="#000" d="M71.9,18.1 L71.9,224.4 L425.0,224.4 L425.0,18.1 L71.9,18.1 Z"/></g></g></svg>