<svg xmlns="http://www.w3.org/2000/svg" xmlns:xlink="http://www.w3.org/1999/xlink" viewBox="0 0 450 300"><title>Gnuplot</title><desc>Produced by GNUPLOT 5.2 patchlevel 2</desc><g id="gnuplot_canvas"><rect width="450" height="300" x="0" y="0" fill="none"/><defs><circle id="gpDot" r=".5" stroke-width=".5"/><path id="gpPt0" stroke="currentColor" stroke-width=".222" d="M-1,0 h2 M0,-1 v2"/><path id="gpPt1" stroke="currentColor" stroke-width=".222" d="M-1,-1 L1,1 M1,-1 L-1,1"/><path id="gpPt2" stroke="currentColor" stroke-width=".222" d="M-1,0 L1,0 M0,-1 L0,1 M-1,-1 L1,1 M-1,1 L1,-1"/><rect id="gpPt3" width="2" height="2" x="-1" y="-1" stroke="currentColor" stroke-width=".222"/><rect id="gpPt4" width="2" height="2" x="-1" y="-1" fill="currentColor" stroke="currentColor" stroke-width=".222"/><circle id="gpPt5" cx="0" cy="0" r="1" stroke="currentColor" stroke-width=".222"/><use id="gpPt6" fill="currentColor" stroke="none" xlink:href="#gpPt5"/><path id="gpPt7" stroke="currentColor" stroke-width=".222" d="M0,-1.33 L-1.33,0.67 L1.33,0.67 z"/><use id="gpPt8" fill="currentColor" stroke="none" xlink:href="#gpPt7"/><use id="gpPt9" stroke="currentColor" transform="rotate(180)" xlink:href="#gpPt7"/><use id="gpPt10" fill="currentColor" stroke="none" xlink:href="#gpPt9"/><use id="gpPt11" stroke="currentColor" transform="rotate(45)" xlink:href="#gpPt3"/><use id="gpPt12" fill="currentColor" stroke="none" xlink:href="#gpPt11"/><path id="gpPt13" stroke="currentColor" stroke-width=".222" d="M0,1.330 L1.265,0.411 L0.782,-1.067 L-0.782,-1.076 L-1.265,0.411 z"/><use id="gpPt14" fill="currentColor" stroke="none" xlink:href="#gpPt13"/><filter id="textbox" width="1" height="1" x="0" y="0" filterUnits="objectBoundingBox"><feFlood flood-color="#fff" flood-opacity="1" result="bgnd"/><feComposite in="SourceGraphic" in2="bgnd" operator="atop"/></filter><filter id="greybox" width="1" height="1" x="0" y="0" filterUnits="objectBoundingBox"><feFlood flood-color="#d3d3d3" flood-opacity="1" result="grey"/><feComposite in="SourceGraphic" in2="grey" operator="atop"/></filter></defs><g fill="none" stroke="currentColor" stroke-linecap="butt" stroke-linejoin="miter" stroke-width=".5" color="gray"><path stroke="gray" stroke-dasharray="2 4" d="M71.9,224.4 L425.0,224.4" class="gridline"/></g><g fill="none" stroke="currentColor" stroke-linecap="butt" stroke-linejoin="miter" stroke-width="1" color="#000"><path stroke="#000" d="M71.9,224.4 L80.9,224.4"/><g fill="#000" stroke="none" font-family="Helvetica" font-size="12" text-anchor="end"><text transform="translate(63.6,228.3)"><tspan font-family="Helvetica">0</tspan></text></g></g><g fill="none" stroke="currentColor" stroke-linecap="butt" stroke-linejoin="miter" stroke-width=".5" color="gray"><path stroke="gray" stroke-dasharray="2 4" d="M71.9,203.8 L425.0,203.8" class="gridline"/></g><g fill="none" stroke="currentColor" stroke-linecap="butt" stroke-linejoin="miter" stroke-width="1" color="#000"><path stroke="#000" d="M71.9,203.8 L80.9,203.8"/><g fill="#000" stroke="none" font-family="Helvetica" font-size="12" text-anchor="end"><text transform="translate(63.6,207.7)"><tspan font-family="Helvetica">10</tspan></text></g></g><g fill="none" stroke="currentColor" stroke-linecap="butt" stroke-linejoin="miter" stroke-width=".5" color="gray"><path stroke="gray" stroke-dasharray="2 4" d="M71.9,183.1 L425.0,183.1" class="gridline"/></g><g fill="none" stroke="currentColor" stroke-linecap="butt" stroke-linejoin="miter" stroke-width="1" color="#000"><path stroke="#000" d="M71.9,183.1 L80.9,183.1"/><g fill="#000" stroke="none" font-family="Helvetica" font-size="12" text-anchor="end"><text transform="translate(63.6,187.0)"><tspan font-family="Helvetica">20</tspan></text></g></g><g fill="none" stroke="currentColor" stroke-linecap="butt" stroke-linejoin="miter" stroke-width=".5" color="gray"><path stroke="gray" stroke-dasharray="2 4" d="M71.9,162.5 L425.0,162.5" class="gridline"/></g><g fill="none" stroke="currentColor" stroke-linecap="butt" stroke-linejoin="miter" stroke-width="1" color="#000"><path stroke="#000" d="M71.9,162.5 L80.9,162.5"/><g fill="#000" stroke="none" font-family="Helvetica" font-size="12" text-anchor="end"><text transform="translate(63.6,166.4)"><tspan font-family="Helvetica">30</tspan></text></g></g><g fill="none" stroke="currentColor" stroke-linecap="butt" stroke-linejoin="miter" stroke-width=".5" color="gray"><path stroke="gray" stroke-dasharray="2 4" d="M71.9,141.9 L425.0,141.9" class="gridline"/></g><g fill="none" stroke="currentColor" stroke-linecap="butt" stroke-linejoin="miter" stroke-width="1" color="#000"><path stroke="#000" d="M71.9,141.9 L80.9,141.9"/><g fill="#000" stroke="none" font-family="Helvetica" font-size="12" text-anchor="end"><text transform="translate(63.6,145.8)"><tspan font-family="Helvetica">40</tspan></text></g></g><g fill="none" stroke="currentColor" stroke-linecap="butt" stroke-linejoin="miter" stroke-width=".5" color="gray"><path stroke="gray" stroke-dasharray="2 4" d="M71.9,121.2 L425.0,121.2" class="gridline"/></g><g fill="none" stroke="currentColor" stroke-linecap="butt" stroke-linejoin="miter" stroke-width="1" color="#000"><path stroke="#000" d="M71.9,121.2 L80.9,121.2"/><g fill="#000" stroke="none" font-family="Helvetica" font-size="12" text-anchor="end"><text transform="translate(63.6,125.1)"><tspan font-family="Helvetica">50</tspan></text></g></g><g fill="none" stroke="currentColor" stroke-linecap="butt" stroke-linejoin="miter" stroke-width=".5" color="gray"><path stroke="gray" stroke-dasharray="2 4" d="M71.9,100.6 L425.0,100.6" class="gridline"/></g><g fill="none" stroke="currentColor" stroke-linecap="butt" stroke-linejoin="miter" stroke-width="1" color="#000"><path stroke="#000" d="M71.9,100.6 L80.9,100.6"/><g fill="#000" stroke="none" font-family="Helvetica" font-size="12" text-anchor="end"><text transform="translate(63.6,104.5)"><tspan font-family="Helvetica">60</tspan></text></g></g><g fill="none" stroke="currentColor" stroke-linecap="butt" stroke-linejoin="miter" stroke-width=".5" color="gray"><path stroke="gray" stroke-dasharray="2 4" d="M71.9,80.0 L425.0,80.0" class="gridline"/></g><g fill="none" stroke="currentColor" stroke-linecap="butt" stroke-linejoin="miter" stroke-width="1" color="#000"><path stroke="#000" d="M71.9,80.0 L80.9,80.0"/><g fill="#000" stroke="none" font-family="Helvetica" font-size="12" text-anchor="end"><text transform="translate(63.6,83.9)"><tspan font-family="Helvetica">70</tspan></text></g></g><g fill="none" stroke="currentColor" stroke-linecap="butt" stroke-linejoin="miter" stroke-width=".5" color="gray"><path stroke="gray" stroke-dasharray="2 4" d="M71.9,59.4 L425.0,59.4" class="gridline"/></g><g fill="none" stroke="currentColor" stroke-linecap="butt" stroke-linejoin="miter" stroke-width="1" color="#000"><path stroke="#000" d="M71.9,59.4 L80.9,59.4"/><g fill="#000" stroke="none" font-family="Helvetica" font-size="12" text-anchor="end"><text transform="translate(63.6,63.3)"><tspan font-family="Helvetica">80</tspan></text></g></g><g fill="none" stroke="currentColor" stroke-linecap="butt" stroke-linejoin="miter" stroke-width=".5" color="gray"><path stroke="gray" stroke-dasharray="2 4" d="M71.9,38.7 L425.0,38.7" class="gridline"/></g><g fill="none" stroke="currentColor" stroke-linecap="butt" stroke-linejoin="miter" stroke-width="1" color="#000"><path stroke="#000" d="M71.9,38.7 L80.9,38.7"/><g fill="#000" stroke="none" font-family="Helvetica" font-size="12" text-anchor="end"><text transform="translate(63.6,42.6)"><tspan font-family="Helvetica">90</tspan></text></g></g><g fill="none" stroke="currentColor" stroke-linecap="butt" stroke-linejoin="miter" stroke-width=".5" color="gray"><path stroke="gray" stroke-dasharray="2 4" d="M71.9,18.1 L425.0,18.1" class="gridline"/></g><g fill="none" stroke="currentColor" stroke-linecap="butt" stroke-linejoin="miter" stroke-width="1" color="#000"><path stroke="#000" d="M71.9,18.1 L80.9,18.1"/><g fill="#000" stroke="none" font-family="Helvetica" font-size="12" text-anchor="end"><text transform="translate(63.6,22.0)"><tspan font-family="Helvetica">100</tspan></text></g></g><g fill="none" stroke="currentColor" stroke-linecap="butt" stroke-linejoin="miter" stroke-width=".5" color="gray"><path stroke="gray" stroke-dasharray="2 4" d="M71.9,224.4 L71.9,18.1" class="gridline"/></g><g fill="none" stroke="currentColor" stroke-linecap="butt" stroke-linejoin="miter" stroke-width="1" color="#000"><path stroke="#000" d="M71.9,224.4 L71.9,215.4"/><g fill="#000" stroke="none" font-family="Helvetica" font-size="12" text-anchor="middle"><text transform="translate(71.9,246.3)"><tspan font-family="Helvetica">0</tspan></text></g></g><g fill="none" stroke="currentColor" stroke-linecap="butt" stroke-linejoin="miter" stroke-width=".5" color="gray"><path stroke="gray" stroke-dasharray="2 4" d="M142.5,224.4 L142.5,18.1" class="gridline"/></g><g fill="none" stroke="currentColor" stroke-linecap="butt" stroke-linejoin="miter" stroke-width="1" color="#000"><path stroke="#000" d="M142.5,224.4 L142.5,215.4"/><g fill="#000" stroke="none" font-family="Helvetica" font-size="12" text-anchor="middle"><text transform="translate(142.5,246.3)"><tspan font-family="Helvetica">5</tspan></text></g></g><g fill="none" stroke="currentColor" stroke-linecap="butt" stroke-linejoin="miter" stroke-width=".5" color="gray"><path stroke="gray" stroke-dasharray="2 4" d="M213.1,224.4 L213.1,18.1" class="gridline"/></g><g fill="none" stroke="currentColor" stroke-linecap="butt" stroke-linejoin="miter" stroke-width="1" color="#000"><path stroke="#000" d="M213.1,224.4 L213.1,215.4"/><g fill="#000" stroke="none" font-family="Helvetica" font-size="12" text-anchor="middle"><text transform="translate(213.1,246.3)"><tspan font-family="Helvetica">10</tspan></text></g></g><g fill="none" stroke="currentColor" stroke-linecap="butt" stroke-linejoin="miter" stroke-width=".5" color="gray"><path stroke="gray" stroke-dasharray="2 4" d="M283.8,224.4 L283.8,18.1" class="gridline"/></g><g fill="none" stroke="currentColor" stroke-linecap="butt" stroke-linejoin="miter" stroke-width="1" color="#000"><path stroke="#000" d="M283.8,224.4 L283.8,215.4"/><g fill="#000" stroke="none" font-family="Helvetica" font-size="12" text-anchor="middle"><text transform="translate(283.8,246.3)"><tspan font-family="Helvetica">15</tspan></text></g></g><g fill="none" stroke="currentColor" stroke-linecap="butt" stroke-linejoin="miter" stroke-width=".5" color="gray"><path stroke="gray" stroke-dasharray="2 4" d="M354.4,224.4 L354.4,18.1" class="gridline"/></g><g fill="none" stroke="currentColor" stroke-linecap="butt" stroke-linejoin="miter" stroke-width="1" color="#000"><path stroke="#000" d="M354.4,224.4 L354.4,215.4"/><g fill="#000" stroke="none" font-family="Helvetica" font-size="12" text-anchor="middle"><text transform="translate(354.4,246.3)"><tspan font-family="Helvetica">20</tspan></text></g></g><g fill="none" stroke="currentColor" stroke-linecap="butt" stroke-linejoin="miter" stroke-width=".5" color="gray"><path stroke="gray" stroke-dasharray="2 4" d="M425.0,224.4 L425.0,18.1" class="gridline"/></g><g fill="none" stroke="currentColor" stroke-linecap="butt" stroke-linejoin="miter" stroke-width="1" color="#000"><path stroke="#000" d="M425.0,224.4 L425.0,215.4"/><g fill="#000" stroke="none" font-family="Helvetica" font-size="12" text-anchor="middle"><text transform="translate(425.0,246.3)"><tspan font-family="Helvetica">25</tspan></text></g></g><g fill="none" stroke="currentColor" stroke-linecap="butt" stroke-linejoin="miter" stroke-width="1" color="#000"><path stroke="#000" d="M71.9,18.1 L71.9,224.4 L425.0,224.4 L425.0,18.1 L71.9,18.1 Z"/></g><g fill="none" stroke="currentColor" stroke-linecap="butt" stroke-linejoin="miter" stroke-width="1" color="#000"><g fill="#000" stroke="none" font-family="Helvetica" font-size="12" text-anchor="middle"><text transform="translate(16.3,121.3) rotate(270)"><tspan font-family="Helvetica">Total sample time (ms)</tspan></text></g></g><g fill="none" stroke="currentColor" stroke-linecap="butt" stroke-linejoin="miter" stroke-width="1" color="#000"><g fill="#000" stroke="none" font-family="Helvetica" font-size="12" text-anchor="middle"><text transform="translate(248.4,273.3)"><tspan font-family="Helvetica">Iterations (x 10</tspan><tspan dy="-6" font-family="Helvetica" font-size="9.6">6</tspan><tspan dy="6" font-family="Helvetica" font-size="12">)</tspan></text></g></g><g id="gnuplot_plot_1"><title>Sample</title><g fill="none" stroke="currentColor" stroke-linecap="butt" stroke-linejoin="miter" stroke-width="1" color="#000"><use color="#1F78B4" transform="translate(74.9,222.1) scale(2.25)" xlink:href="#gpPt6"/><use color="#1F78B4" transform="translate(77.8,220.6) scale(2.25)" xlink:href="#gpPt6"/><use color="#1F78B4" transform="translate(80.8,218.3) scale(2.25)" xlink:href="#gpPt6"/><use color="#1F78B4" transform="translate(83.7,216.3) scale(2.25)" xlink:href="#gpPt6"/><use color="#1F78B4" transform="translate(86.7,214.2) scale(2.25)" xlink:href="#gpPt6"/><use color="#1F78B4" transform="translate(89.6,212.3) scale(2.25)" xlink:href="#gpPt6"/><use color="#1F78B4" transform="translate(92.6,209.3) scale(2.25)" xlink:href="#gpPt6"/><use color="#1F78B4" transform="translate(95.6,207.3) scale(2.25)" xlink:href="#gpPt6"/><use color="#1F78B4" transform="translate(98.5,206.3) scale(2.25)" xlink:href="#gpPt6"/><use color="#1F78B4" transform="translate(101.5,203.1) scale(2.25)" xlink:href="#gpPt6"/><use color="#1F78B4" transform="translate(104.4,202.0) scale(2.25)" xlink:href="#gpPt6"/><use color="#1F78B4" transform="translate(107.4,200.3) scale(2.25)" xlink:href="#gpPt6"/><use color="#1F78B4" transform="translate(110.4,198.5) scale(2.25)" xlink:href="#gpPt6"/><use color="#1F78B4" transform="translate(113.3,195.8) scale(2.25)" xlink:href="#gpPt6"/><use color="#1F78B4" transform="translate(116.3,194.1) scale(2.25)" xlink:href="#gpPt6"/><use color="#1F78B4" transform="translate(119.2,190.8) scale(2.25)" xlink:href="#gpPt6"/><use color="#1F78B4" transform="translate(122.2,183.0) scale(2.25)" xlink:href="#gpPt6"/><use color="#1F78B4" transform="translate(125.1,187.7) scale(2.25)" xlink:href="#gpPt6"/><use color="#1F78B4" transform="translate(128.1,182.7) scale(2.25)" xlink:href="#gpPt6"/><use color="#1F78B4" transform="translate(131.1,182.2) scale(2.25)" xlink:href="#gpPt6"/><use color="#1F78B4" transform="translate(134.0,180.7) scale(2.25)" xlink:href="#gpPt6"/><use color="#1F78B4" transform="translate(137.0,178.6) scale(2.25)" xlink:href="#gpPt6"/><use color="#1F78B4" transform="translate(139.9,177.3) scale(2.25)" xlink:href="#gpPt6"/><use color="#1F78B4" transform="translate(142.9,175.5) scale(2.25)" xlink:href="#gpPt6"/><use color="#1F78B4" transform="translate(145.9,174.3) scale(2.25)" xlink:href="#gpPt6"/><use color="#1F78B4" transform="translate(148.8,172.0) scale(2.25)" xlink:href="#gpPt6"/><use color="#1F78B4" transform="translate(151.8,169.3) scale(2.25)" xlink:href="#gpPt6"/><use color="#1F78B4" transform="translate(154.7,168.1) scale(2.25)" xlink:href="#gpPt6"/><use color="#1F78B4" transform="translate(157.7,166.3) scale(2.25)" xlink:href="#gpPt6"/><use color="#1F78B4" transform="translate(160.6,163.7) scale(2.25)" xlink:href="#gpPt6"/><use color="#1F78B4" transform="translate(163.6,161.3) scale(2.25)" xlink:href="#gpPt6"/><use color="#1F78B4" transform="translate(166.6,160.0) scale(2.25)" xlink:href="#gpPt6"/><use color="#1F78B4" transform="translate(169.5,158.0) scale(2.25)" xlink:href="#gpPt6"/><use color="#1F78B4" transform="translate(172.5,155.2) scale(2.25)" xlink:href="#gpPt6"/><use color="#1F78B4" transform="translate(175.4,153.9) scale(2.25)" xlink:href="#gpPt6"/><use color="#1F78B4" transform="translate(178.4,151.9) scale(2.25)" xlink:href="#gpPt6"/><use color="#1F78B4" transform="translate(181.4,148.1) scale(2.25)" xlink:href="#gpPt6"/><use color="#1F78B4" transform="translate(184.3,149.6) scale(2.25)" xlink:href="#gpPt6"/><use color="#1F78B4" transform="translate(187.3,147.7) scale(2.25)" xlink:href="#gpPt6"/><use color="#1F78B4" transform="translate(190.2,146.0) scale(2.25)" xlink:href="#gpPt6"/><use color="#1F78B4" transform="translate(193.2,143.3) scale(2.25)" xlink:href="#gpPt6"/><use color="#1F78B4" transform="translate(196.1,140.6) scale(2.25)" xlink:href="#gpPt6"/><use color="#1F78B4" transform="translate(199.1,138.4) scale(2.25)" xlink:href="#gpPt6"/><use color="#1F78B4" transform="translate(202.1,136.7) scale(2.25)" xlink:href="#gpPt6"/><use color="#1F78B4" transform="translate(205.0,135.2) scale(2.25)" xlink:href="#gpPt6"/><use color="#1F78B4" transform="translate(208.0,130.6) scale(2.25)" xlink:href="#gpPt6"/><use color="#1F78B4" transform="translate(210.9,130.2) scale(2.25)" xlink:href="#gpPt6"/><use color="#1F78B4" transform="translate(213.9,123.2) scale(2.25)" xlink:href="#gpPt6"/><use color="#1F78B4" transform="translate(216.9,126.5) scale(2.25)" xlink:href="#gpPt6"/><use color="#1F78B4" transform="translate(219.8,119.6) scale(2.25)" xlink:href="#gpPt6"/><use color="#1F78B4" transform="translate(222.8,120.3) scale(2.25)" xlink:href="#gpPt6"/><use color="#1F78B4" transform="translate(225.7,121.9) scale(2.25)" xlink:href="#gpPt6"/><use color="#1F78B4" transform="translate(228.7,116.4) scale(2.25)" xlink:href="#gpPt6"/><use color="#1F78B4" transform="translate(231.6,112.2) scale(2.25)" xlink:href="#gpPt6"/><use color="#1F78B4" transform="translate(234.6,116.7) scale(2.25)" xlink:href="#gpPt6"/><use color="#1F78B4" transform="translate(237.6,114.3) scale(2.25)" xlink:href="#gpPt6"/><use color="#1F78B4" transform="translate(240.5,100.0) scale(2.25)" xlink:href="#gpPt6"/><use color="#1F78B4" transform="translate(243.5,106.7) scale(2.25)" xlink:href="#gpPt6"/><use color="#1F78B4" transform="translate(246.4,106.2) scale(2.25)" xlink:href="#gpPt6"/><use color="#1F78B4" transform="translate(249.4,104.1) scale(2.25)" xlink:href="#gpPt6"/><use color="#1F78B4" transform="translate(252.4,102.9) scale(2.25)" xlink:href="#gpPt6"/><use color="#1F78B4" transform="translate(255.3,102.0) scale(2.25)" xlink:href="#gpPt6"/><use color="#1F78B4" transform="translate(258.3,99.5) scale(2.25)" xlink:href="#gpPt6"/><use color="#1F78B4" transform="translate(261.2,96.6) scale(2.25)" xlink:href="#gpPt6"/><use color="#1F78B4" transform="translate(264.2,92.5) scale(2.25)" xlink:href="#gpPt6"/><use color="#1F78B4" transform="translate(267.1,78.7) scale(2.25)" xlink:href="#gpPt6"/><use color="#1F78B4" transform="translate(270.1,83.0) scale(2.25)" xlink:href="#gpPt6"/><use color="#1F78B4" transform="translate(273.1,86.3) scale(2.25)" xlink:href="#gpPt6"/><use color="#1F78B4" transform="translate(276.0,86.9) scale(2.25)" xlink:href="#gpPt6"/><use color="#1F78B4" transform="translate(279.0,79.9) scale(2.25)" xlink:href="#gpPt6"/><use color="#1F78B4" transform="translate(281.9,83.0) scale(2.25)" xlink:href="#gpPt6"/><use color="#1F78B4" transform="translate(284.9,80.8) scale(2.25)" xlink:href="#gpPt6"/><use color="#1F78B4" transform="translate(287.9,76.8) scale(2.25)" xlink:href="#gpPt6"/><use color="#1F78B4" transform="translate(290.8,74.7) scale(2.25)" xlink:href="#gpPt6"/><use color="#1F78B4" transform="translate(293.8,76.7) scale(2.25)" xlink:href="#gpPt6"/><use color="#1F78B4" transform="translate(296.7,70.3) scale(2.25)" xlink:href="#gpPt6"/><use color="#1F78B4" transform="translate(299.7,69.0) scale(2.25)" xlink:href="#gpPt6"/><use color="#1F78B4" transform="translate(302.6,68.5) scale(2.25)" xlink:href="#gpPt6"/><use color="#1F78B4" transform="translate(305.6,66.7) scale(2.25)" xlink:href="#gpPt6"/><use color="#1F78B4" transform="translate(308.6,44.4) scale(2.25)" xlink:href="#gpPt6"/><use color="#1F78B4" transform="translate(311.5,57.8) scale(2.25)" xlink:href="#gpPt6"/><use color="#1F78B4" transform="translate(314.5,59.7) scale(2.25)" xlink:href="#gpPt6"/><use color="#1F78B4" transform="translate(317.4,57.8) scale(2.25)" xlink:href="#gpPt6"/><use color="#1F78B4" transform="translate(320.4,55.2) scale(2.25)" xlink:href="#gpPt6"/><use color="#1F78B4" transform="translate(323.4,52.6) scale(2.25)" xlink:href="#gpPt6"/><use color="#1F78B4" transform="translate(326.3,50.8) scale(2.25)" xlink:href="#gpPt6"/><use color="#1F78B4" transform="translate(329.3,35.0) scale(2.25)" xlink:href="#gpPt6"/><use color="#1F78B4" transform="translate(332.2,49.9) scale(2.25)" xlink:href="#gpPt6"/><use color="#1F78B4" transform="translate(335.2,47.5) scale(2.25)" xlink:href="#gpPt6"/><use color="#1F78B4" transform="translate(338.1,44.0) scale(2.25)" xlink:href="#gpPt6"/><use color="#1F78B4" transform="translate(341.1,40.0) scale(2.25)" xlink:href="#gpPt6"/><use color="#1F78B4" transform="translate(344.1,25.9) scale(2.25)" xlink:href="#gpPt6"/><use color="#1F78B4" transform="translate(347.0,28.8) scale(2.25)" xlink:href="#gpPt6"/><use color="#1F78B4" transform="translate(350.0,20.9) scale(2.25)" xlink:href="#gpPt6"/><use color="#1F78B4" transform="translate(352.9,28.2) scale(2.25)" xlink:href="#gpPt6"/><use color="#1F78B4" transform="translate(355.9,34.5) scale(2.25)" xlink:href="#gpPt6"/><use color="#1F78B4" transform="translate(358.9,30.7) scale(2.25)" xlink:href="#gpPt6"/><use color="#1F78B4" transform="translate(361.8,26.3) scale(2.25)" xlink:href="#gpPt6"/><use color="#1F78B4" transform="translate(364.8,25.0) scale(2.25)" xlink:href="#gpPt6"/><use color="#1F78B4" transform="translate(367.7,28.7) scale(2.25)" xlink:href="#gpPt6"/></g></g><g id="gnuplot_plot_2"><title>Linear regression</title><g fill="none" stroke="currentColor" stroke-linecap="butt" stroke-linejoin="miter" stroke-width="2" color="#000"><path stroke="#1F78B4" d="M71.9,224.4 L367.7,20.9"/></g></g><g id="gnuplot_plot_3"><title>Confidence interval</title><g fill="none" stroke="currentColor" stroke-linecap="butt" stroke-linejoin="miter" stroke-width="1" color="#000"><g stroke="none" shape-rendering="crispEdges"><polygon fill="#1F78B4" fill-opacity=".25" points="71.9 224.4 71.9 224.4 71.9 224.4"/><polygon fill="#1F78B4" fill-opacity=".25" points="71.9 224.4 367.7 22.6 367.7 19.1"/></g></g></g><g fill="none" stroke="currentColor" stroke-linecap="butt" stroke-linejoin="miter" stroke-width="1" color="#000"><path stroke="#000" d="M71.9,18.1 L71.9,224.4 L425.0,224.4 L425.0,18.1 L71.9,18.1 Z"/></g></g></svg>